<svg width="14" height="14" viewBox="0 0 14 14" fill="none" xmlns="http://www.w3.org/2000/svg">
<g clip-path="url(#clip0_2319_14355)">
<path d="M10.0753 0H1.28882C1.0623 0 0.878662 0.183641 0.878662 0.410156V10.9539C0.878662 11.1804 1.0623 11.3641 1.28882 11.3641H10.0753C10.3018 11.3641 10.4855 11.1804 10.4855 10.9539V0.410156C10.4855 0.183641 10.3018 0 10.0753 0Z" fill="white"/>
<path d="M12.7112 2.63599H11.3057V10.954C11.3057 11.6325 10.7537 12.1844 10.0752 12.1844H3.51453V13.5899C3.51453 13.8164 3.69817 14 3.92468 14H12.7112C12.9377 14 13.1213 13.8164 13.1213 13.5899V3.04614C13.1213 2.81963 12.9377 2.63599 12.7112 2.63599Z" fill="white"/>
</g>
<defs>
<clipPath id="clip0_2319_14355">
<rect width="14" height="14" fill="white"/>
</clipPath>
</defs>
</svg>
