<svg width="79" height="79" viewBox="0 0 79 79" fill="none" xmlns="http://www.w3.org/2000/svg">
<rect width="79" height="79" rx="13.825" fill="#EAECF5"/>
<g clip-path="url(#clip0_2306_13566)">
<path d="M15.0115 36.7833C14.9029 37.6572 15.5844 38.4288 16.4651 38.4288H22.4246C23.14 38.4288 23.7507 37.9121 23.8692 37.2065C25.0161 30.3759 30.3759 25.0161 37.2065 23.8692C37.912 23.7507 38.4287 23.14 38.4287 22.4246V16.465C38.4287 15.5843 37.6573 14.9028 36.7832 15.0114C31.2881 15.6943 26.0969 18.2352 22.166 22.166C18.2353 26.0968 15.6944 31.2881 15.0115 36.7833Z" fill="#293056"/>
<path d="M49.3336 53.1523C46.5533 55.1375 43.2933 56.1867 39.9059 56.1867C31.9351 56.1867 25.1908 50.4748 23.8693 42.6048C23.7508 41.8994 23.1401 41.3826 22.4247 41.3826H16.4651C15.5844 41.3826 14.9029 42.1541 15.0115 43.028V43.0281C16.5682 55.5541 27.2704 65 39.9059 65C45.5348 65 50.858 63.1729 55.3002 59.7164C55.9955 59.1753 56.0594 58.1474 55.4365 57.5245L51.2206 53.3086C50.7143 52.8024 49.9162 52.7363 49.3336 53.1523Z" fill="#293056"/>
<path d="M42.6049 23.8692C50.4748 25.1907 56.1869 31.935 56.1869 39.9058C56.1869 43.2932 55.1375 46.5532 53.1525 49.3336C52.7365 49.9162 52.8026 50.7142 53.3088 51.2205L57.5249 55.4365C58.1478 56.0594 59.1756 55.9955 59.7167 55.3003L59.7167 55.3002C63.1731 50.8582 65 45.5348 65 39.9058C65 27.2704 55.5541 16.5681 43.0282 15.0114H43.0281C42.1541 14.9028 41.3826 15.5843 41.3826 16.465V22.4246C41.3827 23.14 41.8994 23.7507 42.6049 23.8692Z" fill="#293056"/>
<path d="M40.8812 29.8402H38.9269C38.118 29.8402 37.4621 30.4961 37.4621 31.3051V48.3947H42.3461V31.3051C42.3461 30.4961 41.6902 29.8402 40.8812 29.8402Z" fill="#293056"/>
<path d="M45.2758 48.3947H48.695C49.5039 48.3947 50.1598 47.7388 50.1598 46.9298V35.2112C50.1598 34.4022 49.5039 33.7463 48.695 33.7463H45.2758V48.3947Z" fill="#293056"/>
<path d="M34.5324 37.6526H31.117C30.308 37.6526 29.6522 38.3084 29.6522 39.1174V46.9298C29.6522 47.7388 30.308 48.3947 31.117 48.3947H34.5324V37.6526Z" fill="#293056"/>
</g>
<defs>
<clipPath id="clip0_2306_13566">
<rect width="50" height="50" fill="white" transform="translate(15 15)"/>
</clipPath>
</defs>
</svg>
