<svg width="89" height="52" viewBox="0 0 89 52" fill="none" xmlns="http://www.w3.org/2000/svg">
<path d="M1.8234 15.4867L2.13273 14.7866L2.55602 15.4378C2.89791 15.9588 3.37004 16.3658 3.93986 16.61L4.63991 16.9194L3.9887 17.3426C3.46772 17.6845 3.06071 18.1567 2.81651 18.7265L2.50718 19.4265L2.08389 18.7753C1.742 18.2543 1.26987 17.8473 0.700057 17.6031L0 17.2938L0.651216 16.8705C1.17219 16.5286 1.5792 16.0565 1.8234 15.4867Z" fill="#D5D9EB"/>
<path d="M83.7864 37.7443L84.3692 36.4399L85.1497 37.6295C85.774 38.5895 86.6586 39.3408 87.6992 39.8104L89 40.3947L87.8137 41.1773C86.8563 41.8034 86.107 42.6904 85.6388 43.7339L85.056 45.0382L84.2755 43.8486C83.6511 42.8886 82.7666 42.1373 81.726 41.6678L80.4252 41.0834L81.6115 40.3008C82.5689 39.6747 83.3181 38.7878 83.7864 37.7443Z" fill="#D5D9EB"/>
<path d="M9.65708 1.85342L10.3929 0.09375L11.3783 1.69857C12.1666 2.9937 13.2834 4.00727 14.5973 4.64075L16.2397 5.42909L14.7418 6.48489C13.5331 7.32953 12.5871 8.52612 11.9958 9.93386L11.26 11.6935L10.2746 10.0887C9.48627 8.79358 8.36946 7.78001 7.05557 7.14653L5.41321 6.35819L6.91104 5.30239C8.11982 4.45775 9.06582 3.26117 9.65708 1.85342Z" fill="#D5D9EB"/>
<g clip-path="url(#clip0_4119_6298)">
<path d="M28.3908 28.1474H29.8634V32.5653C29.8634 33.1087 30.1625 33.6081 30.6415 33.8639C31.1136 34.1173 31.6965 34.0951 32.1529 33.7906L40.7156 28.1474H54.9963C57.4361 28.1474 59.4142 26.1694 59.4142 23.7296V6.05802C59.4142 3.61821 57.4361 1.64014 54.9963 1.64014H28.3908C25.951 1.64014 23.9729 3.61821 23.9729 6.05802V23.7296C23.9729 26.1694 25.951 28.1474 28.3908 28.1474ZM50.5784 7.53065C51.3918 7.53065 52.051 8.18988 52.051 9.00328C52.051 9.81668 51.3918 10.4759 50.5784 10.4759C49.765 10.4759 49.1058 9.81668 49.1058 9.00328C49.1058 8.18988 49.765 7.53065 50.5784 7.53065ZM50.5784 13.4212C51.3918 13.4212 52.051 14.0804 52.051 14.8938C52.051 15.7072 51.3918 16.3664 50.5784 16.3664C49.765 16.3664 49.1058 15.7072 49.1058 14.8938C49.1058 14.0804 49.765 13.4212 50.5784 13.4212ZM32.8087 7.53065H44.6879C45.5017 7.53065 46.1605 8.1895 46.1605 9.00328C46.1605 9.81706 45.5017 10.4759 44.6879 10.4759H32.8087C31.9949 10.4759 31.336 9.81706 31.336 9.00328C31.336 8.1895 31.9949 7.53065 32.8087 7.53065ZM32.8087 13.4212H44.6879C45.5017 13.4212 46.1605 14.08 46.1605 14.8938C46.1605 15.7076 45.5017 16.3664 44.6879 16.3664H32.8087C31.9949 16.3664 31.336 15.7076 31.336 14.8938C31.336 14.08 31.9949 13.4212 32.8087 13.4212ZM32.8087 19.3117H50.5784C51.3922 19.3117 52.051 19.9705 52.051 20.7843C52.051 21.5981 51.3922 22.2569 50.5784 22.2569H32.8087C31.9949 22.2569 31.336 21.5981 31.336 20.7843C31.336 19.9705 31.9949 19.3117 32.8087 19.3117Z" fill="#B3B8DB"/>
<path d="M69.7226 19.312H62.3594V23.7299C62.3594 27.7896 59.056 31.093 54.9963 31.093H41.6072L38.7974 32.9664V41.4014C38.7974 43.8412 40.7754 45.8193 43.2152 45.8193H57.4959L65.9605 51.6588C66.4172 51.9629 66.9997 51.9856 67.4718 51.7321C67.9508 51.4763 68.2499 50.977 68.2499 50.4336V45.8193H69.7226C72.1624 45.8193 74.2386 43.8412 74.2386 41.4014V23.7299C74.2386 21.2901 72.1624 19.312 69.7226 19.312ZM65.3047 39.9288H47.6331C46.8194 39.9288 46.1605 39.27 46.1605 38.4562C46.1605 37.6424 46.8194 36.9836 47.6331 36.9836H65.3047C66.1185 36.9836 66.7773 37.6424 66.7773 38.4562C66.7773 39.27 66.1185 39.9288 65.3047 39.9288Z" fill="#B3B8DB"/>
<path d="M29.7728 23.6802V4.73389H54.519V23.6802H29.7728Z" fill="#B3B8DB"/>
<path d="M42.5326 42.6266V34.1201H67.2788V42.6266H42.5326Z" fill="#B3B8DB"/>
<circle cx="49.151" cy="35.6662" r="1.82534" fill="white"/>
<circle cx="56.4523" cy="35.6662" r="1.82534" fill="white"/>
<circle cx="63.7537" cy="35.6662" r="1.82534" fill="white"/>
<path d="M45.3165 16.0798C44.6109 16.0798 43.9695 16.3398 43.4968 16.7622L40.6848 15.1409C40.8452 14.7949 40.9343 14.4138 40.9343 14.0136C40.9343 13.6134 40.8452 13.2323 40.6847 12.8862L43.4967 11.265C43.9695 11.6874 44.6109 11.9474 45.3165 11.9474C46.7662 11.9474 47.9457 10.8497 47.9457 9.50054C47.9457 8.15136 46.7662 7.05371 45.3165 7.05371C43.8667 7.05371 42.6872 8.15136 42.6872 9.50054C42.6872 9.89886 42.79 10.2752 42.9722 10.6079L40.2261 12.1912C39.6629 11.5609 38.8144 11.1589 37.8668 11.1589C36.1754 11.1589 34.7993 12.4395 34.7993 14.0136C34.7993 15.5876 36.1754 16.8682 37.8668 16.8682C38.8144 16.8682 39.6629 16.4662 40.2261 15.8359L42.9722 17.4192C42.79 17.7519 42.6872 18.1283 42.6872 18.5266C42.6872 19.8758 43.8667 20.9734 45.3165 20.9734C46.7662 20.9734 47.9457 19.8758 47.9457 18.5266C47.9457 17.1774 46.7662 16.0798 45.3165 16.0798Z" fill="white"/>
</g>
<defs>
<clipPath id="clip0_4119_6298">
<rect width="50.2657" height="50.2657" fill="white" transform="translate(23.9729 1.64014)"/>
</clipPath>
</defs>
</svg>
