<svg width="14" height="14" viewBox="0 0 14 14" fill="none" xmlns="http://www.w3.org/2000/svg">
<path d="M7 5.65015C8.31383 5.65015 9.37891 4.58507 9.37891 3.27124C9.37891 1.95741 8.31383 0.892334 7 0.892334C5.68617 0.892334 4.62109 1.95741 4.62109 3.27124C4.62109 4.58507 5.68617 5.65015 7 5.65015Z" fill="black"/>
<path d="M11.8125 5.65015C12.6431 5.65015 13.3164 4.97682 13.3164 4.14624C13.3164 3.31566 12.6431 2.64233 11.8125 2.64233C10.9819 2.64233 10.3086 3.31566 10.3086 4.14624C10.3086 4.97682 10.9819 5.65015 11.8125 5.65015Z" fill="black"/>
<path d="M2.1875 5.65015C3.01808 5.65015 3.69141 4.97682 3.69141 4.14624C3.69141 3.31566 3.01808 2.64233 2.1875 2.64233C1.35692 2.64233 0.683594 3.31566 0.683594 4.14624C0.683594 4.97682 1.35692 5.65015 2.1875 5.65015Z" fill="black"/>
<path d="M3.66926 7.00054C3.07727 6.51551 2.54114 6.57972 1.85664 6.57972C0.832891 6.57972 0 7.40769 0 8.42515V11.4114C0 11.8532 0.360664 12.2125 0.80418 12.2125C2.71895 12.2125 2.48828 12.2472 2.48828 12.13C2.48828 10.0139 2.23765 8.46214 3.66926 7.00054Z" fill="black"/>
<path d="M7.65101 6.59086C6.45543 6.49114 5.41624 6.59201 4.51988 7.33187C3.01988 8.53336 3.30855 10.1511 3.30855 12.1302C3.30855 12.6538 3.73457 13.0877 4.26613 13.0877C10.0379 13.0877 10.2676 13.2739 10.6099 12.516C10.7221 12.2597 10.6914 12.3411 10.6914 9.88906C10.6914 7.94148 9.00499 6.59086 7.65101 6.59086Z" fill="black"/>
<path d="M12.1433 6.57989C11.4551 6.57989 10.9219 6.51635 10.3307 7.00071C11.7516 8.45146 11.5117 9.89737 11.5117 12.1301C11.5117 12.2481 11.3202 12.2127 13.1671 12.2127C13.6264 12.2127 13.9999 11.8406 13.9999 11.3831V8.42532C13.9999 7.40786 13.1671 6.57989 12.1433 6.57989Z" fill="black"/>
</svg>
