<svg width="200" height="134" viewBox="0 0 200 134" fill="none" xmlns="http://www.w3.org/2000/svg">
<path d="M69.7099 2.41968L49.9173 2.41968C48.4914 2.41968 47.2065 3.29192 46.6829 4.61698L44.9191 9.07839L74.7045 9.07839L72.9406 4.61698C72.4207 3.29192 71.1359 2.41968 69.7099 2.41968Z" fill="#9AA2D5"/>
<path d="M125.906 2.41968L106.113 2.41968C104.687 2.41968 103.402 3.29192 102.879 4.61698L101.115 9.07839L130.9 9.07839L129.136 4.61698C128.616 3.29192 127.335 2.41968 125.906 2.41968Z" fill="#D5D9EB"/>
<path d="M39.3154 33.887L38.9441 33.887L38.9441 41.0764L39.3154 41.0764L39.3154 33.887Z" fill="#B3B8DB"/>
<path d="M39.3157 43.8047L38.9443 43.8047L38.9443 46.4437L39.3157 46.4437L39.3157 43.8047Z" fill="#B3B8DB"/>
<path d="M161.257 8.58474L103.156 8.58474L101.589 4.61698C101.066 3.29192 99.7847 2.41968 98.355 2.41968L78.5624 2.41968C77.1364 2.41968 75.8516 3.29192 75.328 4.61698L73.7609 8.58474L44.8556 8.58474C42.6238 8.58474 40.7931 10.4109 40.7931 12.6453L40.7931 90.115C40.7931 92.3457 42.6201 94.1756 44.8556 94.1756L161.257 94.1756C163.489 94.1756 165.319 92.3494 165.319 90.115L165.319 12.6453C165.319 10.4146 163.492 8.58474 161.257 8.58474Z" fill="#B3B8DB"/>
<path d="M162.167 90.1929L162.167 20.2875C162.167 19.5229 161.547 18.9031 160.782 18.9031L44.2285 18.9031C43.4635 18.9031 42.8434 19.5229 42.8434 20.2875L42.8434 90.1929C42.8434 90.9575 43.4635 91.5773 44.2285 91.5773L160.782 91.5773C161.547 91.5773 162.167 90.9575 162.167 90.1929Z" fill="white"/>
<rect opacity="0.5" x="82.5615" y="21.8918" width="35.8286" height="32.7131" rx="2.23042" fill="#EAECF5"/>
<rect opacity="0.5" x="49.8484" y="57.7205" width="59.1951" height="29.5975" rx="2.23042" fill="#EAECF5"/>
<rect opacity="0.5" x="112.159" y="57.7205" width="38.9441" height="29.5975" rx="2.23042" fill="#EAECF5"/>
<rect x="49.8484" y="21.8918" width="29.5975" height="15.5777" rx="2.23042" fill="#B3B8DB"/>
<rect opacity="0.5" x="49.8484" y="40.585" width="29.5975" height="14.0199" rx="2.23042" fill="#EAECF5"/>
<rect x="121.506" y="21.8918" width="29.5975" height="32.7131" rx="2.23042" fill="#D5D9EB"/>
<g clip-path="url(#clip0_4119_6187)">
<g opacity="0.3">
<path d="M87.8462 85.0174C87.8272 84.8914 87.8453 84.7589 87.906 84.6364C88.0605 84.3261 88.2242 84.0132 88.3929 83.7064C88.5634 83.3964 88.9523 83.2838 89.2614 83.4543C89.5705 83.6251 89.6835 84.0143 89.513 84.3243C89.3528 84.6159 89.1972 84.913 89.0506 85.2078C88.8933 85.5242 88.5094 85.6532 88.1936 85.4956C87.9997 85.3988 87.8765 85.2169 87.8465 85.0177L87.8462 85.0174Z" fill="#D5D9EB"/>
</g>
<path d="M99.3802 84.4252C99.2946 84.52 99.2783 84.6586 99.3399 84.7703L101.092 87.9627C100.269 89.451 99.6771 91.0813 99.3632 92.8039L95.9901 94.1593C95.8719 94.207 95.7966 94.3243 95.803 94.4518L96.0184 98.8163C96.0249 98.9438 96.1113 99.0535 96.2336 99.0888L99.7238 100.104C100.206 101.787 100.956 103.351 101.921 104.751L100.492 108.101C100.442 108.218 100.472 108.354 100.566 108.44L103.799 111.374C103.894 111.459 104.032 111.476 104.144 111.414L107.33 109.659C108.816 110.483 110.443 111.076 112.163 111.391L113.516 114.77C113.563 114.889 113.68 114.964 113.808 114.958L118.165 114.742C118.292 114.735 118.401 114.649 118.437 114.526L119.45 111.03C121.13 110.547 122.691 109.796 124.088 108.828L127.432 110.26C127.549 110.31 127.686 110.28 127.771 110.186L130.699 106.947C130.785 106.852 130.801 106.714 130.74 106.602L128.987 103.409C129.81 101.921 130.402 100.291 130.716 98.5683L134.089 97.2128C134.208 97.1651 134.283 97.0478 134.276 96.9203L134.061 92.5556C134.055 92.4281 133.968 92.3184 133.846 92.283L130.356 91.2676C129.873 89.5846 129.124 88.0206 128.158 86.6209L129.587 83.271C129.638 83.1534 129.608 83.0171 129.513 82.9314L126.28 79.9979C126.186 79.9122 126.047 79.8958 125.936 79.9575L122.749 81.7128C121.264 80.8884 119.636 80.2953 117.917 79.9806L116.564 76.6014C116.516 76.483 116.399 76.4075 116.271 76.414L111.915 76.6298C111.788 76.6362 111.678 76.7225 111.643 76.8453L110.629 80.3418C108.949 80.8249 107.388 81.5759 105.991 82.5434L102.647 81.1115C102.53 81.0612 102.394 81.0911 102.308 81.1858L99.3799 84.4247L99.3802 84.4252Z" fill="#B3B8DB"/>
<path d="M110.704 96.3418C110.383 94.2248 111.654 92.1303 113.758 91.486C116.07 90.778 118.526 92.0864 119.233 94.4026C119.575 95.5247 119.461 96.7132 118.911 97.749C118.361 98.7849 117.441 99.5444 116.321 99.8874C114.009 100.595 111.553 99.287 110.846 96.9708C110.783 96.762 110.735 96.5518 110.704 96.3418ZM118.365 95.189C118.34 95.0255 118.304 94.8629 118.254 94.7018C117.713 92.926 115.829 91.9229 114.057 92.4657C112.284 93.0088 111.282 94.8948 111.824 96.6711C112.366 98.4468 114.25 99.4499 116.022 98.9071C116.881 98.6439 117.586 98.062 118.008 97.2674C118.351 96.6217 118.473 95.8987 118.365 95.1887V95.189Z" fill="#D5D9EB"/>
<path d="M104.455 97.381C104.401 97.0175 104.363 96.649 104.345 96.2767C104.339 96.1594 104.335 96.0422 104.333 95.9249C104.323 95.3464 104.359 94.768 104.441 94.1986C104.442 94.1907 104.443 94.1831 104.444 94.1752C104.447 94.1532 104.45 94.1313 104.454 94.1091C104.46 94.0664 104.467 94.0234 104.474 93.9807C104.492 93.8684 104.581 93.7851 104.688 93.769C104.714 93.7652 104.741 93.7652 104.768 93.7696C104.907 93.7924 105.001 93.9246 104.979 94.0638C104.861 94.7823 104.82 95.5181 104.856 96.251C105.035 99.8922 107.093 103.003 110.043 104.687C111.683 105.624 113.599 106.119 115.62 106.019C115.975 106.001 116.326 105.966 116.672 105.913C119.002 105.559 121.122 104.423 122.725 102.65C124.567 100.613 125.506 97.9796 125.371 95.2347C125.09 89.5662 120.262 85.1868 114.606 85.467C114.257 85.4842 113.911 85.519 113.568 85.5714C112.082 85.7972 110.662 86.3464 109.411 87.1842C109.379 87.2059 109.343 87.219 109.307 87.2246C109.213 87.2389 109.113 87.1992 109.057 87.1138C108.978 86.9959 109.009 86.8371 109.127 86.7584C110.44 85.8788 111.931 85.302 113.491 85.0652C113.851 85.0105 114.215 84.9739 114.581 84.9555C120.519 84.6613 125.588 89.2632 125.882 95.2096C126.024 98.091 125.037 100.856 123.104 102.994C121.421 104.855 119.196 106.048 116.75 106.42C116.386 106.475 116.018 106.512 115.646 106.53C112.769 106.673 110.01 105.685 107.876 103.748C106.017 102.062 104.826 99.8317 104.456 97.3807L104.455 97.381Z" fill="#D5D9EB"/>
<path d="M71.7171 80.1294C71.6841 80.2064 71.7034 80.2958 71.7655 80.3523L73.5322 81.9602C73.3378 83.0598 73.3168 84.1983 73.4882 85.3347L71.6823 86.8961C71.619 86.9508 71.5974 87.04 71.6283 87.1178L72.6903 89.7817C72.7213 89.8594 72.7983 89.9092 72.8818 89.9051L75.2645 89.7907C75.9219 90.7327 76.7197 91.5436 77.6168 92.2066L77.4416 94.5915C77.4355 94.6752 77.4831 94.7535 77.5598 94.7866L80.1909 95.9178C80.268 95.9508 80.3573 95.9315 80.4133 95.8692L82.0183 94.0993C83.1159 94.2941 84.2524 94.3152 85.3868 94.1435L86.9453 95.9526C86.9999 96.016 87.0889 96.0377 87.1666 96.0067L89.8257 94.9428C89.9033 94.9118 89.953 94.8346 89.9489 94.7509L89.8347 92.364C90.775 91.7057 91.5845 90.9061 92.246 90.0074L94.6266 90.1826C94.7101 90.1887 94.788 90.1411 94.821 90.0642L95.9501 87.4283C95.9831 87.3514 95.9636 87.2619 95.9017 87.2055L94.135 85.5976C94.3294 84.498 94.3504 83.3595 94.1791 82.2231L95.9849 80.6617C96.0482 80.607 96.0698 80.5181 96.0389 80.44L94.9769 77.7761C94.9459 77.6983 94.8689 77.6489 94.7854 77.6527L92.4027 77.7671C91.7456 76.8251 90.9475 76.0141 90.0505 75.3511L90.2253 72.9662C90.2315 72.8826 90.1839 72.8042 90.1071 72.7712L87.476 71.64C87.3993 71.6069 87.3099 71.6262 87.2536 71.6885L85.6486 73.4584C84.551 73.2637 83.4146 73.2426 82.2802 73.4143L80.7216 71.6052C80.667 71.5417 80.578 71.5201 80.5003 71.5511L77.8415 72.615C77.7639 72.646 77.7143 72.7232 77.7183 72.8069L77.8325 75.1938C76.8922 75.8521 76.0827 76.6517 75.4212 77.5503L73.0406 77.3752C72.9572 77.369 72.8792 77.4167 72.8459 77.4936L71.7171 80.1294Z" fill="#D5D9EB"/>
<path d="M81.2334 85.1312C80.9444 84.5761 80.8407 83.9456 80.9409 83.3166C81.0641 82.5424 81.4809 81.8628 82.1147 81.4025C83.4222 80.4529 85.2575 80.7459 86.2059 82.0561C87.1529 83.3698 86.861 85.2055 85.5532 86.155C84.9197 86.6154 84.145 86.8008 83.3726 86.6771C82.5995 86.5536 81.9211 86.136 81.4619 85.5011C81.3761 85.3824 81.2999 85.2587 81.2334 85.1312ZM85.7453 82.7811C85.6971 82.6884 85.6416 82.5986 85.5789 82.5114C84.8812 81.5478 83.5314 81.3323 82.5692 82.031C82.1033 82.3693 81.7965 82.8694 81.706 83.4388C81.6152 84.0085 81.7518 84.5788 82.0893 85.0461C82.427 85.5128 82.9262 85.8202 83.4946 85.9111C84.0632 86.0021 84.6328 85.8655 85.099 85.5269C85.9741 84.8914 86.2313 83.7143 85.7453 82.7814V82.7811Z" fill="#EAECF5"/>
<path d="M77.4256 87.1843C77.3123 86.9668 77.209 86.7416 77.1161 86.5088C76.9319 86.0467 76.7942 85.5654 76.7069 85.077C76.7031 85.055 76.6993 85.0331 76.6955 85.0112C76.6666 84.8413 76.753 84.6784 76.8978 84.6023C76.9331 84.5839 76.9716 84.5707 77.0128 84.5637C77.2236 84.528 77.4227 84.6708 77.4592 84.8816C77.5362 85.3384 77.6629 85.7888 77.8351 86.2207C77.8445 86.2447 77.8544 86.2684 77.864 86.2918C78.2812 87.3098 78.936 88.1854 79.7662 88.8618C80.2169 89.2291 80.7196 89.5377 81.2652 89.7781C81.2696 89.7801 81.274 89.7819 81.2783 89.7839C81.292 89.7898 81.3055 89.7959 81.3192 89.8015C82.9201 90.4896 84.6923 90.5124 86.3101 89.8652C86.5194 89.7816 86.7229 89.688 86.92 89.5847C88.2464 88.8911 89.2857 87.771 89.8841 86.3746C90.571 84.7708 90.5935 82.9953 89.9474 81.3749C89.3011 79.7556 88.064 78.4829 86.4634 77.7942C84.8628 77.106 83.0903 77.0832 81.4725 77.7304C81.2667 77.8126 81.0655 77.9053 80.8705 78.0074C80.0242 78.4498 79.2842 79.0727 78.7056 79.8343C78.67 79.8811 78.626 79.9176 78.5769 79.9431C78.4482 80.0103 78.2865 80.0021 78.163 79.908C77.9931 79.7778 77.9598 79.5348 78.0897 79.364C78.7372 78.5121 79.5653 77.8149 80.5117 77.3198C80.7304 77.2055 80.9549 77.1019 81.1852 77.0098C82.9954 76.2857 84.9781 76.3112 86.7693 77.0812C88.56 77.8512 89.9451 79.2722 90.667 81.0868C91.3898 82.9 91.3647 84.8863 90.5958 86.6805C89.9267 88.2424 88.764 89.4956 87.2799 90.2717C87.0595 90.3869 86.8318 90.4919 86.5977 90.5855C83.0935 91.9872 79.1348 90.4656 77.4253 87.1841L77.4256 87.1843Z" fill="#EAECF5"/>
<path d="M67.0408 102.988C67.0226 103.03 67.0332 103.08 67.0677 103.111L68.0476 104.003C67.9397 104.613 67.9281 105.244 68.0231 105.875L67.0216 106.741C66.9864 106.771 66.9745 106.82 66.9916 106.864L67.5806 108.341C67.5978 108.384 67.6405 108.412 67.6868 108.41L69.0083 108.346C69.3729 108.869 69.8154 109.318 70.313 109.686L70.2158 111.009C70.2124 111.055 70.2388 111.099 70.2814 111.117L71.7406 111.744C71.7834 111.763 71.8329 111.752 71.864 111.717L72.7542 110.736C73.3629 110.844 73.9932 110.855 74.6224 110.76L75.4868 111.764C75.5171 111.799 75.5665 111.811 75.6095 111.794L77.0843 111.204C77.1274 111.186 77.1549 111.144 77.1527 111.097L77.0894 109.773C77.6109 109.408 78.0598 108.965 78.4267 108.466L79.747 108.563C79.7933 108.567 79.8366 108.54 79.8549 108.498L80.4811 107.036C80.4994 106.993 80.4886 106.944 80.4542 106.912L79.4744 106.02C79.5822 105.411 79.5939 104.779 79.4988 104.149L80.5004 103.283C80.5355 103.253 80.5475 103.203 80.5303 103.16L79.9413 101.682C79.9242 101.639 79.8814 101.612 79.8351 101.614L78.5136 101.677C78.1492 101.155 77.7065 100.705 77.209 100.338L77.306 99.0148C77.3094 98.9684 77.283 98.9249 77.2404 98.9066L75.7812 98.2792C75.7386 98.2609 75.689 98.2716 75.6578 98.3062L74.7676 99.2878C74.1589 99.1798 73.5286 99.1681 72.8994 99.2633L72.035 98.2599C72.0047 98.2247 71.9553 98.2127 71.9123 98.2299L70.4376 98.82C70.3946 98.8372 70.367 98.88 70.3693 98.9264L70.4326 100.25C69.9111 100.615 69.4621 101.059 69.0953 101.557L67.7749 101.46C67.7286 101.457 67.6854 101.483 67.6669 101.526L67.0408 102.988Z" fill="#F8F9FC"/>
<path d="M72.3188 105.762C72.1586 105.454 72.1011 105.104 72.1566 104.755C72.2249 104.326 72.4561 103.949 72.8076 103.694C73.5328 103.167 74.5507 103.33 75.0767 104.056C75.602 104.785 75.4401 105.803 74.7147 106.33C74.3634 106.585 73.9337 106.688 73.5053 106.619C73.0766 106.551 72.7003 106.319 72.4456 105.967C72.398 105.901 72.3558 105.832 72.3188 105.762ZM74.8213 104.458C74.7945 104.407 74.7638 104.357 74.729 104.309C74.342 103.774 73.5934 103.655 73.0597 104.042C72.8013 104.23 72.6312 104.507 72.581 104.823C72.5306 105.139 72.6064 105.455 72.7935 105.715C72.9809 105.973 73.2577 106.144 73.573 106.194C73.8884 106.245 74.2042 106.169 74.4628 105.981C74.9482 105.629 75.0908 104.976 74.8213 104.459V104.458Z" fill="#EAECF5"/>
<path d="M70.207 106.901C70.1441 106.78 70.0868 106.655 70.0353 106.526C69.9332 106.27 69.8568 106.003 69.8083 105.732C69.8062 105.72 69.8041 105.708 69.802 105.695C69.786 105.601 69.8339 105.511 69.9142 105.469C69.9338 105.458 69.9552 105.451 69.978 105.447C70.0949 105.427 70.2053 105.507 70.2256 105.623C70.2683 105.877 70.3386 106.127 70.4341 106.366C70.4393 106.38 70.4448 106.393 70.4501 106.406C70.6815 106.97 71.0447 107.456 71.5051 107.831C71.7551 108.035 72.0339 108.206 72.3365 108.339C72.3389 108.34 72.3414 108.341 72.3438 108.342C72.3514 108.346 72.3588 108.349 72.3665 108.352C73.2543 108.734 74.2373 108.746 75.1346 108.388C75.2506 108.341 75.3635 108.289 75.4728 108.232C76.2085 107.847 76.7849 107.226 77.1168 106.452C77.4977 105.562 77.5102 104.577 77.1519 103.679C76.7934 102.78 76.1073 102.075 75.2196 101.693C74.3318 101.311 73.3487 101.298 72.4515 101.657C72.3373 101.703 72.2258 101.754 72.1176 101.811C71.6482 102.056 71.2378 102.402 70.9169 102.824C70.8972 102.85 70.8727 102.87 70.8455 102.884C70.7741 102.922 70.6844 102.917 70.6159 102.865C70.5217 102.793 70.5032 102.658 70.5753 102.563C70.9344 102.091 71.3937 101.704 71.9186 101.43C72.0399 101.366 72.1644 101.309 72.2921 101.258C73.2961 100.856 74.3958 100.87 75.3892 101.297C76.3824 101.724 77.1506 102.512 77.551 103.519C77.9519 104.524 77.9379 105.626 77.5115 106.621C77.1404 107.487 76.4955 108.183 75.6724 108.613C75.5502 108.677 75.4239 108.735 75.294 108.787C73.3505 109.564 71.1549 108.721 70.2068 106.9L70.207 106.901Z" fill="#EAECF5"/>
</g>
<path d="M101.812 133.744C137.393 133.744 166.238 132.069 166.238 130.003C166.238 127.937 137.393 126.262 101.812 126.262C66.2307 126.262 37.3864 127.937 37.3864 130.003C37.3864 132.069 66.2307 133.744 101.812 133.744Z" fill="#D5D9EB"/>
<path d="M31.5426 33.2734L31.9866 32.2749L32.5922 33.1925C33.0766 33.9346 33.7495 34.5148 34.5569 34.8657L35.5527 35.3109L34.6376 35.9181C33.8975 36.4039 33.3188 37.0786 32.969 37.8882L32.5249 38.8867L31.9193 37.9692C31.4349 37.227 30.7621 36.6468 29.9547 36.296L28.9589 35.8507L29.8739 35.2435C30.614 34.7577 31.1927 34.083 31.5426 33.2734Z" fill="#D5D9EB"/>
<path d="M1.50716 25.7707L1.76283 25.1904L2.11271 25.7302C2.3953 26.162 2.78555 26.4993 3.25653 26.7017L3.83517 26.9581L3.2969 27.3089C2.86629 27.5923 2.52987 27.9836 2.32802 28.4559L2.07234 29.0361L1.72246 28.4963C1.43987 28.0645 1.04963 27.7272 0.57864 27.5248L0 27.2684L0.53827 26.9176C0.968886 26.6342 1.3053 26.2429 1.50716 25.7707Z" fill="#D5D9EB"/>
<path d="M195.99 77.751L196.434 76.7524L197.04 77.67C197.524 78.4121 198.197 78.9924 199.004 79.3432L200 79.7885L199.085 80.3957C198.345 80.8815 197.766 81.5561 197.416 82.3657L196.972 83.3643L196.367 82.4467C195.882 81.7046 195.209 81.1243 194.402 80.7735L193.406 80.3282L194.321 79.721C195.061 79.2352 195.64 78.5606 195.99 77.751Z" fill="#D5D9EB"/>
<path d="M178.816 49.2814L179.57 47.5947L180.579 49.133C181.386 50.3744 182.53 51.3459 183.876 51.9531L185.558 52.7088L184.024 53.7208C182.786 54.5304 181.817 55.6773 181.212 57.0267L180.458 58.7134L179.449 57.1751C178.641 55.9337 177.497 54.9622 176.152 54.355L174.47 53.5993L176.004 52.5873C177.242 51.7777 178.211 50.6308 178.816 49.2814Z" fill="#D5D9EB"/>
<path d="M22.2036 2.5485L22.9572 0.861816L23.9664 2.40008C24.7738 3.64148 25.9176 4.61301 27.2633 5.22022L28.9454 5.97585L27.4113 6.98787C26.1733 7.79748 25.2044 8.94442 24.5989 10.2938L23.8453 11.9805L22.8361 10.4422C22.0286 9.2008 20.8848 8.22927 19.5391 7.62206L17.8571 6.86643L19.3911 5.85441C20.6291 5.0448 21.598 3.89785 22.2036 2.5485Z" fill="#D5D9EB"/>
<path d="M142.341 102.278L142.705 101.338L143.202 102.212C143.604 102.912 144.159 103.458 144.828 103.786L145.651 104.202L144.886 104.77C144.274 105.229 143.795 105.863 143.508 106.629L143.145 107.569L142.648 106.694C142.246 105.995 141.691 105.448 141.021 105.12L140.199 104.705L140.964 104.136C141.576 103.677 142.055 103.043 142.341 102.278Z" fill="#D5D9EB"/>
<defs>
<clipPath id="clip0_4119_6187">
<rect width="69.3205" height="54.5218" fill="white" transform="translate(66.9839 67.0669)"/>
</clipPath>
</defs>
</svg>
