<svg width="350" height="300" viewBox="0 0 350 345" fill="none" xmlns="http://www.w3.org/2000/svg">
<rect width="350" height="345" rx="8" fill="#F2F4F7"/>
<path d="M144.71 50.4194L124.917 50.4194C123.491 50.4194 122.207 51.2917 121.683 52.6167L119.919 57.0781L149.704 57.0781L147.941 52.6167C147.421 51.2917 146.136 50.4194 144.71 50.4194Z" fill="#9AA2D5"/>
<path d="M200.906 50.4194L181.113 50.4194C179.687 50.4194 178.402 51.2917 177.879 52.6167L176.115 57.0781L205.9 57.0781L204.136 52.6167C203.616 51.2917 202.335 50.4194 200.906 50.4194Z" fill="#D5D9EB"/>
<path d="M114.315 81.8867L113.944 81.8867L113.944 89.0762L114.315 89.0762L114.315 81.8867Z" fill="#B3B8DB"/>
<path d="M114.316 91.8047L113.944 91.8047L113.944 94.4437L114.316 94.4437L114.316 91.8047Z" fill="#B3B8DB"/>
<path d="M236.257 56.5845L178.156 56.5845L176.589 52.6167C176.066 51.2917 174.785 50.4194 173.355 50.4194L153.562 50.4194C152.136 50.4194 150.852 51.2917 150.328 52.6167L148.761 56.5845L119.856 56.5845C117.624 56.5845 115.793 58.4106 115.793 60.6451L115.793 138.115C115.793 140.345 117.62 142.175 119.856 142.175L236.257 142.175C238.489 142.175 240.319 140.349 240.319 138.115L240.319 60.6451C240.319 58.4143 238.492 56.5845 236.257 56.5845Z" fill="#B3B8DB"/>
<path d="M237.167 138.193L237.167 68.2873C237.167 67.5227 236.547 66.9028 235.782 66.9028L119.228 66.9028C118.463 66.9028 117.843 67.5227 117.843 68.2873L117.843 138.193C117.843 138.957 118.463 139.577 119.228 139.577L235.782 139.577C236.547 139.577 237.167 138.957 237.167 138.193Z" fill="white"/>
<rect opacity="0.5" x="157.562" y="69.8916" width="35.8286" height="32.7131" rx="2.23042" fill="#EAECF5"/>
<rect opacity="0.5" x="124.848" y="105.72" width="59.1951" height="29.5975" rx="2.23042" fill="#EAECF5"/>
<rect opacity="0.5" x="187.159" y="105.72" width="38.9441" height="29.5975" rx="2.23042" fill="#EAECF5"/>
<rect x="124.848" y="69.8916" width="29.5975" height="15.5777" rx="2.23042" fill="#B3B8DB"/>
<rect opacity="0.5" x="124.848" y="88.5845" width="29.5975" height="14.0199" rx="2.23042" fill="#EAECF5"/>
<rect x="196.506" y="69.8916" width="29.5975" height="32.7131" rx="2.23042" fill="#D5D9EB"/>
<g clip-path="url(#clip0_3036_396)">
<g opacity="0.3">
<path d="M162.846 133.017C162.827 132.891 162.845 132.759 162.906 132.636C163.06 132.326 163.224 132.013 163.393 131.706C163.563 131.396 163.952 131.284 164.261 131.454C164.571 131.625 164.684 132.014 164.513 132.324C164.353 132.616 164.197 132.913 164.051 133.208C163.893 133.524 163.509 133.653 163.194 133.495C163 133.399 162.877 133.217 162.846 133.017L162.846 133.017Z" fill="#D5D9EB"/>
</g>
<path d="M174.38 132.425C174.295 132.52 174.278 132.659 174.34 132.77L176.092 135.963C175.269 137.451 174.677 139.081 174.363 140.804L170.99 142.159C170.872 142.207 170.797 142.324 170.803 142.452L171.018 146.816C171.025 146.944 171.111 147.053 171.234 147.089L174.724 148.104C175.206 149.787 175.956 151.351 176.921 152.751L175.492 156.101C175.442 156.218 175.472 156.354 175.566 156.44L178.799 159.374C178.894 159.459 179.032 159.476 179.144 159.414L182.33 157.659C183.816 158.483 185.443 159.076 187.163 159.391L188.516 162.77C188.563 162.889 188.68 162.964 188.808 162.958L193.165 162.742C193.292 162.735 193.401 162.649 193.437 162.526L194.45 159.03C196.13 158.547 197.691 157.796 199.088 156.828L202.432 158.26C202.549 158.31 202.685 158.28 202.771 158.186L205.699 154.947C205.785 154.852 205.801 154.714 205.74 154.602L203.987 151.409C204.81 149.921 205.402 148.291 205.716 146.568L209.089 145.213C209.208 145.165 209.283 145.048 209.276 144.92L209.061 140.556C209.055 140.428 208.968 140.318 208.846 140.283L205.356 139.268C204.873 137.585 204.124 136.021 203.158 134.621L204.587 131.271C204.638 131.153 204.608 131.017 204.513 130.931L201.28 127.998C201.186 127.912 201.047 127.896 200.936 127.958L197.749 129.713C196.264 128.888 194.636 128.295 192.917 127.981L191.564 124.601C191.516 124.483 191.399 124.408 191.271 124.414L186.915 124.63C186.788 124.636 186.678 124.722 186.642 124.845L185.629 128.342C183.949 128.825 182.388 129.576 180.991 130.543L177.647 129.112C177.53 129.061 177.394 129.091 177.308 129.186L174.38 132.425L174.38 132.425Z" fill="#B3B8DB"/>
<path d="M185.704 144.342C185.383 142.225 186.654 140.131 188.758 139.486C191.07 138.778 193.526 140.087 194.233 142.403C194.575 143.525 194.461 144.713 193.911 145.749C193.361 146.785 192.441 147.545 191.321 147.888C189.009 148.596 186.553 147.287 185.846 144.971C185.783 144.762 185.735 144.552 185.704 144.342ZM193.365 143.189C193.34 143.026 193.304 142.863 193.254 142.702C192.713 140.926 190.829 139.923 189.057 140.466C187.284 141.009 186.282 142.895 186.824 144.671C187.366 146.447 189.25 147.45 191.022 146.907C191.881 146.644 192.586 146.062 193.008 145.268C193.351 144.622 193.473 143.899 193.365 143.189V143.189Z" fill="#D5D9EB"/>
<path d="M179.455 145.381C179.401 145.017 179.363 144.649 179.345 144.276C179.339 144.159 179.335 144.042 179.333 143.925C179.324 143.346 179.359 142.768 179.441 142.198C179.442 142.19 179.443 142.183 179.444 142.175C179.447 142.153 179.45 142.131 179.454 142.109C179.46 142.066 179.467 142.023 179.474 141.98C179.493 141.868 179.581 141.785 179.688 141.769C179.714 141.765 179.741 141.765 179.768 141.769C179.907 141.792 180.001 141.924 179.979 142.064C179.861 142.782 179.82 143.518 179.856 144.251C180.035 147.892 182.094 151.002 185.043 152.686C186.683 153.623 188.599 154.118 190.62 154.018C190.975 154.001 191.326 153.966 191.672 153.913C194.002 153.559 196.122 152.423 197.725 150.649C199.567 148.613 200.506 145.979 200.371 143.234C200.09 137.566 195.262 133.187 189.606 133.467C189.257 133.484 188.911 133.519 188.568 133.571C187.082 133.797 185.662 134.346 184.411 135.184C184.379 135.206 184.343 135.219 184.307 135.224C184.213 135.239 184.113 135.199 184.057 135.114C183.978 134.996 184.009 134.837 184.127 134.758C185.44 133.879 186.931 133.302 188.491 133.065C188.851 133.01 189.215 132.974 189.581 132.955C195.519 132.661 200.588 137.263 200.882 143.209C201.024 146.091 200.037 148.855 198.104 150.993C196.421 152.855 194.196 154.048 191.75 154.419C191.386 154.475 191.018 154.512 190.646 154.53C187.769 154.673 185.01 153.684 182.876 151.748C181.017 150.061 179.826 147.831 179.456 145.38L179.455 145.381Z" fill="#D5D9EB"/>
<path d="M146.717 128.129C146.684 128.206 146.703 128.296 146.766 128.352L148.532 129.96C148.338 131.06 148.317 132.198 148.488 133.335L146.682 134.896C146.619 134.951 146.597 135.04 146.628 135.118L147.69 137.782C147.721 137.859 147.798 137.909 147.882 137.905L150.265 137.791C150.922 138.733 151.72 139.544 152.617 140.207L152.442 142.592C152.436 142.675 152.483 142.754 152.56 142.787L155.191 143.918C155.268 143.951 155.357 143.932 155.413 143.869L157.018 142.099C158.116 142.294 159.252 142.315 160.387 142.144L161.945 143.953C162 144.016 162.089 144.038 162.167 144.007L164.826 142.943C164.903 142.912 164.953 142.835 164.949 142.751L164.835 140.364C165.775 139.706 166.585 138.906 167.246 138.007L169.627 138.183C169.71 138.189 169.788 138.141 169.821 138.064L170.95 135.428C170.983 135.351 170.964 135.262 170.902 135.205L169.135 133.598C169.329 132.498 169.35 131.36 169.179 130.223L170.985 128.662C171.048 128.607 171.07 128.518 171.039 128.44L169.977 125.776C169.946 125.698 169.869 125.649 169.785 125.653L167.403 125.767C166.746 124.825 165.948 124.014 165.05 123.351L165.225 120.966C165.231 120.883 165.184 120.804 165.107 120.771L162.476 119.64C162.399 119.607 162.31 119.626 162.254 119.689L160.649 121.458C159.551 121.264 158.415 121.243 157.28 121.414L155.722 119.605C155.667 119.542 155.578 119.52 155.5 119.551L152.842 120.615C152.764 120.646 152.714 120.723 152.718 120.807L152.833 123.194C151.892 123.852 151.083 124.652 150.421 125.55L148.041 125.375C147.957 125.369 147.879 125.417 147.846 125.494L146.717 128.129Z" fill="#D5D9EB"/>
<path d="M156.233 133.131C155.944 132.576 155.841 131.945 155.941 131.316C156.064 130.542 156.481 129.863 157.115 129.402C158.422 128.453 160.257 128.746 161.206 130.056C162.153 131.37 161.861 133.205 160.553 134.155C159.92 134.615 159.145 134.801 158.373 134.677C157.6 134.553 156.921 134.136 156.462 133.501C156.376 133.382 156.3 133.258 156.233 133.131ZM160.745 130.781C160.697 130.688 160.642 130.598 160.579 130.511C159.881 129.548 158.531 129.332 157.569 130.031C157.103 130.369 156.796 130.869 156.706 131.439C156.615 132.008 156.752 132.579 157.089 133.046C157.427 133.513 157.926 133.82 158.495 133.911C159.063 134.002 159.633 133.865 160.099 133.527C160.974 132.891 161.231 131.714 160.745 130.781V130.781Z" fill="#EAECF5"/>
<path d="M152.426 135.185C152.312 134.967 152.209 134.742 152.116 134.509C151.932 134.047 151.794 133.566 151.707 133.077C151.703 133.055 151.699 133.033 151.695 133.011C151.667 132.842 151.753 132.679 151.898 132.603C151.933 132.584 151.972 132.571 152.013 132.564C152.224 132.528 152.423 132.671 152.459 132.882C152.536 133.339 152.663 133.789 152.835 134.221C152.844 134.245 152.854 134.269 152.864 134.292C153.281 135.31 153.936 136.186 154.766 136.862C155.217 137.229 155.72 137.538 156.265 137.778C156.27 137.78 156.274 137.782 156.278 137.784C156.292 137.79 156.305 137.796 156.319 137.802C157.92 138.49 159.692 138.513 161.31 137.865C161.519 137.782 161.723 137.688 161.92 137.585C163.246 136.891 164.286 135.771 164.884 134.375C165.571 132.771 165.593 130.996 164.947 129.375C164.301 127.756 163.064 126.483 161.463 125.794C159.863 125.106 158.09 125.083 156.472 125.731C156.267 125.813 156.066 125.906 155.871 126.008C155.024 126.45 154.284 127.073 153.706 127.835C153.67 127.881 153.626 127.918 153.577 127.943C153.448 128.011 153.286 128.002 153.163 127.908C152.993 127.778 152.96 127.535 153.09 127.364C153.737 126.512 154.565 125.815 155.512 125.32C155.73 125.206 155.955 125.102 156.185 125.01C157.995 124.286 159.978 124.311 161.769 125.081C163.56 125.851 164.945 127.272 165.667 129.087C166.39 130.9 166.365 132.887 165.596 134.681C164.927 136.243 163.764 137.496 162.28 138.272C162.059 138.387 161.832 138.492 161.598 138.586C158.093 139.987 154.135 138.466 152.425 135.184L152.426 135.185Z" fill="#EAECF5"/>
<path d="M142.041 150.988C142.023 151.03 142.033 151.08 142.068 151.111L143.048 152.003C142.94 152.613 142.928 153.244 143.023 153.875L142.022 154.741C141.986 154.771 141.974 154.82 141.992 154.864L142.581 156.341C142.598 156.384 142.641 156.412 142.687 156.41L144.008 156.346C144.373 156.869 144.815 157.318 145.313 157.686L145.216 159.009C145.212 159.055 145.239 159.099 145.281 159.117L146.741 159.744C146.783 159.763 146.833 159.752 146.864 159.717L147.754 158.736C148.363 158.844 148.993 158.855 149.622 158.76L150.487 159.764C150.517 159.799 150.566 159.811 150.61 159.794L152.084 159.204C152.127 159.186 152.155 159.144 152.153 159.097L152.089 157.773C152.611 157.408 153.06 156.965 153.427 156.466L154.747 156.563C154.793 156.567 154.837 156.54 154.855 156.498L155.481 155.036C155.499 154.993 155.489 154.944 155.454 154.912L154.474 154.02C154.582 153.411 154.594 152.779 154.499 152.149L155.5 151.283C155.536 151.253 155.548 151.203 155.53 151.16L154.941 149.682C154.924 149.639 154.881 149.612 154.835 149.614L153.514 149.677C153.149 149.155 152.707 148.705 152.209 148.338L152.306 147.015C152.309 146.968 152.283 146.925 152.24 146.907L150.781 146.279C150.739 146.261 150.689 146.272 150.658 146.306L149.768 147.288C149.159 147.18 148.529 147.168 147.899 147.263L147.035 146.26C147.005 146.225 146.955 146.213 146.912 146.23L145.438 146.82C145.395 146.837 145.367 146.88 145.369 146.926L145.433 148.25C144.911 148.615 144.462 149.059 144.095 149.557L142.775 149.46C142.729 149.457 142.685 149.483 142.667 149.526L142.041 150.988Z" fill="#F8F9FC"/>
<path d="M147.319 153.762C147.159 153.454 147.101 153.104 147.157 152.755C147.225 152.326 147.456 151.949 147.808 151.693C148.533 151.167 149.551 151.329 150.077 152.056C150.602 152.785 150.44 153.803 149.715 154.329C149.363 154.585 148.934 154.688 148.505 154.619C148.077 154.55 147.7 154.319 147.446 153.967C147.398 153.901 147.356 153.832 147.319 153.762ZM149.821 152.458C149.795 152.407 149.764 152.357 149.729 152.309C149.342 151.774 148.593 151.655 148.06 152.042C147.801 152.23 147.631 152.507 147.581 152.823C147.531 153.139 147.606 153.455 147.794 153.714C147.981 153.973 148.258 154.144 148.573 154.194C148.888 154.245 149.204 154.169 149.463 153.981C149.948 153.629 150.091 152.976 149.821 152.458V152.458Z" fill="#EAECF5"/>
<path d="M145.207 154.901C145.144 154.78 145.087 154.655 145.035 154.526C144.933 154.27 144.857 154.003 144.808 153.732C144.806 153.72 144.804 153.708 144.802 153.695C144.786 153.601 144.834 153.511 144.914 153.469C144.934 153.458 144.955 153.451 144.978 153.447C145.095 153.427 145.205 153.507 145.226 153.623C145.268 153.877 145.339 154.127 145.434 154.366C145.439 154.38 145.445 154.393 145.45 154.406C145.681 154.97 146.045 155.456 146.505 155.831C146.755 156.035 147.034 156.206 147.336 156.339C147.339 156.34 147.341 156.341 147.344 156.342C147.351 156.346 147.359 156.349 147.366 156.352C148.254 156.734 149.237 156.746 150.135 156.388C150.251 156.341 150.363 156.289 150.473 156.232C151.208 155.847 151.785 155.226 152.117 154.452C152.498 153.562 152.51 152.577 152.152 151.679C151.793 150.78 151.107 150.075 150.22 149.693C149.332 149.311 148.349 149.298 147.451 149.657C147.337 149.703 147.226 149.754 147.118 149.811C146.648 150.056 146.238 150.402 145.917 150.824C145.897 150.85 145.873 150.87 145.845 150.884C145.774 150.922 145.684 150.917 145.616 150.865C145.522 150.793 145.503 150.658 145.575 150.563C145.934 150.091 146.394 149.704 146.919 149.43C147.04 149.366 147.164 149.309 147.292 149.258C148.296 148.856 149.396 148.87 150.389 149.297C151.382 149.724 152.151 150.512 152.551 151.519C152.952 152.524 152.938 153.626 152.511 154.621C152.14 155.487 151.496 156.183 150.672 156.613C150.55 156.677 150.424 156.735 150.294 156.787C148.35 157.564 146.155 156.721 145.207 154.9L145.207 154.901Z" fill="#EAECF5"/>
</g>
<path d="M176.812 181.743C212.393 181.743 241.238 180.069 241.238 178.003C241.238 175.937 212.393 174.262 176.812 174.262C141.231 174.262 112.386 175.937 112.386 178.003C112.386 180.069 141.231 181.743 176.812 181.743Z" fill="#D5D9EB"/>
<path d="M106.543 81.2734L106.987 80.2749L107.592 81.1925C108.077 81.9346 108.749 82.5148 109.557 82.8657L110.553 83.3109L109.638 83.9181C108.897 84.4039 108.319 85.0786 107.969 85.8882L107.525 86.8867L106.919 85.9692C106.435 85.227 105.762 84.6468 104.955 84.296L103.959 83.8507L104.874 83.2435C105.614 82.7577 106.193 82.083 106.543 81.2734Z" fill="#D5D9EB"/>
<path d="M76.5072 73.7707L76.7629 73.1904L77.1127 73.7302C77.3953 74.162 77.7856 74.4993 78.2566 74.7017L78.8352 74.9581L78.2969 75.3089C77.8663 75.5923 77.5299 75.9836 77.328 76.4559L77.0724 77.0361L76.7225 76.4963C76.4399 76.0645 76.0497 75.7272 75.5787 75.5248L75 75.2684L75.5383 74.9176C75.9689 74.6342 76.3053 74.2429 76.5072 73.7707Z" fill="#D5D9EB"/>
<path d="M270.99 125.751L271.434 124.752L272.04 125.67C272.524 126.412 273.197 126.992 274.004 127.343L275 127.788L274.085 128.396C273.345 128.881 272.766 129.556 272.416 130.366L271.972 131.364L271.367 130.447C270.882 129.705 270.209 129.124 269.402 128.774L268.406 128.328L269.321 127.721C270.061 127.235 270.64 126.561 270.99 125.751Z" fill="#D5D9EB"/>
<path d="M253.816 97.2814L254.57 95.5947L255.579 97.133C256.386 98.3744 257.53 99.3459 258.876 99.9531L260.558 100.709L259.024 101.721C257.786 102.53 256.817 103.677 256.212 105.027L255.458 106.713L254.449 105.175C253.641 103.934 252.497 102.962 251.152 102.355L249.47 101.599L251.004 100.587C252.242 99.7777 253.211 98.6308 253.816 97.2814Z" fill="#D5D9EB"/>
<path d="M97.2036 50.5485L97.9572 48.8618L98.9664 50.4001C99.7739 51.6415 100.918 52.613 102.263 53.2202L103.945 53.9759L102.411 54.9879C101.173 55.7975 100.204 56.9444 99.5989 58.2938L98.8453 59.9805L97.8361 58.4422C97.0287 57.2008 95.8849 56.2293 94.5392 55.6221L92.8571 54.8664L94.3912 53.8544C95.6292 53.0448 96.5981 51.8979 97.2036 50.5485Z" fill="#D5D9EB"/>
<path d="M217.341 150.278L217.705 149.338L218.202 150.212C218.604 150.912 219.159 151.459 219.828 151.787L220.651 152.202L219.886 152.77C219.274 153.23 218.795 153.864 218.508 154.629L218.145 155.569L217.648 154.694C217.246 153.995 216.691 153.448 216.021 153.12L215.199 152.705L215.964 152.136C216.576 151.677 217.055 151.043 217.341 150.278Z" fill="#D5D9EB"/>
<path d="M55.0589 241.744L51.3643 228.653H53.9147L56.2733 238.273H56.3948L58.9133 228.653H61.2336L63.7584 238.279H63.8735L66.2322 228.653H68.7826L65.088 241.744H62.7485L60.1278 232.558H60.0255L57.3983 241.744H55.0589ZM73.6693 241.935C72.6849 241.935 71.8348 241.731 71.1189 241.322C70.4072 240.908 69.8596 240.325 69.4761 239.57C69.0926 238.812 68.9008 237.919 68.9008 236.892C68.9008 235.882 69.0926 234.996 69.4761 234.233C69.8639 233.466 70.4051 232.869 71.0997 232.443C71.7943 232.013 72.6104 231.798 73.5479 231.798C74.153 231.798 74.724 231.896 75.2609 232.092C75.8021 232.283 76.2794 232.582 76.6927 232.987C77.1104 233.391 77.4385 233.907 77.6771 234.533C77.9157 235.156 78.0351 235.897 78.0351 236.758V237.467H69.9875V235.908H75.817C75.8128 235.465 75.7169 235.07 75.5294 234.725C75.3419 234.376 75.0798 234.101 74.7432 233.901C74.4108 233.7 74.023 233.6 73.5798 233.6C73.1068 233.6 72.6913 233.715 72.3334 233.945C71.9754 234.171 71.6963 234.47 71.496 234.84C71.3 235.207 71.1998 235.609 71.1956 236.048V237.41C71.1956 237.981 71.3 238.471 71.5088 238.88C71.7176 239.285 72.0095 239.596 72.3845 239.813C72.7595 240.026 73.1984 240.133 73.7013 240.133C74.0379 240.133 74.3426 240.086 74.6153 239.992C74.8881 239.894 75.1246 239.751 75.3248 239.564C75.5251 239.376 75.6764 239.144 75.7787 238.867L77.9392 239.11C77.8028 239.681 77.5429 240.18 77.1594 240.606C76.7801 241.028 76.2943 241.356 75.702 241.59C75.1096 241.82 74.4321 241.935 73.6693 241.935ZM87.2828 241.942C86.6606 241.942 86.1002 241.831 85.6017 241.609C85.1073 241.384 84.7153 241.051 84.4255 240.612C84.14 240.173 83.9972 239.632 83.9972 238.989C83.9972 238.435 84.0995 237.977 84.3041 237.614C84.5086 237.252 84.7877 236.962 85.1414 236.745C85.4951 236.528 85.8936 236.364 86.3367 236.253C86.7842 236.138 87.2465 236.055 87.7238 236.004C88.2991 235.944 88.7657 235.891 89.1237 235.844C89.4816 235.793 89.7416 235.716 89.9035 235.614C90.0697 235.507 90.1528 235.343 90.1528 235.121V235.083C90.1528 234.602 90.01 234.229 89.7245 233.965C89.439 233.7 89.0278 233.568 88.4909 233.568C87.9241 233.568 87.4745 233.692 87.1421 233.939C86.814 234.186 86.5924 234.478 86.4774 234.815L84.3169 234.508C84.4873 233.911 84.7686 233.413 85.1606 233.012C85.5526 232.607 86.032 232.305 86.5988 232.104C87.1656 231.9 87.792 231.798 88.4781 231.798C88.9511 231.798 89.422 231.853 89.8907 231.964C90.3595 232.075 90.7877 232.258 91.1755 232.514C91.5633 232.765 91.8744 233.108 92.1088 233.543C92.3474 233.977 92.4667 234.521 92.4667 235.173V241.744H90.2423V240.395H90.1656C90.0249 240.668 89.8268 240.923 89.5711 241.162C89.3197 241.396 89.0022 241.586 88.6187 241.731C88.2394 241.871 87.7941 241.942 87.2828 241.942ZM87.8836 240.242C88.3481 240.242 88.7508 240.15 89.0917 239.967C89.4326 239.779 89.6947 239.532 89.8779 239.225C90.0654 238.918 90.1592 238.584 90.1592 238.222V237.065C90.0867 237.124 89.9632 237.18 89.7884 237.231C89.618 237.282 89.4262 237.327 89.2132 237.365C89.0001 237.403 88.7892 237.438 88.5803 237.467C88.3715 237.497 88.1904 237.523 88.037 237.544C87.6919 237.591 87.3829 237.668 87.1102 237.774C86.8374 237.881 86.6222 238.03 86.4646 238.222C86.3069 238.409 86.2281 238.652 86.2281 238.95C86.2281 239.376 86.3836 239.698 86.6947 239.916C87.0058 240.133 87.4021 240.242 87.8836 240.242ZM94.7934 241.744V231.925H97.037V233.562H97.1393C97.3183 232.995 97.6251 232.558 98.0597 232.251C98.4987 231.94 98.9994 231.785 99.5619 231.785C99.6897 231.785 99.8325 231.791 99.9901 231.804C100.152 231.813 100.286 231.827 100.393 231.849V233.977C100.295 233.943 100.139 233.913 99.9262 233.888C99.7174 233.858 99.515 233.843 99.319 233.843C98.8971 233.843 98.5178 233.935 98.1812 234.118C97.8488 234.297 97.5867 234.546 97.395 234.866C97.2032 235.185 97.1073 235.554 97.1073 235.972V241.744H94.7934ZM105.872 241.935C104.888 241.935 104.038 241.731 103.322 241.322C102.61 240.908 102.063 240.325 101.679 239.57C101.296 238.812 101.104 237.919 101.104 236.892C101.104 235.882 101.296 234.996 101.679 234.233C102.067 233.466 102.608 232.869 103.303 232.443C103.997 232.013 104.813 231.798 105.751 231.798C106.356 231.798 106.927 231.896 107.464 232.092C108.005 232.283 108.483 232.582 108.896 232.987C109.313 233.391 109.642 233.907 109.88 234.533C110.119 235.156 110.238 235.897 110.238 236.758V237.467H102.191V235.908H108.02C108.016 235.465 107.92 235.07 107.733 234.725C107.545 234.376 107.283 234.101 106.946 233.901C106.614 233.7 106.226 233.6 105.783 233.6C105.31 233.6 104.894 233.715 104.536 233.945C104.179 234.171 103.899 234.47 103.699 234.84C103.503 235.207 103.403 235.609 103.399 236.048V237.41C103.399 237.981 103.503 238.471 103.712 238.88C103.921 239.285 104.213 239.596 104.588 239.813C104.963 240.026 105.402 240.133 105.904 240.133C106.241 240.133 106.546 240.086 106.818 239.992C107.091 239.894 107.328 239.751 107.528 239.564C107.728 239.376 107.88 239.144 107.982 238.867L110.142 239.11C110.006 239.681 109.746 240.18 109.362 240.606C108.983 241.028 108.497 241.356 107.905 241.59C107.313 241.82 106.635 241.935 105.872 241.935ZM116.661 245.425V231.925H118.936V233.549H119.07C119.19 233.31 119.358 233.057 119.575 232.788C119.793 232.516 120.087 232.283 120.457 232.092C120.828 231.896 121.301 231.798 121.877 231.798C122.635 231.798 123.319 231.992 123.928 232.379C124.542 232.763 125.028 233.332 125.386 234.086C125.748 234.836 125.929 235.756 125.929 236.847C125.929 237.925 125.752 238.842 125.399 239.596C125.045 240.35 124.563 240.925 123.954 241.322C123.345 241.718 122.654 241.916 121.883 241.916C121.32 241.916 120.854 241.822 120.483 241.635C120.112 241.447 119.814 241.222 119.588 240.957C119.367 240.689 119.194 240.435 119.07 240.197H118.975V245.425H116.661ZM118.93 236.835C118.93 237.47 119.019 238.026 119.198 238.503C119.381 238.98 119.644 239.353 119.984 239.621C120.33 239.886 120.747 240.018 121.237 240.018C121.749 240.018 122.177 239.881 122.522 239.609C122.867 239.332 123.127 238.955 123.302 238.477C123.481 237.996 123.57 237.448 123.57 236.835C123.57 236.225 123.483 235.684 123.308 235.211C123.134 234.738 122.874 234.367 122.528 234.099C122.183 233.83 121.753 233.696 121.237 233.696C120.743 233.696 120.323 233.826 119.978 234.086C119.633 234.346 119.371 234.71 119.192 235.179C119.017 235.648 118.93 236.2 118.93 236.835ZM127.911 241.744V231.925H130.154V233.562H130.256C130.435 232.995 130.742 232.558 131.177 232.251C131.616 231.94 132.117 231.785 132.679 231.785C132.807 231.785 132.95 231.791 133.107 231.804C133.269 231.813 133.403 231.827 133.51 231.849V233.977C133.412 233.943 133.256 233.913 133.043 233.888C132.835 233.858 132.632 233.843 132.436 233.843C132.014 233.843 131.635 233.935 131.298 234.118C130.966 234.297 130.704 234.546 130.512 234.866C130.32 235.185 130.225 235.554 130.225 235.972V241.744H127.911ZM138.926 241.935C137.967 241.935 137.136 241.724 136.433 241.303C135.73 240.881 135.184 240.291 134.796 239.532C134.413 238.773 134.221 237.887 134.221 236.873C134.221 235.859 134.413 234.97 134.796 234.207C135.184 233.445 135.73 232.852 136.433 232.43C137.136 232.009 137.967 231.798 138.926 231.798C139.884 231.798 140.715 232.009 141.419 232.43C142.122 232.852 142.665 233.445 143.049 234.207C143.436 234.97 143.63 235.859 143.63 236.873C143.63 237.887 143.436 238.773 143.049 239.532C142.665 240.291 142.122 240.881 141.419 241.303C140.715 241.724 139.884 241.935 138.926 241.935ZM138.938 240.082C139.458 240.082 139.893 239.939 140.242 239.653C140.592 239.364 140.852 238.976 141.022 238.49C141.197 238.004 141.284 237.463 141.284 236.867C141.284 236.266 141.197 235.722 141.022 235.237C140.852 234.746 140.592 234.357 140.242 234.067C139.893 233.777 139.458 233.632 138.938 233.632C138.406 233.632 137.963 233.777 137.609 234.067C137.259 234.357 136.997 234.746 136.823 235.237C136.652 235.722 136.567 236.266 136.567 236.867C136.567 237.463 136.652 238.004 136.823 238.49C136.997 238.976 137.259 239.364 137.609 239.653C137.963 239.939 138.406 240.082 138.938 240.082ZM149.877 241.935C148.897 241.935 148.055 241.72 147.352 241.29C146.653 240.859 146.114 240.265 145.735 239.506C145.36 238.744 145.172 237.866 145.172 236.873C145.172 235.876 145.364 234.996 145.748 234.233C146.131 233.466 146.672 232.869 147.371 232.443C148.074 232.013 148.905 231.798 149.864 231.798C150.661 231.798 151.366 231.945 151.98 232.239C152.598 232.528 153.09 232.94 153.456 233.472C153.823 234.001 154.032 234.619 154.083 235.326H151.871C151.782 234.853 151.569 234.459 151.232 234.144C150.9 233.824 150.454 233.664 149.896 233.664C149.423 233.664 149.008 233.792 148.65 234.048C148.292 234.299 148.013 234.661 147.812 235.134C147.616 235.607 147.518 236.174 147.518 236.835C147.518 237.504 147.616 238.079 147.812 238.56C148.008 239.038 148.283 239.406 148.637 239.666C148.995 239.922 149.415 240.05 149.896 240.05C150.237 240.05 150.542 239.986 150.81 239.858C151.083 239.726 151.311 239.536 151.494 239.289C151.677 239.042 151.803 238.742 151.871 238.388H154.083C154.027 239.082 153.823 239.698 153.469 240.235C153.116 240.768 152.634 241.185 152.025 241.488C151.415 241.786 150.699 241.935 149.877 241.935ZM160.329 241.935C159.345 241.935 158.495 241.731 157.779 241.322C157.067 240.908 156.52 240.325 156.136 239.57C155.753 238.812 155.561 237.919 155.561 236.892C155.561 235.882 155.753 234.996 156.136 234.233C156.524 233.466 157.065 232.869 157.76 232.443C158.454 232.013 159.271 231.798 160.208 231.798C160.813 231.798 161.384 231.896 161.921 232.092C162.462 232.283 162.94 232.582 163.353 232.987C163.771 233.391 164.099 233.907 164.337 234.533C164.576 235.156 164.695 235.897 164.695 236.758V237.467H156.648V235.908H162.477C162.473 235.465 162.377 235.07 162.19 234.725C162.002 234.376 161.74 234.101 161.403 233.901C161.071 233.7 160.683 233.6 160.24 233.6C159.767 233.6 159.351 233.715 158.994 233.945C158.636 234.171 158.356 234.47 158.156 234.84C157.96 235.207 157.86 235.609 157.856 236.048V237.41C157.856 237.981 157.96 238.471 158.169 238.88C158.378 239.285 158.67 239.596 159.045 239.813C159.42 240.026 159.859 240.133 160.361 240.133C160.698 240.133 161.003 240.086 161.275 239.992C161.548 239.894 161.785 239.751 161.985 239.564C162.185 239.376 162.337 239.144 162.439 238.867L164.599 239.11C164.463 239.681 164.203 240.18 163.82 240.606C163.44 241.028 162.954 241.356 162.362 241.59C161.77 241.82 161.092 241.935 160.329 241.935ZM174.413 234.521L172.303 234.751C172.244 234.538 172.139 234.337 171.99 234.15C171.845 233.962 171.649 233.811 171.402 233.696C171.155 233.581 170.852 233.523 170.494 233.523C170.013 233.523 169.608 233.628 169.28 233.837C168.956 234.045 168.796 234.316 168.801 234.648C168.796 234.934 168.901 235.166 169.114 235.345C169.331 235.524 169.689 235.671 170.188 235.786L171.862 236.144C172.791 236.345 173.482 236.662 173.933 237.097C174.389 237.531 174.619 238.1 174.624 238.803C174.619 239.421 174.438 239.967 174.08 240.44C173.727 240.908 173.234 241.275 172.604 241.539C171.973 241.803 171.249 241.935 170.43 241.935C169.229 241.935 168.261 241.684 167.528 241.181C166.796 240.674 166.359 239.969 166.218 239.065L168.475 238.848C168.577 239.291 168.794 239.626 169.127 239.852C169.459 240.077 169.891 240.19 170.424 240.19C170.974 240.19 171.415 240.077 171.747 239.852C172.084 239.626 172.252 239.347 172.252 239.014C172.252 238.733 172.144 238.501 171.926 238.318C171.713 238.134 171.381 237.994 170.929 237.896L169.254 237.544C168.313 237.348 167.616 237.018 167.164 236.553C166.712 236.085 166.489 235.492 166.493 234.776C166.489 234.171 166.653 233.647 166.985 233.204C167.322 232.756 167.788 232.411 168.385 232.168C168.986 231.921 169.678 231.798 170.462 231.798C171.613 231.798 172.519 232.043 173.179 232.533C173.844 233.023 174.255 233.685 174.413 234.521ZM184.292 234.521L182.182 234.751C182.123 234.538 182.018 234.337 181.869 234.15C181.724 233.962 181.528 233.811 181.281 233.696C181.034 233.581 180.731 233.523 180.373 233.523C179.892 233.523 179.487 233.628 179.159 233.837C178.835 234.045 178.675 234.316 178.679 234.648C178.675 234.934 178.78 235.166 178.993 235.345C179.21 235.524 179.568 235.671 180.066 235.786L181.741 236.144C182.67 236.345 183.361 236.662 183.812 237.097C184.268 237.531 184.498 238.1 184.503 238.803C184.498 239.421 184.317 239.967 183.959 240.44C183.606 240.908 183.113 241.275 182.483 241.539C181.852 241.803 181.128 241.935 180.309 241.935C179.108 241.935 178.14 241.684 177.407 241.181C176.674 240.674 176.238 239.969 176.097 239.065L178.353 238.848C178.456 239.291 178.673 239.626 179.005 239.852C179.338 240.077 179.77 240.19 180.303 240.19C180.853 240.19 181.294 240.077 181.626 239.852C181.963 239.626 182.131 239.347 182.131 239.014C182.131 238.733 182.022 238.501 181.805 238.318C181.592 238.134 181.26 237.994 180.808 237.896L179.133 237.544C178.191 237.348 177.495 237.018 177.043 236.553C176.591 236.085 176.368 235.492 176.372 234.776C176.368 234.171 176.532 233.647 176.864 233.204C177.201 232.756 177.667 232.411 178.264 232.168C178.865 231.921 179.557 231.798 180.341 231.798C181.492 231.798 182.397 232.043 183.058 232.533C183.723 233.023 184.134 233.685 184.292 234.521ZM186.411 241.744V231.925H188.725V241.744H186.411ZM187.574 230.532C187.207 230.532 186.892 230.411 186.628 230.168C186.364 229.92 186.232 229.624 186.232 229.279C186.232 228.93 186.364 228.634 186.628 228.391C186.892 228.144 187.207 228.02 187.574 228.02C187.945 228.02 188.26 228.144 188.52 228.391C188.784 228.634 188.916 228.93 188.916 229.279C188.916 229.624 188.784 229.92 188.52 230.168C188.26 230.411 187.945 230.532 187.574 230.532ZM193.418 235.991V241.744H191.104V231.925H193.316V233.594H193.431C193.657 233.044 194.017 232.607 194.511 232.283C195.009 231.96 195.625 231.798 196.358 231.798C197.036 231.798 197.626 231.943 198.129 232.232C198.636 232.522 199.028 232.942 199.305 233.492C199.586 234.041 199.725 234.708 199.72 235.492V241.744H197.407V235.85C197.407 235.194 197.236 234.68 196.895 234.31C196.559 233.939 196.092 233.754 195.495 233.754C195.09 233.754 194.73 233.843 194.415 234.022C194.104 234.197 193.859 234.45 193.68 234.783C193.505 235.115 193.418 235.518 193.418 235.991ZM206.343 245.63C205.512 245.63 204.798 245.517 204.201 245.291C203.605 245.07 203.125 244.771 202.763 244.396C202.401 244.021 202.149 243.606 202.009 243.15L204.093 242.645C204.186 242.837 204.323 243.026 204.502 243.214C204.681 243.406 204.921 243.563 205.224 243.687C205.531 243.815 205.916 243.879 206.381 243.879C207.037 243.879 207.581 243.719 208.011 243.399C208.441 243.084 208.657 242.564 208.657 241.84V239.979H208.541C208.422 240.218 208.247 240.463 208.017 240.715C207.791 240.966 207.491 241.177 207.116 241.347C206.745 241.518 206.279 241.603 205.716 241.603C204.962 241.603 204.278 241.426 203.664 241.072C203.055 240.715 202.569 240.182 202.207 239.474C201.849 238.763 201.67 237.872 201.67 236.803C201.67 235.724 201.849 234.815 202.207 234.073C202.569 233.327 203.057 232.763 203.671 232.379C204.284 231.992 204.968 231.798 205.723 231.798C206.298 231.798 206.771 231.896 207.142 232.092C207.517 232.283 207.815 232.516 208.036 232.788C208.258 233.057 208.426 233.31 208.541 233.549H208.669V231.925H210.951V241.903C210.951 242.743 210.751 243.438 210.35 243.987C209.95 244.537 209.402 244.948 208.708 245.221C208.013 245.494 207.225 245.63 206.343 245.63ZM206.362 239.788C206.852 239.788 207.269 239.668 207.615 239.43C207.96 239.191 208.222 238.848 208.401 238.401C208.58 237.953 208.669 237.416 208.669 236.79C208.669 236.172 208.58 235.631 208.401 235.166C208.226 234.702 207.966 234.342 207.621 234.086C207.28 233.826 206.86 233.696 206.362 233.696C205.846 233.696 205.416 233.83 205.071 234.099C204.725 234.367 204.465 234.736 204.291 235.205C204.116 235.669 204.029 236.197 204.029 236.79C204.029 237.391 204.116 237.917 204.291 238.369C204.47 238.816 204.732 239.166 205.077 239.417C205.426 239.664 205.855 239.788 206.362 239.788ZM219.226 245.425C218.91 245.425 218.619 245.4 218.35 245.349C218.086 245.302 217.875 245.246 217.717 245.183L218.254 243.38C218.591 243.478 218.891 243.525 219.155 243.521C219.42 243.516 219.652 243.433 219.852 243.271C220.057 243.114 220.229 242.849 220.37 242.479L220.568 241.948L217.008 231.925H219.462L221.725 239.34H221.827L224.097 231.925H226.557L222.626 242.933C222.443 243.452 222.2 243.898 221.898 244.269C221.595 244.644 221.224 244.929 220.785 245.125C220.351 245.325 219.831 245.425 219.226 245.425ZM232.107 241.935C231.149 241.935 230.318 241.724 229.614 241.303C228.911 240.881 228.366 240.291 227.978 239.532C227.595 238.773 227.403 237.887 227.403 236.873C227.403 235.859 227.595 234.97 227.978 234.207C228.366 233.445 228.911 232.852 229.614 232.43C230.318 232.009 231.149 231.798 232.107 231.798C233.066 231.798 233.897 232.009 234.6 232.43C235.303 232.852 235.847 233.445 236.23 234.207C236.618 234.97 236.812 235.859 236.812 236.873C236.812 237.887 236.618 238.773 236.23 239.532C235.847 240.291 235.303 240.881 234.6 241.303C233.897 241.724 233.066 241.935 232.107 241.935ZM232.12 240.082C232.64 240.082 233.075 239.939 233.424 239.653C233.774 239.364 234.033 238.976 234.204 238.49C234.379 238.004 234.466 237.463 234.466 236.867C234.466 236.266 234.379 235.722 234.204 235.237C234.033 234.746 233.774 234.357 233.424 234.067C233.075 233.777 232.64 233.632 232.12 233.632C231.587 233.632 231.144 233.777 230.791 234.067C230.441 234.357 230.179 234.746 230.004 235.237C229.834 235.722 229.749 236.266 229.749 236.867C229.749 237.463 229.834 238.004 230.004 238.49C230.179 238.976 230.441 239.364 230.791 239.653C231.144 239.939 231.587 240.082 232.12 240.082ZM245.034 237.614V231.925H247.348V241.744H245.104V239.999H245.002C244.78 240.548 244.416 240.998 243.909 241.347C243.406 241.697 242.786 241.871 242.049 241.871C241.405 241.871 240.836 241.729 240.342 241.443C239.852 241.153 239.468 240.734 239.191 240.184C238.914 239.63 238.776 238.961 238.776 238.177V231.925H241.09V237.819C241.09 238.441 241.26 238.935 241.601 239.302C241.942 239.668 242.389 239.852 242.943 239.852C243.284 239.852 243.615 239.769 243.934 239.602C244.254 239.436 244.516 239.189 244.72 238.861C244.929 238.528 245.034 238.113 245.034 237.614ZM249.727 241.744V231.925H251.971V233.562H252.073C252.252 232.995 252.559 232.558 252.993 232.251C253.432 231.94 253.933 231.785 254.495 231.785C254.623 231.785 254.766 231.791 254.924 231.804C255.086 231.813 255.22 231.827 255.326 231.849V233.977C255.228 233.943 255.073 233.913 254.86 233.888C254.651 233.858 254.449 233.843 254.253 233.843C253.831 233.843 253.451 233.935 253.115 234.118C252.782 234.297 252.52 234.546 252.329 234.866C252.137 235.185 252.041 235.554 252.041 235.972V241.744H249.727ZM264.972 241.916C264.201 241.916 263.51 241.718 262.901 241.322C262.292 240.925 261.81 240.35 261.456 239.596C261.103 238.842 260.926 237.925 260.926 236.847C260.926 235.756 261.105 234.836 261.463 234.086C261.825 233.332 262.313 232.763 262.927 232.379C263.54 231.992 264.224 231.798 264.978 231.798C265.554 231.798 266.027 231.896 266.397 232.092C266.768 232.283 267.062 232.516 267.28 232.788C267.497 233.057 267.665 233.31 267.785 233.549H267.88V228.653H270.201V241.744H267.925V240.197H267.785C267.665 240.435 267.493 240.689 267.267 240.957C267.041 241.222 266.743 241.447 266.372 241.635C266.001 241.822 265.535 241.916 264.972 241.916ZM265.618 240.018C266.108 240.018 266.525 239.886 266.87 239.621C267.216 239.353 267.478 238.98 267.657 238.503C267.836 238.026 267.925 237.47 267.925 236.835C267.925 236.2 267.836 235.648 267.657 235.179C267.482 234.71 267.222 234.346 266.877 234.086C266.536 233.826 266.116 233.696 265.618 233.696C265.102 233.696 264.672 233.83 264.326 234.099C263.981 234.367 263.721 234.738 263.547 235.211C263.372 235.684 263.285 236.225 263.285 236.835C263.285 237.448 263.372 237.996 263.547 238.477C263.726 238.955 263.988 239.332 264.333 239.609C264.682 239.881 265.111 240.018 265.618 240.018ZM275.492 241.942C274.87 241.942 274.309 241.831 273.811 241.609C273.316 241.384 272.924 241.051 272.634 240.612C272.349 240.173 272.206 239.632 272.206 238.989C272.206 238.435 272.309 237.977 272.513 237.614C272.718 237.252 272.997 236.962 273.35 236.745C273.704 236.528 274.103 236.364 274.546 236.253C274.993 236.138 275.456 236.055 275.933 236.004C276.508 235.944 276.975 235.891 277.333 235.844C277.691 235.793 277.951 235.716 278.112 235.614C278.279 235.507 278.362 235.343 278.362 235.121V235.083C278.362 234.602 278.219 234.229 277.934 233.965C277.648 233.7 277.237 233.568 276.7 233.568C276.133 233.568 275.684 233.692 275.351 233.939C275.023 234.186 274.801 234.478 274.686 234.815L272.526 234.508C272.696 233.911 272.978 233.413 273.37 233.012C273.762 232.607 274.241 232.305 274.808 232.104C275.375 231.9 276.001 231.798 276.687 231.798C277.16 231.798 277.631 231.853 278.1 231.964C278.568 232.075 278.997 232.258 279.384 232.514C279.772 232.765 280.083 233.108 280.318 233.543C280.556 233.977 280.676 234.521 280.676 235.173V241.744H278.451V240.395H278.375C278.234 240.668 278.036 240.923 277.78 241.162C277.529 241.396 277.211 241.586 276.828 241.731C276.448 241.871 276.003 241.942 275.492 241.942ZM276.093 240.242C276.557 240.242 276.96 240.15 277.301 239.967C277.642 239.779 277.904 239.532 278.087 239.225C278.274 238.918 278.368 238.584 278.368 238.222V237.065C278.296 237.124 278.172 237.18 277.997 237.231C277.827 237.282 277.635 237.327 277.422 237.365C277.209 237.403 276.998 237.438 276.789 237.467C276.581 237.497 276.399 237.523 276.246 237.544C275.901 237.591 275.592 237.668 275.319 237.774C275.046 237.881 274.831 238.03 274.674 238.222C274.516 238.409 274.437 238.652 274.437 238.95C274.437 239.376 274.593 239.698 274.904 239.916C275.215 240.133 275.611 240.242 276.093 240.242ZM287.905 231.925V233.715H282.261V231.925H287.905ZM283.654 229.573H285.968V238.791C285.968 239.102 286.015 239.34 286.109 239.506C286.207 239.668 286.335 239.779 286.492 239.839C286.65 239.898 286.825 239.928 287.017 239.928C287.161 239.928 287.294 239.918 287.413 239.896C287.536 239.875 287.63 239.856 287.694 239.839L288.084 241.648C287.96 241.69 287.784 241.737 287.554 241.788C287.328 241.84 287.051 241.869 286.723 241.878C286.143 241.895 285.621 241.808 285.157 241.616C284.692 241.42 284.323 241.117 284.051 240.708C283.782 240.299 283.65 239.788 283.654 239.174V229.573ZM292.666 241.942C292.043 241.942 291.483 241.831 290.984 241.609C290.49 241.384 290.098 241.051 289.808 240.612C289.523 240.173 289.38 239.632 289.38 238.989C289.38 238.435 289.482 237.977 289.687 237.614C289.891 237.252 290.171 236.962 290.524 236.745C290.878 236.528 291.276 236.364 291.72 236.253C292.167 236.138 292.629 236.055 293.107 236.004C293.682 235.944 294.149 235.891 294.506 235.844C294.864 235.793 295.124 235.716 295.286 235.614C295.453 235.507 295.536 235.343 295.536 235.121V235.083C295.536 234.602 295.393 234.229 295.107 233.965C294.822 233.7 294.411 233.568 293.874 233.568C293.307 233.568 292.857 233.692 292.525 233.939C292.197 234.186 291.975 234.478 291.86 234.815L289.7 234.508C289.87 233.911 290.151 233.413 290.543 233.012C290.935 232.607 291.415 232.305 291.982 232.104C292.548 231.9 293.175 231.798 293.861 231.798C294.334 231.798 294.805 231.853 295.274 231.964C295.742 232.075 296.171 232.258 296.558 232.514C296.946 232.765 297.257 233.108 297.492 233.543C297.73 233.977 297.85 234.521 297.85 235.173V241.744H295.625V240.395H295.548C295.408 240.668 295.21 240.923 294.954 241.162C294.703 241.396 294.385 241.586 294.002 241.731C293.622 241.871 293.177 241.942 292.666 241.942ZM293.266 240.242C293.731 240.242 294.134 240.15 294.475 239.967C294.815 239.779 295.078 239.532 295.261 239.225C295.448 238.918 295.542 238.584 295.542 238.222V237.065C295.47 237.124 295.346 237.18 295.171 237.231C295.001 237.282 294.809 237.327 294.596 237.365C294.383 237.403 294.172 237.438 293.963 237.467C293.754 237.497 293.573 237.523 293.42 237.544C293.075 237.591 292.766 237.668 292.493 237.774C292.22 237.881 292.005 238.03 291.847 238.222C291.69 238.409 291.611 238.652 291.611 238.95C291.611 239.376 291.766 239.698 292.078 239.916C292.389 240.133 292.785 240.242 293.266 240.242Z" fill="#1D2939"/>
<path d="M31.8741 260.562V270.744H30.6412V260.562H31.8741ZM37.5082 263.107V264.102H33.5508V263.107H37.5082ZM34.7042 261.278H35.8775V268.556C35.8775 268.888 35.9255 269.136 36.0217 269.302C36.1211 269.464 36.247 269.574 36.3995 269.63C36.5553 269.683 36.7193 269.71 36.8917 269.71C37.021 269.71 37.127 269.703 37.2099 269.69C37.2927 269.673 37.359 269.66 37.4087 269.65L37.6474 270.704C37.5678 270.734 37.4568 270.764 37.3143 270.793C37.1718 270.827 36.9911 270.843 36.7724 270.843C36.4409 270.843 36.1161 270.772 35.7979 270.629C35.4831 270.487 35.2212 270.27 35.0124 269.978C34.8069 269.686 34.7042 269.318 34.7042 268.874V261.278ZM46.5316 263.107V264.102H42.5742V263.107H46.5316ZM43.7276 261.278H44.9009V268.556C44.9009 268.888 44.949 269.136 45.0451 269.302C45.1445 269.464 45.2705 269.574 45.4229 269.63C45.5787 269.683 45.7428 269.71 45.9151 269.71C46.0444 269.71 46.1505 269.703 46.2333 269.69C46.3162 269.673 46.3825 269.66 46.4322 269.65L46.6708 270.704C46.5913 270.734 46.4802 270.764 46.3377 270.793C46.1952 270.827 46.0146 270.843 45.7958 270.843C45.4644 270.843 45.1396 270.772 44.8214 270.629C44.5065 270.487 44.2447 270.27 44.0359 269.978C43.8304 269.686 43.7276 269.318 43.7276 268.874V261.278ZM50.5437 270.923C50.0598 270.923 49.6206 270.831 49.2262 270.649C48.8318 270.464 48.5186 270.197 48.2866 269.849C48.0546 269.497 47.9386 269.073 47.9386 268.576C47.9386 268.139 48.0247 267.784 48.1971 267.512C48.3694 267.237 48.5998 267.022 48.8881 266.866C49.1765 266.71 49.4947 266.594 49.8427 266.518C50.194 266.438 50.547 266.375 50.9016 266.329C51.3656 266.269 51.7418 266.224 52.0302 266.195C52.3219 266.162 52.534 266.107 52.6665 266.031C52.8024 265.954 52.8704 265.822 52.8704 265.633V265.593C52.8704 265.103 52.7362 264.721 52.4677 264.45C52.2025 264.178 51.7998 264.042 51.2596 264.042C50.6995 264.042 50.2603 264.165 49.9421 264.41C49.6239 264.655 49.4002 264.917 49.271 265.195L48.1573 264.798C48.3562 264.334 48.6213 263.972 48.9528 263.714C49.2875 263.452 49.6521 263.27 50.0465 263.167C50.4442 263.061 50.8353 263.008 51.2198 263.008C51.4651 263.008 51.7468 263.038 52.065 263.097C52.3865 263.154 52.6964 263.271 52.9947 263.45C53.2963 263.629 53.5465 263.899 53.7454 264.261C53.9442 264.622 54.0437 265.106 54.0437 265.712V270.744H52.8704V269.71H52.8107C52.7312 269.875 52.5986 270.053 52.413 270.242C52.2274 270.43 51.9805 270.591 51.6722 270.724C51.364 270.856 50.9878 270.923 50.5437 270.923ZM50.7227 269.869C51.1867 269.869 51.5778 269.778 51.896 269.595C52.2174 269.413 52.4594 269.178 52.6218 268.889C52.7875 268.601 52.8704 268.298 52.8704 267.979V266.906C52.8207 266.965 52.7113 267.02 52.5423 267.07C52.3765 267.116 52.1843 267.157 51.9656 267.194C51.7501 267.227 51.5397 267.257 51.3342 267.283C51.132 267.307 50.9679 267.327 50.842 267.343C50.5371 267.383 50.252 267.447 49.9869 267.537C49.725 267.623 49.5129 267.754 49.3505 267.93C49.1914 268.102 49.1119 268.337 49.1119 268.636C49.1119 269.043 49.2627 269.352 49.5643 269.56C49.8692 269.766 50.2553 269.869 50.7227 269.869ZM57.2789 267.96L57.2591 266.508H57.4977L60.8386 263.107H62.2903L58.7306 266.707H58.6312L57.2789 267.96ZM56.1852 270.744V260.562H57.3585V270.744H56.1852ZM61.0375 270.744L58.0545 266.965L58.8897 266.15L62.5289 270.744H61.0375ZM66.6877 270.903C65.9519 270.903 65.3172 270.74 64.7836 270.416C64.2533 270.087 63.8439 269.63 63.5556 269.043C63.2705 268.453 63.128 267.767 63.128 266.985C63.128 266.203 63.2705 265.514 63.5556 264.917C63.8439 264.317 64.245 263.85 64.7587 263.515C65.2757 263.177 65.879 263.008 66.5684 263.008C66.9661 263.008 67.3588 263.074 67.7466 263.207C68.1344 263.339 68.4874 263.555 68.8056 263.853C69.1238 264.148 69.3773 264.539 69.5662 265.026C69.7551 265.514 69.8496 266.113 69.8496 266.826V267.323H63.9632V266.309H68.6564C68.6564 265.878 68.5703 265.494 68.3979 265.156C68.2289 264.818 67.9869 264.551 67.6721 264.355C67.3605 264.16 66.9926 264.062 66.5684 264.062C66.101 264.062 65.6967 264.178 65.3553 264.41C65.0172 264.639 64.757 264.937 64.5748 265.305C64.3925 265.673 64.3013 266.067 64.3013 266.488V267.164C64.3013 267.741 64.4007 268.23 64.5996 268.631C64.8018 269.028 65.0819 269.332 65.4398 269.541C65.7978 269.746 66.2137 269.849 66.6877 269.849C66.9959 269.849 67.2743 269.806 67.5229 269.72C67.7748 269.63 67.9919 269.497 68.1742 269.322C68.3565 269.143 68.4973 268.921 68.5968 268.656L69.7303 268.974C69.611 269.358 69.4105 269.696 69.1287 269.988C68.847 270.276 68.499 270.502 68.0847 270.664C67.6704 270.823 67.2047 270.903 66.6877 270.903ZM77.0435 264.818L75.9895 265.116C75.9232 264.94 75.8255 264.769 75.6962 264.604C75.5703 264.435 75.3979 264.295 75.1792 264.186C74.9604 264.077 74.6803 264.022 74.339 264.022C73.8716 264.022 73.4822 264.13 73.1706 264.345C72.8624 264.557 72.7083 264.827 72.7083 265.156C72.7083 265.447 72.8143 265.678 73.0265 265.847C73.2386 266.016 73.57 266.157 74.0208 266.269L75.1543 266.548C75.8371 266.713 76.3458 266.967 76.6806 267.308C77.0153 267.646 77.1827 268.082 77.1827 268.616C77.1827 269.053 77.0568 269.444 76.8049 269.789C76.5563 270.134 76.2083 270.406 75.7608 270.604C75.3134 270.803 74.793 270.903 74.1998 270.903C73.4209 270.903 72.7762 270.734 72.2658 270.396C71.7554 270.058 71.4322 269.564 71.2963 268.914L72.41 268.636C72.516 269.047 72.7166 269.355 73.0115 269.56C73.3098 269.766 73.6993 269.869 74.1799 269.869C74.7267 269.869 75.1609 269.753 75.4824 269.521C75.8072 269.285 75.9696 269.004 75.9696 268.675C75.9696 268.41 75.8768 268.188 75.6912 268.009C75.5056 267.827 75.2206 267.691 74.8361 267.602L73.5634 267.303C72.8641 267.138 72.3503 266.881 72.0222 266.533C71.6974 266.181 71.535 265.742 71.535 265.215C71.535 264.784 71.656 264.403 71.8979 264.072C72.1432 263.74 72.4763 263.48 72.8972 263.291C73.3214 263.102 73.802 263.008 74.339 263.008C75.0946 263.008 75.6879 263.174 76.1188 263.505C76.553 263.836 76.8612 264.274 77.0435 264.818ZM85.1335 270.923C84.6496 270.923 84.2105 270.831 83.8161 270.649C83.4216 270.464 83.1084 270.197 82.8764 269.849C82.6444 269.497 82.5284 269.073 82.5284 268.576C82.5284 268.139 82.6146 267.784 82.7869 267.512C82.9593 267.237 83.1896 267.022 83.478 266.866C83.7663 266.71 84.0845 266.594 84.4325 266.518C84.7839 266.438 85.1368 266.375 85.4915 266.329C85.9555 266.269 86.3317 266.224 86.62 266.195C86.9117 266.162 87.1238 266.107 87.2564 266.031C87.3923 265.954 87.4602 265.822 87.4602 265.633V265.593C87.4602 265.103 87.326 264.721 87.0575 264.45C86.7924 264.178 86.3897 264.042 85.8494 264.042C85.2893 264.042 84.8501 264.165 84.532 264.41C84.2138 264.655 83.9901 264.917 83.8608 265.195L82.7472 264.798C82.946 264.334 83.2112 263.972 83.5426 263.714C83.8774 263.452 84.242 263.27 84.6364 263.167C85.0341 263.061 85.4252 263.008 85.8097 263.008C86.0549 263.008 86.3366 263.038 86.6548 263.097C86.9763 263.154 87.2862 263.271 87.5845 263.45C87.8861 263.629 88.1364 263.899 88.3352 264.261C88.5341 264.622 88.6335 265.106 88.6335 265.712V270.744H87.4602V269.71H87.4006C87.321 269.875 87.1884 270.053 87.0028 270.242C86.8172 270.43 86.5703 270.591 86.2621 270.724C85.9538 270.856 85.5777 270.923 85.1335 270.923ZM85.3125 269.869C85.7765 269.869 86.1676 269.778 86.4858 269.595C86.8073 269.413 87.0492 269.178 87.2116 268.889C87.3774 268.601 87.4602 268.298 87.4602 267.979V266.906C87.4105 266.965 87.3011 267.02 87.1321 267.07C86.9664 267.116 86.7741 267.157 86.5554 267.194C86.34 267.227 86.1295 267.257 85.924 267.283C85.7218 267.307 85.5578 267.327 85.4318 267.343C85.1269 267.383 84.8419 267.447 84.5767 267.537C84.3149 267.623 84.1027 267.754 83.9403 267.93C83.7813 268.102 83.7017 268.337 83.7017 268.636C83.7017 269.043 83.8525 269.352 84.1541 269.56C84.459 269.766 84.8452 269.869 85.3125 269.869ZM90.9341 270.744V260.562H92.1074V264.32H92.2069C92.293 264.188 92.4123 264.019 92.5648 263.813C92.7206 263.604 92.9426 263.419 93.231 263.256C93.5227 263.091 93.9171 263.008 94.4142 263.008C95.0572 263.008 95.624 263.169 96.1145 263.49C96.6051 263.812 96.9879 264.267 97.263 264.857C97.5381 265.447 97.6756 266.143 97.6756 266.945C97.6756 267.754 97.5381 268.455 97.263 269.048C96.9879 269.638 96.6067 270.096 96.1195 270.42C95.6323 270.742 95.0705 270.903 94.4341 270.903C93.9436 270.903 93.5508 270.822 93.2559 270.659C92.9609 270.493 92.7338 270.306 92.5748 270.097C92.4157 269.885 92.293 269.71 92.2069 269.57H92.0676V270.744H90.9341ZM92.0875 266.925C92.0875 267.502 92.1721 268.011 92.3411 268.452C92.5101 268.889 92.757 269.232 93.0819 269.481C93.4067 269.726 93.8044 269.849 94.275 269.849C94.7656 269.849 95.1749 269.72 95.503 269.461C95.8345 269.199 96.083 268.848 96.2488 268.407C96.4178 267.963 96.5023 267.469 96.5023 266.925C96.5023 266.389 96.4194 265.905 96.2537 265.474C96.0913 265.04 95.8444 264.697 95.513 264.445C95.1848 264.189 94.7722 264.062 94.275 264.062C93.7978 264.062 93.3967 264.183 93.0719 264.425C92.7471 264.663 92.5018 264.998 92.3361 265.429C92.1704 265.857 92.0875 266.355 92.0875 266.925ZM102.573 270.903C101.883 270.903 101.278 270.739 100.758 270.411C100.241 270.082 99.8366 269.623 99.5449 269.033C99.2566 268.443 99.1124 267.754 99.1124 266.965C99.1124 266.17 99.2566 265.475 99.5449 264.882C99.8366 264.289 100.241 263.828 100.758 263.5C101.278 263.172 101.883 263.008 102.573 263.008C103.262 263.008 103.865 263.172 104.382 263.5C104.903 263.828 105.307 264.289 105.595 264.882C105.887 265.475 106.033 266.17 106.033 266.965C106.033 267.754 105.887 268.443 105.595 269.033C105.307 269.623 104.903 270.082 104.382 270.411C103.865 270.739 103.262 270.903 102.573 270.903ZM102.573 269.849C103.096 269.849 103.527 269.715 103.865 269.446C104.203 269.178 104.454 268.825 104.616 268.387C104.778 267.95 104.86 267.476 104.86 266.965C104.86 266.455 104.778 265.979 104.616 265.538C104.454 265.098 104.203 264.741 103.865 264.47C103.527 264.198 103.096 264.062 102.573 264.062C102.049 264.062 101.618 264.198 101.28 264.47C100.942 264.741 100.692 265.098 100.529 265.538C100.367 265.979 100.286 266.455 100.286 266.965C100.286 267.476 100.367 267.95 100.529 268.387C100.692 268.825 100.942 269.178 101.28 269.446C101.618 269.715 102.049 269.849 102.573 269.849ZM112.636 267.621V263.107H113.81V270.744H112.636V269.451H112.557C112.378 269.839 112.099 270.169 111.722 270.44C111.344 270.709 110.866 270.843 110.29 270.843C109.812 270.843 109.388 270.739 109.017 270.53C108.646 270.318 108.354 270 108.142 269.575C107.93 269.148 107.824 268.609 107.824 267.96V263.107H108.997V267.88C108.997 268.437 109.153 268.881 109.464 269.212C109.779 269.544 110.18 269.71 110.668 269.71C110.959 269.71 111.256 269.635 111.558 269.486C111.862 269.337 112.118 269.108 112.323 268.8C112.532 268.492 112.636 268.099 112.636 267.621ZM119.28 263.107V264.102H115.322V263.107H119.28ZM116.476 261.278H117.649V268.556C117.649 268.888 117.697 269.136 117.793 269.302C117.893 269.464 118.019 269.574 118.171 269.63C118.327 269.683 118.491 269.71 118.663 269.71C118.792 269.71 118.898 269.703 118.981 269.69C119.064 269.673 119.131 269.66 119.18 269.65L119.419 270.704C119.339 270.734 119.228 270.764 119.086 270.793C118.943 270.827 118.763 270.843 118.544 270.843C118.212 270.843 117.888 270.772 117.569 270.629C117.255 270.487 116.993 270.27 116.784 269.978C116.578 269.686 116.476 269.318 116.476 268.874V261.278ZM128.144 270.883C127.561 270.883 127.035 270.767 126.568 270.535C126.101 270.303 125.726 269.985 125.444 269.58C125.163 269.176 125.009 268.715 124.982 268.198H126.175C126.222 268.659 126.43 269.04 126.802 269.342C127.176 269.64 127.624 269.789 128.144 269.789C128.562 269.789 128.933 269.691 129.258 269.496C129.586 269.3 129.843 269.032 130.028 268.69C130.217 268.346 130.312 267.956 130.312 267.522C130.312 267.078 130.214 266.682 130.018 266.334C129.826 265.983 129.561 265.706 129.223 265.504C128.885 265.301 128.499 265.199 128.064 265.195C127.753 265.192 127.433 265.24 127.105 265.34C126.777 265.436 126.507 265.56 126.295 265.712L125.141 265.573L125.758 260.562H131.047V261.656H126.792L126.434 264.658H126.493C126.702 264.493 126.964 264.355 127.279 264.246C127.594 264.136 127.922 264.082 128.263 264.082C128.886 264.082 129.442 264.231 129.929 264.529C130.419 264.824 130.804 265.229 131.082 265.742C131.364 266.256 131.505 266.843 131.505 267.502C131.505 268.152 131.359 268.732 131.067 269.242C130.779 269.749 130.381 270.15 129.874 270.445C129.367 270.737 128.79 270.883 128.144 270.883ZM137.437 270.744V263.107H138.571V264.3H138.67C138.829 263.893 139.086 263.576 139.441 263.351C139.795 263.122 140.221 263.008 140.718 263.008C141.222 263.008 141.641 263.122 141.976 263.351C142.314 263.576 142.578 263.893 142.767 264.3H142.846C143.042 263.906 143.335 263.593 143.726 263.361C144.117 263.126 144.586 263.008 145.133 263.008C145.816 263.008 146.374 263.222 146.809 263.649C147.243 264.073 147.46 264.735 147.46 265.633V270.744H146.287V265.633C146.287 265.069 146.132 264.667 145.824 264.425C145.516 264.183 145.153 264.062 144.735 264.062C144.199 264.062 143.783 264.224 143.488 264.549C143.193 264.871 143.045 265.278 143.045 265.772V270.744H141.852V265.514C141.852 265.079 141.711 264.73 141.429 264.465C141.148 264.196 140.785 264.062 140.341 264.062C140.036 264.062 139.751 264.143 139.485 264.305C139.224 264.468 139.011 264.693 138.849 264.982C138.69 265.267 138.61 265.596 138.61 265.971V270.744H137.437ZM149.605 270.744V263.107H150.778V270.744H149.605ZM150.202 261.835C149.973 261.835 149.776 261.757 149.61 261.601C149.448 261.445 149.366 261.258 149.366 261.039C149.366 260.82 149.448 260.633 149.61 260.477C149.776 260.322 149.973 260.244 150.202 260.244C150.43 260.244 150.626 260.322 150.788 260.477C150.954 260.633 151.037 260.82 151.037 261.039C151.037 261.258 150.954 261.445 150.788 261.601C150.626 261.757 150.43 261.835 150.202 261.835ZM154.101 266.15V270.744H152.927V263.107H154.061V264.3H154.16C154.339 263.913 154.611 263.601 154.976 263.366C155.34 263.127 155.811 263.008 156.388 263.008C156.905 263.008 157.357 263.114 157.745 263.326C158.133 263.535 158.434 263.853 158.65 264.281C158.865 264.705 158.973 265.242 158.973 265.891V270.744H157.8V265.971C157.8 265.371 157.644 264.904 157.332 264.569C157.021 264.231 156.593 264.062 156.05 264.062C155.675 264.062 155.34 264.143 155.045 264.305C154.754 264.468 154.523 264.705 154.354 265.016C154.185 265.328 154.101 265.706 154.101 266.15ZM165.929 267.621V263.107H167.103V270.744H165.929V269.451H165.85C165.671 269.839 165.392 270.169 165.015 270.44C164.637 270.709 164.159 270.843 163.583 270.843C163.105 270.843 162.681 270.739 162.31 270.53C161.939 270.318 161.647 270 161.435 269.575C161.223 269.148 161.117 268.609 161.117 267.96V263.107H162.29V267.88C162.29 268.437 162.446 268.881 162.757 269.212C163.072 269.544 163.473 269.71 163.961 269.71C164.252 269.71 164.549 269.635 164.85 269.486C165.155 269.337 165.411 269.108 165.616 268.8C165.825 268.492 165.929 268.099 165.929 267.621ZM172.573 263.107V264.102H168.615V263.107H172.573ZM169.769 261.278H170.942V268.556C170.942 268.888 170.99 269.136 171.086 269.302C171.186 269.464 171.311 269.574 171.464 269.63C171.62 269.683 171.784 269.71 171.956 269.71C172.085 269.71 172.191 269.703 172.274 269.69C172.357 269.673 172.423 269.66 172.473 269.65L172.712 270.704C172.632 270.734 172.521 270.764 172.379 270.793C172.236 270.827 172.056 270.843 171.837 270.843C171.505 270.843 171.181 270.772 170.862 270.629C170.548 270.487 170.286 270.27 170.077 269.978C169.871 269.686 169.769 269.318 169.769 268.874V261.278ZM177.457 270.903C176.721 270.903 176.087 270.74 175.553 270.416C175.023 270.087 174.613 269.63 174.325 269.043C174.04 268.453 173.898 267.767 173.898 266.985C173.898 266.203 174.04 265.514 174.325 264.917C174.613 264.317 175.015 263.85 175.528 263.515C176.045 263.177 176.648 263.008 177.338 263.008C177.736 263.008 178.128 263.074 178.516 263.207C178.904 263.339 179.257 263.555 179.575 263.853C179.893 264.148 180.147 264.539 180.336 265.026C180.525 265.514 180.619 266.113 180.619 266.826V267.323H174.733V266.309H179.426C179.426 265.878 179.34 265.494 179.167 265.156C178.998 264.818 178.756 264.551 178.442 264.355C178.13 264.16 177.762 264.062 177.338 264.062C176.871 264.062 176.466 264.178 176.125 264.41C175.787 264.639 175.527 264.937 175.344 265.305C175.162 265.673 175.071 266.067 175.071 266.488V267.164C175.071 267.741 175.17 268.23 175.369 268.631C175.571 269.028 175.851 269.332 176.209 269.541C176.567 269.746 176.983 269.849 177.457 269.849C177.765 269.849 178.044 269.806 178.292 269.72C178.544 269.63 178.761 269.497 178.944 269.322C179.126 269.143 179.267 268.921 179.366 268.656L180.5 268.974C180.381 269.358 180.18 269.696 179.898 269.988C179.617 270.276 179.269 270.502 178.854 270.664C178.44 270.823 177.974 270.903 177.457 270.903ZM187.813 264.818L186.759 265.116C186.693 264.94 186.595 264.769 186.466 264.604C186.34 264.435 186.167 264.295 185.949 264.186C185.73 264.077 185.45 264.022 185.108 264.022C184.641 264.022 184.252 264.13 183.94 264.345C183.632 264.557 183.478 264.827 183.478 265.156C183.478 265.447 183.584 265.678 183.796 265.847C184.008 266.016 184.34 266.157 184.79 266.269L185.924 266.548C186.607 266.713 187.115 266.967 187.45 267.308C187.785 267.646 187.952 268.082 187.952 268.616C187.952 269.053 187.826 269.444 187.574 269.789C187.326 270.134 186.978 270.406 186.53 270.604C186.083 270.803 185.563 270.903 184.969 270.903C184.19 270.903 183.546 270.734 183.035 270.396C182.525 270.058 182.202 269.564 182.066 268.914L183.18 268.636C183.286 269.047 183.486 269.355 183.781 269.56C184.079 269.766 184.469 269.869 184.949 269.869C185.496 269.869 185.93 269.753 186.252 269.521C186.577 269.285 186.739 269.004 186.739 268.675C186.739 268.41 186.646 268.188 186.461 268.009C186.275 267.827 185.99 267.691 185.606 267.602L184.333 267.303C183.634 267.138 183.12 266.881 182.792 266.533C182.467 266.181 182.305 265.742 182.305 265.215C182.305 264.784 182.425 264.403 182.667 264.072C182.913 263.74 183.246 263.48 183.667 263.291C184.091 263.102 184.572 263.008 185.108 263.008C185.864 263.008 186.457 263.174 186.888 263.505C187.323 263.836 187.631 264.274 187.813 264.818ZM197.056 263.107V264.102H192.94V263.107H197.056ZM194.173 270.744V262.053C194.173 261.616 194.276 261.251 194.481 260.96C194.687 260.668 194.953 260.449 195.282 260.303C195.61 260.157 195.956 260.085 196.321 260.085C196.609 260.085 196.844 260.108 197.027 260.154C197.209 260.201 197.345 260.244 197.434 260.283L197.096 261.298C197.037 261.278 196.954 261.253 196.848 261.223C196.745 261.193 196.609 261.178 196.44 261.178C196.052 261.178 195.772 261.276 195.6 261.472C195.431 261.667 195.346 261.954 195.346 262.332V270.744H194.173ZM201.489 270.903C200.799 270.903 200.194 270.739 199.674 270.411C199.157 270.082 198.753 269.623 198.461 269.033C198.173 268.443 198.028 267.754 198.028 266.965C198.028 266.17 198.173 265.475 198.461 264.882C198.753 264.289 199.157 263.828 199.674 263.5C200.194 263.172 200.799 263.008 201.489 263.008C202.178 263.008 202.781 263.172 203.298 263.5C203.819 263.828 204.223 264.289 204.511 264.882C204.803 265.475 204.949 266.17 204.949 266.965C204.949 267.754 204.803 268.443 204.511 269.033C204.223 269.623 203.819 270.082 203.298 270.411C202.781 270.739 202.178 270.903 201.489 270.903ZM201.489 269.849C202.012 269.849 202.443 269.715 202.781 269.446C203.119 269.178 203.37 268.825 203.532 268.387C203.694 267.95 203.776 267.476 203.776 266.965C203.776 266.455 203.694 265.979 203.532 265.538C203.37 265.098 203.119 264.741 202.781 264.47C202.443 264.198 202.012 264.062 201.489 264.062C200.965 264.062 200.534 264.198 200.196 264.47C199.858 264.741 199.608 265.098 199.445 265.538C199.283 265.979 199.202 266.455 199.202 266.965C199.202 267.476 199.283 267.95 199.445 268.387C199.608 268.825 199.858 269.178 200.196 269.446C200.534 269.715 200.965 269.849 201.489 269.849ZM206.74 270.744V263.107H207.873V264.261H207.953C208.092 263.883 208.344 263.576 208.709 263.341C209.073 263.106 209.484 262.988 209.942 262.988C210.028 262.988 210.135 262.99 210.265 262.993C210.394 262.996 210.492 263.001 210.558 263.008V264.201C210.518 264.191 210.427 264.176 210.285 264.156C210.145 264.133 209.998 264.121 209.842 264.121C209.471 264.121 209.14 264.199 208.848 264.355C208.559 264.508 208.331 264.72 208.162 264.992C207.996 265.26 207.913 265.567 207.913 265.911V270.744H206.74ZM218.989 270.903C218.299 270.903 217.694 270.739 217.174 270.411C216.657 270.082 216.253 269.623 215.961 269.033C215.673 268.443 215.528 267.754 215.528 266.965C215.528 266.17 215.673 265.475 215.961 264.882C216.253 264.289 216.657 263.828 217.174 263.5C217.694 263.172 218.299 263.008 218.989 263.008C219.678 263.008 220.281 263.172 220.798 263.5C221.319 263.828 221.723 264.289 222.011 264.882C222.303 265.475 222.449 266.17 222.449 266.965C222.449 267.754 222.303 268.443 222.011 269.033C221.723 269.623 221.319 270.082 220.798 270.411C220.281 270.739 219.678 270.903 218.989 270.903ZM218.989 269.849C219.512 269.849 219.943 269.715 220.281 269.446C220.619 269.178 220.87 268.825 221.032 268.387C221.194 267.95 221.276 267.476 221.276 266.965C221.276 266.455 221.194 265.979 221.032 265.538C220.87 265.098 220.619 264.741 220.281 264.47C219.943 264.198 219.512 264.062 218.989 264.062C218.465 264.062 218.034 264.198 217.696 264.47C217.358 264.741 217.108 265.098 216.945 265.538C216.783 265.979 216.702 266.455 216.702 266.965C216.702 267.476 216.783 267.95 216.945 268.387C217.108 268.825 217.358 269.178 217.696 269.446C218.034 269.715 218.465 269.849 218.989 269.849ZM229.052 267.621V263.107H230.226V270.744H229.052V269.451H228.973C228.794 269.839 228.515 270.169 228.138 270.44C227.76 270.709 227.282 270.843 226.706 270.843C226.229 270.843 225.804 270.739 225.433 270.53C225.062 270.318 224.77 270 224.558 269.575C224.346 269.148 224.24 268.609 224.24 267.96V263.107H225.413V267.88C225.413 268.437 225.569 268.881 225.881 269.212C226.195 269.544 226.596 269.71 227.084 269.71C227.375 269.71 227.672 269.635 227.974 269.486C228.278 269.337 228.534 269.108 228.739 268.8C228.948 268.492 229.052 268.099 229.052 267.621ZM232.375 270.744V263.107H233.508V264.261H233.588C233.727 263.883 233.979 263.576 234.343 263.341C234.708 263.106 235.119 262.988 235.576 262.988C235.663 262.988 235.77 262.99 235.9 262.993C236.029 262.996 236.127 263.001 236.193 263.008V264.201C236.153 264.191 236.062 264.176 235.919 264.156C235.78 264.133 235.633 264.121 235.477 264.121C235.106 264.121 234.774 264.199 234.483 264.355C234.194 264.508 233.966 264.72 233.797 264.992C233.631 265.26 233.548 265.567 233.548 265.911V270.744H232.375ZM241.68 270.744V260.562H242.913V269.65H247.646V270.744H241.68ZM249.555 270.744V260.562H250.788V269.65H255.521V270.744H249.555ZM257.43 260.562H258.902L262.362 269.014H262.481L265.942 260.562H267.413V270.744H266.26V263.008H266.16L262.979 270.744H261.865L258.683 263.008H258.584V270.744H257.43V260.562ZM273.664 270.744V263.107H274.797V264.3H274.897C275.056 263.893 275.313 263.576 275.667 263.351C276.022 263.122 276.448 263.008 276.945 263.008C277.449 263.008 277.868 263.122 278.203 263.351C278.541 263.576 278.804 263.893 278.993 264.3H279.073C279.268 263.906 279.562 263.593 279.953 263.361C280.344 263.126 280.813 263.008 281.36 263.008C282.042 263.008 282.601 263.222 283.035 263.649C283.469 264.073 283.686 264.735 283.686 265.633V270.744H282.513V265.633C282.513 265.069 282.359 264.667 282.051 264.425C281.743 264.183 281.38 264.062 280.962 264.062C280.425 264.062 280.009 264.224 279.714 264.549C279.419 264.871 279.272 265.278 279.272 265.772V270.744H278.078V265.514C278.078 265.079 277.938 264.73 277.656 264.465C277.374 264.196 277.011 264.062 276.567 264.062C276.262 264.062 275.977 264.143 275.712 264.305C275.45 264.468 275.238 264.693 275.076 264.982C274.917 265.267 274.837 265.596 274.837 265.971V270.744H273.664ZM288.934 270.903C288.245 270.903 287.64 270.739 287.119 270.411C286.602 270.082 286.198 269.623 285.906 269.033C285.618 268.443 285.474 267.754 285.474 266.965C285.474 266.17 285.618 265.475 285.906 264.882C286.198 264.289 286.602 263.828 287.119 263.5C287.64 263.172 288.245 263.008 288.934 263.008C289.623 263.008 290.227 263.172 290.744 263.5C291.264 263.828 291.668 264.289 291.957 264.882C292.248 265.475 292.394 266.17 292.394 266.965C292.394 267.754 292.248 268.443 291.957 269.033C291.668 269.623 291.264 270.082 290.744 270.411C290.227 270.739 289.623 270.903 288.934 270.903ZM288.934 269.849C289.458 269.849 289.888 269.715 290.227 269.446C290.565 269.178 290.815 268.825 290.977 268.387C291.14 267.95 291.221 267.476 291.221 266.965C291.221 266.455 291.14 265.979 290.977 265.538C290.815 265.098 290.565 264.741 290.227 264.47C289.888 264.198 289.458 264.062 288.934 264.062C288.41 264.062 287.979 264.198 287.641 264.47C287.303 264.741 287.053 265.098 286.891 265.538C286.728 265.979 286.647 266.455 286.647 266.965C286.647 267.476 286.728 267.95 286.891 268.387C287.053 268.825 287.303 269.178 287.641 269.446C287.979 269.715 288.41 269.849 288.934 269.849ZM297.069 270.903C296.432 270.903 295.871 270.742 295.383 270.42C294.896 270.096 294.515 269.638 294.24 269.048C293.965 268.455 293.827 267.754 293.827 266.945C293.827 266.143 293.965 265.447 294.24 264.857C294.515 264.267 294.898 263.812 295.388 263.49C295.879 263.169 296.446 263.008 297.089 263.008C297.586 263.008 297.979 263.091 298.267 263.256C298.559 263.419 298.781 263.604 298.933 263.813C299.089 264.019 299.21 264.188 299.296 264.32H299.395V260.562H300.569V270.744H299.435V269.57H299.296C299.21 269.71 299.087 269.885 298.928 270.097C298.769 270.306 298.542 270.493 298.247 270.659C297.952 270.822 297.559 270.903 297.069 270.903ZM297.228 269.849C297.698 269.849 298.096 269.726 298.421 269.481C298.746 269.232 298.993 268.889 299.162 268.452C299.331 268.011 299.415 267.502 299.415 266.925C299.415 266.355 299.332 265.857 299.167 265.429C299.001 264.998 298.756 264.663 298.431 264.425C298.106 264.183 297.705 264.062 297.228 264.062C296.731 264.062 296.316 264.189 295.985 264.445C295.657 264.697 295.41 265.04 295.244 265.474C295.082 265.905 295.001 266.389 295.001 266.925C295.001 267.469 295.083 267.963 295.249 268.407C295.418 268.848 295.667 269.199 295.995 269.461C296.326 269.72 296.737 269.849 297.228 269.849ZM306.082 270.903C305.346 270.903 304.712 270.74 304.178 270.416C303.648 270.087 303.238 269.63 302.95 269.043C302.665 268.453 302.523 267.767 302.523 266.985C302.523 266.203 302.665 265.514 302.95 264.917C303.238 264.317 303.64 263.85 304.153 263.515C304.67 263.177 305.273 263.008 305.963 263.008C306.361 263.008 306.753 263.074 307.141 263.207C307.529 263.339 307.882 263.555 308.2 263.853C308.518 264.148 308.772 264.539 308.961 265.026C309.15 265.514 309.244 266.113 309.244 266.826V267.323H303.358V266.309H308.051C308.051 265.878 307.965 265.494 307.792 265.156C307.623 264.818 307.381 264.551 307.067 264.355C306.755 264.16 306.387 264.062 305.963 264.062C305.496 264.062 305.091 264.178 304.75 264.41C304.412 264.639 304.152 264.937 303.969 265.305C303.787 265.673 303.696 266.067 303.696 266.488V267.164C303.696 267.741 303.795 268.23 303.994 268.631C304.196 269.028 304.476 269.332 304.834 269.541C305.192 269.746 305.608 269.849 306.082 269.849C306.39 269.849 306.669 269.806 306.917 269.72C307.169 269.63 307.386 269.497 307.569 269.322C307.751 269.143 307.892 268.921 307.991 268.656L309.125 268.974C309.006 269.358 308.805 269.696 308.523 269.988C308.242 270.276 307.894 270.502 307.479 270.664C307.065 270.823 306.599 270.903 306.082 270.903ZM312.202 260.562V270.744H311.029V260.562H312.202ZM319.76 264.818L318.706 265.116C318.64 264.94 318.542 264.769 318.413 264.604C318.287 264.435 318.115 264.295 317.896 264.186C317.677 264.077 317.397 264.022 317.056 264.022C316.588 264.022 316.199 264.13 315.887 264.345C315.579 264.557 315.425 264.827 315.425 265.156C315.425 265.447 315.531 265.678 315.743 265.847C315.955 266.016 316.287 266.157 316.738 266.269L317.871 266.548C318.554 266.713 319.063 266.967 319.397 267.308C319.732 267.646 319.9 268.082 319.9 268.616C319.9 269.053 319.774 269.444 319.522 269.789C319.273 270.134 318.925 270.406 318.478 270.604C318.03 270.803 317.51 270.903 316.917 270.903C316.138 270.903 315.493 270.734 314.983 270.396C314.472 270.058 314.149 269.564 314.013 268.914L315.127 268.636C315.233 269.047 315.433 269.355 315.728 269.56C316.027 269.766 316.416 269.869 316.897 269.869C317.444 269.869 317.878 269.753 318.199 269.521C318.524 269.285 318.686 269.004 318.686 268.675C318.686 268.41 318.594 268.188 318.408 268.009C318.222 267.827 317.937 267.691 317.553 267.602L316.28 267.303C315.581 267.138 315.067 266.881 314.739 266.533C314.414 266.181 314.252 265.742 314.252 265.215C314.252 264.784 314.373 264.403 314.615 264.072C314.86 263.74 315.193 263.48 315.614 263.291C316.038 263.102 316.519 263.008 317.056 263.008C317.811 263.008 318.405 263.174 318.836 263.505C319.27 263.836 319.578 264.274 319.76 264.818ZM84.0404 283.107V284.102H80.083V283.107H84.0404ZM81.2364 281.278H82.4097V288.556C82.4097 288.888 82.4578 289.136 82.5539 289.302C82.6533 289.464 82.7793 289.574 82.9317 289.63C83.0875 289.683 83.2516 289.71 83.4239 289.71C83.5532 289.71 83.6592 289.703 83.7421 289.69C83.825 289.673 83.8912 289.66 83.941 289.65L84.1796 290.704C84.1001 290.734 83.989 290.764 83.8465 290.793C83.704 290.827 83.5233 290.843 83.3046 290.843C82.9732 290.843 82.6483 290.772 82.3302 290.629C82.0153 290.487 81.7535 290.27 81.5447 289.978C81.3392 289.686 81.2364 289.318 81.2364 288.874V281.278ZM88.8256 290.903C88.1362 290.903 87.5313 290.739 87.0109 290.411C86.4939 290.082 86.0895 289.623 85.7979 289.033C85.5095 288.443 85.3653 287.754 85.3653 286.965C85.3653 286.17 85.5095 285.475 85.7979 284.882C86.0895 284.289 86.4939 283.828 87.0109 283.5C87.5313 283.172 88.1362 283.008 88.8256 283.008C89.5149 283.008 90.1182 283.172 90.6352 283.5C91.1556 283.828 91.5599 284.289 91.8483 284.882C92.1399 285.475 92.2858 286.17 92.2858 286.965C92.2858 287.754 92.1399 288.443 91.8483 289.033C91.5599 289.623 91.1556 290.082 90.6352 290.411C90.1182 290.739 89.5149 290.903 88.8256 290.903ZM88.8256 289.849C89.3492 289.849 89.7801 289.715 90.1182 289.446C90.4562 289.178 90.7065 288.825 90.8689 288.387C91.0313 287.95 91.1125 287.476 91.1125 286.965C91.1125 286.455 91.0313 285.979 90.8689 285.538C90.7065 285.098 90.4562 284.741 90.1182 284.47C89.7801 284.198 89.3492 284.062 88.8256 284.062C88.3019 284.062 87.871 284.198 87.5329 284.47C87.1949 284.741 86.9446 285.098 86.7822 285.538C86.6198 285.979 86.5386 286.455 86.5386 286.965C86.5386 287.476 86.6198 287.95 86.7822 288.387C86.9446 288.825 87.1949 289.178 87.5329 289.446C87.871 289.715 88.3019 289.849 88.8256 289.849ZM101.117 290.903C100.401 290.903 99.7842 290.734 99.2671 290.396C98.7501 290.058 98.3524 289.592 98.074 288.999C97.7955 288.405 97.6563 287.728 97.6563 286.965C97.6563 286.19 97.7989 285.505 98.0839 284.912C98.3722 284.315 98.7733 283.85 99.287 283.515C99.8041 283.177 100.407 283.008 101.097 283.008C101.634 283.008 102.118 283.107 102.548 283.306C102.979 283.505 103.332 283.783 103.607 284.141C103.882 284.499 104.053 284.917 104.119 285.394H102.946C102.857 285.046 102.658 284.738 102.35 284.47C102.045 284.198 101.634 284.062 101.117 284.062C100.659 284.062 100.258 284.181 99.9134 284.42C99.5721 284.655 99.3052 284.988 99.113 285.419C98.9241 285.847 98.8296 286.349 98.8296 286.925C98.8296 287.515 98.9224 288.029 99.108 288.467C99.297 288.904 99.5621 289.244 99.9035 289.486C100.248 289.728 100.653 289.849 101.117 289.849C101.421 289.849 101.698 289.796 101.947 289.69C102.195 289.584 102.406 289.431 102.578 289.232C102.751 289.033 102.873 288.795 102.946 288.516H104.119C104.053 288.967 103.889 289.373 103.627 289.734C103.369 290.092 103.026 290.377 102.598 290.59C102.174 290.798 101.68 290.903 101.117 290.903ZM105.835 290.744V283.107H106.968V284.261H107.048C107.187 283.883 107.439 283.576 107.803 283.341C108.168 283.106 108.579 282.988 109.036 282.988C109.122 282.988 109.23 282.99 109.359 282.993C109.489 282.996 109.587 283.001 109.653 283.008V284.201C109.613 284.191 109.522 284.176 109.379 284.156C109.24 284.133 109.093 284.121 108.937 284.121C108.566 284.121 108.234 284.199 107.943 284.355C107.654 284.508 107.426 284.72 107.256 284.992C107.091 285.26 107.008 285.567 107.008 285.911V290.744H105.835ZM114.013 290.903C113.277 290.903 112.642 290.74 112.109 290.416C111.578 290.087 111.169 289.63 110.881 289.043C110.596 288.453 110.453 287.767 110.453 286.985C110.453 286.203 110.596 285.514 110.881 284.917C111.169 284.317 111.57 283.85 112.084 283.515C112.601 283.177 113.204 283.008 113.894 283.008C114.291 283.008 114.684 283.074 115.072 283.207C115.46 283.339 115.813 283.555 116.131 283.853C116.449 284.148 116.703 284.539 116.891 285.026C117.08 285.514 117.175 286.113 117.175 286.826V287.323H111.288V286.309H115.982C115.982 285.878 115.895 285.494 115.723 285.156C115.554 284.818 115.312 284.551 114.997 284.355C114.686 284.16 114.318 284.062 113.894 284.062C113.426 284.062 113.022 284.178 112.68 284.41C112.342 284.639 112.082 284.937 111.9 285.305C111.718 285.673 111.627 286.067 111.627 286.488V287.164C111.627 287.741 111.726 288.23 111.925 288.631C112.127 289.028 112.407 289.332 112.765 289.541C113.123 289.746 113.539 289.849 114.013 289.849C114.321 289.849 114.6 289.806 114.848 289.72C115.1 289.63 115.317 289.497 115.499 289.322C115.682 289.143 115.823 288.921 115.922 288.656L117.055 288.974C116.936 289.358 116.736 289.696 116.454 289.988C116.172 290.276 115.824 290.502 115.41 290.664C114.996 290.823 114.53 290.903 114.013 290.903ZM121.207 290.923C120.723 290.923 120.284 290.831 119.889 290.649C119.495 290.464 119.182 290.197 118.95 289.849C118.718 289.497 118.602 289.073 118.602 288.576C118.602 288.139 118.688 287.784 118.86 287.512C119.033 287.237 119.263 287.022 119.551 286.866C119.84 286.71 120.158 286.594 120.506 286.518C120.857 286.438 121.21 286.375 121.565 286.329C122.029 286.269 122.405 286.224 122.693 286.195C122.985 286.162 123.197 286.107 123.33 286.031C123.466 285.954 123.533 285.822 123.533 285.633V285.593C123.533 285.103 123.399 284.721 123.131 284.45C122.866 284.178 122.463 284.042 121.923 284.042C121.363 284.042 120.923 284.165 120.605 284.41C120.287 284.655 120.063 284.917 119.934 285.195L118.82 284.798C119.019 284.334 119.284 283.972 119.616 283.714C119.951 283.452 120.315 283.27 120.71 283.167C121.107 283.061 121.498 283.008 121.883 283.008C122.128 283.008 122.41 283.038 122.728 283.097C123.05 283.154 123.359 283.271 123.658 283.45C123.959 283.629 124.21 283.899 124.408 284.261C124.607 284.622 124.707 285.106 124.707 285.712V290.744H123.533V289.71H123.474C123.394 289.875 123.262 290.053 123.076 290.242C122.89 290.43 122.644 290.591 122.335 290.724C122.027 290.856 121.651 290.923 121.207 290.923ZM121.386 289.869C121.85 289.869 122.241 289.778 122.559 289.595C122.881 289.413 123.122 289.178 123.285 288.889C123.451 288.601 123.533 288.298 123.533 287.979V286.906C123.484 286.965 123.374 287.02 123.205 287.07C123.04 287.116 122.847 287.157 122.629 287.194C122.413 287.227 122.203 287.257 121.997 287.283C121.795 287.307 121.631 287.327 121.505 287.343C121.2 287.383 120.915 287.447 120.65 287.537C120.388 287.623 120.176 287.754 120.014 287.93C119.854 288.102 119.775 288.337 119.775 288.636C119.775 289.043 119.926 289.352 120.227 289.56C120.532 289.766 120.918 289.869 121.386 289.869ZM130.169 283.107V284.102H126.212V283.107H130.169ZM127.365 281.278H128.539V288.556C128.539 288.888 128.587 289.136 128.683 289.302C128.782 289.464 128.908 289.574 129.061 289.63C129.216 289.683 129.38 289.71 129.553 289.71C129.682 289.71 129.788 289.703 129.871 289.69C129.954 289.673 130.02 289.66 130.07 289.65L130.309 290.704C130.229 290.734 130.118 290.764 129.975 290.793C129.833 290.827 129.652 290.843 129.434 290.843C129.102 290.843 128.777 290.772 128.459 290.629C128.144 290.487 127.882 290.27 127.674 289.978C127.468 289.686 127.365 289.318 127.365 288.874V281.278ZM135.054 290.903C134.318 290.903 133.683 290.74 133.15 290.416C132.619 290.087 132.21 289.63 131.922 289.043C131.637 288.453 131.494 287.767 131.494 286.985C131.494 286.203 131.637 285.514 131.922 284.917C132.21 284.317 132.611 283.85 133.125 283.515C133.642 283.177 134.245 283.008 134.935 283.008C135.332 283.008 135.725 283.074 136.113 283.207C136.501 283.339 136.854 283.555 137.172 283.853C137.49 284.148 137.744 284.539 137.932 285.026C138.121 285.514 138.216 286.113 138.216 286.826V287.323H132.329V286.309H137.023C137.023 285.878 136.936 285.494 136.764 285.156C136.595 284.818 136.353 284.551 136.038 284.355C135.727 284.16 135.359 284.062 134.935 284.062C134.467 284.062 134.063 284.178 133.722 284.41C133.383 284.639 133.123 284.937 132.941 285.305C132.759 285.673 132.668 286.067 132.668 286.488V287.164C132.668 287.741 132.767 288.23 132.966 288.631C133.168 289.028 133.448 289.332 133.806 289.541C134.164 289.746 134.58 289.849 135.054 289.849C135.362 289.849 135.641 289.806 135.889 289.72C136.141 289.63 136.358 289.497 136.54 289.322C136.723 289.143 136.864 288.921 136.963 288.656L138.097 288.974C137.977 289.358 137.777 289.696 137.495 289.988C137.213 290.276 136.865 290.502 136.451 290.664C136.037 290.823 135.571 290.903 135.054 290.903ZM144.694 293.607C144.495 293.607 144.318 293.591 144.162 293.558C144.006 293.528 143.898 293.498 143.839 293.468L144.137 292.434C144.422 292.507 144.674 292.533 144.893 292.514C145.111 292.494 145.305 292.396 145.474 292.22C145.647 292.048 145.804 291.768 145.947 291.38L146.165 290.783L143.342 283.107H144.614L146.722 289.193H146.802L148.91 283.107H150.182L146.941 291.857C146.795 292.252 146.614 292.578 146.399 292.837C146.184 293.099 145.933 293.292 145.648 293.418C145.367 293.544 145.048 293.607 144.694 293.607ZM154.56 290.903C153.871 290.903 153.266 290.739 152.745 290.411C152.228 290.082 151.824 289.623 151.532 289.033C151.244 288.443 151.1 287.754 151.1 286.965C151.1 286.17 151.244 285.475 151.532 284.882C151.824 284.289 152.228 283.828 152.745 283.5C153.266 283.172 153.871 283.008 154.56 283.008C155.249 283.008 155.853 283.172 156.37 283.5C156.89 283.828 157.294 284.289 157.583 284.882C157.874 285.475 158.02 286.17 158.02 286.965C158.02 287.754 157.874 288.443 157.583 289.033C157.294 289.623 156.89 290.082 156.37 290.411C155.853 290.739 155.249 290.903 154.56 290.903ZM154.56 289.849C155.084 289.849 155.514 289.715 155.853 289.446C156.191 289.178 156.441 288.825 156.603 288.387C156.766 287.95 156.847 287.476 156.847 286.965C156.847 286.455 156.766 285.979 156.603 285.538C156.441 285.098 156.191 284.741 155.853 284.47C155.514 284.198 155.084 284.062 154.56 284.062C154.036 284.062 153.605 284.198 153.267 284.47C152.929 284.741 152.679 285.098 152.517 285.538C152.354 285.979 152.273 286.455 152.273 286.965C152.273 287.476 152.354 287.95 152.517 288.387C152.679 288.825 152.929 289.178 153.267 289.446C153.605 289.715 154.036 289.849 154.56 289.849ZM164.624 287.621V283.107H165.797V290.744H164.624V289.451H164.544C164.365 289.839 164.087 290.169 163.709 290.44C163.331 290.709 162.854 290.843 162.277 290.843C161.8 290.843 161.376 290.739 161.004 290.53C160.633 290.318 160.341 290 160.129 289.575C159.917 289.148 159.811 288.609 159.811 287.96V283.107H160.984V287.88C160.984 288.437 161.14 288.881 161.452 289.212C161.767 289.544 162.168 289.71 162.655 289.71C162.947 289.71 163.243 289.635 163.545 289.486C163.85 289.337 164.105 289.108 164.31 288.8C164.519 288.492 164.624 288.099 164.624 287.621ZM167.946 290.744V283.107H169.079V284.261H169.159C169.298 283.883 169.55 283.576 169.915 283.341C170.279 283.106 170.69 282.988 171.148 282.988C171.234 282.988 171.342 282.99 171.471 282.993C171.6 282.996 171.698 283.001 171.764 283.008V284.201C171.724 284.191 171.633 284.176 171.491 284.156C171.351 284.133 171.204 284.121 171.048 284.121C170.677 284.121 170.346 284.199 170.054 284.355C169.766 284.508 169.537 284.72 169.368 284.992C169.202 285.26 169.119 285.567 169.119 285.911V290.744H167.946ZM179.34 290.923C178.856 290.923 178.417 290.831 178.022 290.649C177.628 290.464 177.314 290.197 177.082 289.849C176.85 289.497 176.734 289.073 176.734 288.576C176.734 288.139 176.821 287.784 176.993 287.512C177.165 287.237 177.396 287.022 177.684 286.866C177.972 286.71 178.291 286.594 178.639 286.518C178.99 286.438 179.343 286.375 179.698 286.329C180.162 286.269 180.538 286.224 180.826 286.195C181.118 286.162 181.33 286.107 181.462 286.031C181.598 285.954 181.666 285.822 181.666 285.633V285.593C181.666 285.103 181.532 284.721 181.264 284.45C180.998 284.178 180.596 284.042 180.055 284.042C179.495 284.042 179.056 284.165 178.738 284.41C178.42 284.655 178.196 284.917 178.067 285.195L176.953 284.798C177.152 284.334 177.417 283.972 177.749 283.714C178.083 283.452 178.448 283.27 178.842 283.167C179.24 283.061 179.631 283.008 180.016 283.008C180.261 283.008 180.543 283.038 180.861 283.097C181.182 283.154 181.492 283.271 181.791 283.45C182.092 283.629 182.342 283.899 182.541 284.261C182.74 284.622 182.84 285.106 182.84 285.712V290.744H181.666V289.71H181.607C181.527 289.875 181.395 290.053 181.209 290.242C181.023 290.43 180.776 290.591 180.468 290.724C180.16 290.856 179.784 290.923 179.34 290.923ZM179.519 289.869C179.983 289.869 180.374 289.778 180.692 289.595C181.013 289.413 181.255 289.178 181.418 288.889C181.583 288.601 181.666 288.298 181.666 287.979V286.906C181.617 286.965 181.507 287.02 181.338 287.07C181.172 287.116 180.98 287.157 180.761 287.194C180.546 287.227 180.336 287.257 180.13 287.283C179.928 287.307 179.764 287.327 179.638 287.343C179.333 287.383 179.048 287.447 178.783 287.537C178.521 287.623 178.309 287.754 178.146 287.93C177.987 288.102 177.908 288.337 177.908 288.636C177.908 289.043 178.059 289.352 178.36 289.56C178.665 289.766 179.051 289.869 179.519 289.869ZM188.083 290.903C187.367 290.903 186.751 290.734 186.234 290.396C185.717 290.058 185.319 289.592 185.041 288.999C184.762 288.405 184.623 287.728 184.623 286.965C184.623 286.19 184.766 285.505 185.051 284.912C185.339 284.315 185.74 283.85 186.254 283.515C186.771 283.177 187.374 283.008 188.063 283.008C188.6 283.008 189.084 283.107 189.515 283.306C189.946 283.505 190.299 283.783 190.574 284.141C190.849 284.499 191.02 284.917 191.086 285.394H189.913C189.823 285.046 189.625 284.738 189.316 284.47C189.011 284.198 188.6 284.062 188.083 284.062C187.626 284.062 187.225 284.181 186.88 284.42C186.539 284.655 186.272 284.988 186.08 285.419C185.891 285.847 185.796 286.349 185.796 286.925C185.796 287.515 185.889 288.029 186.075 288.467C186.264 288.904 186.529 289.244 186.87 289.486C187.215 289.728 187.619 289.849 188.083 289.849C188.388 289.849 188.665 289.796 188.914 289.69C189.162 289.584 189.373 289.431 189.545 289.232C189.717 289.033 189.84 288.795 189.913 288.516H191.086C191.02 288.967 190.856 289.373 190.594 289.734C190.335 290.092 189.992 290.377 189.565 290.59C189.141 290.798 188.647 290.903 188.083 290.903ZM196.122 283.107V284.102H192.165V283.107H196.122ZM193.318 281.278H194.492V288.556C194.492 288.888 194.54 289.136 194.636 289.302C194.735 289.464 194.861 289.574 195.014 289.63C195.17 289.683 195.334 289.71 195.506 289.71C195.635 289.71 195.741 289.703 195.824 289.69C195.907 289.673 195.973 289.66 196.023 289.65L196.262 290.704C196.182 290.734 196.071 290.764 195.929 290.793C195.786 290.827 195.605 290.843 195.387 290.843C195.055 290.843 194.73 290.772 194.412 290.629C194.097 290.487 193.835 290.27 193.627 289.978C193.421 289.686 193.318 289.318 193.318 288.874V281.278ZM197.887 290.744V283.107H199.061V290.744H197.887ZM198.484 281.835C198.255 281.835 198.058 281.757 197.892 281.601C197.73 281.445 197.649 281.258 197.649 281.039C197.649 280.82 197.73 280.633 197.892 280.477C198.058 280.322 198.255 280.244 198.484 280.244C198.713 280.244 198.908 280.322 199.071 280.477C199.236 280.633 199.319 280.82 199.319 281.039C199.319 281.258 199.236 281.445 199.071 281.601C198.908 281.757 198.713 281.835 198.484 281.835ZM207.454 283.107L204.63 290.744H203.437L200.613 283.107H201.886L203.994 289.193H204.073L206.181 283.107H207.454ZM209.003 290.744V283.107H210.176V290.744H209.003ZM209.599 281.835C209.37 281.835 209.173 281.757 209.008 281.601C208.845 281.445 208.764 281.258 208.764 281.039C208.764 280.82 208.845 280.633 209.008 280.477C209.173 280.322 209.37 280.244 209.599 280.244C209.828 280.244 210.023 280.322 210.186 280.477C210.352 280.633 210.434 280.82 210.434 281.039C210.434 281.258 210.352 281.445 210.186 281.601C210.023 281.757 209.828 281.835 209.599 281.835ZM215.646 283.107V284.102H211.688V283.107H215.646ZM212.842 281.278H214.015V288.556C214.015 288.888 214.063 289.136 214.159 289.302C214.259 289.464 214.385 289.574 214.537 289.63C214.693 289.683 214.857 289.71 215.029 289.71C215.159 289.71 215.265 289.703 215.348 289.69C215.43 289.673 215.497 289.66 215.546 289.65L215.785 290.704C215.706 290.734 215.594 290.764 215.452 290.793C215.309 290.827 215.129 290.843 214.91 290.843C214.579 290.843 214.254 290.772 213.936 290.629C213.621 290.487 213.359 290.27 213.15 289.978C212.945 289.686 212.842 289.318 212.842 288.874V281.278ZM218.166 293.607C217.968 293.607 217.79 293.591 217.634 293.558C217.479 293.528 217.371 293.498 217.311 293.468L217.61 292.434C217.895 292.507 218.147 292.533 218.365 292.514C218.584 292.494 218.778 292.396 218.947 292.22C219.119 292.048 219.277 291.768 219.419 291.38L219.638 290.783L216.814 283.107H218.087L220.195 289.193H220.274L222.382 283.107H223.655L220.414 291.857C220.268 292.252 220.087 292.578 219.872 292.837C219.656 293.099 219.406 293.292 219.121 293.418C218.839 293.544 218.521 293.607 218.166 293.607ZM232.224 293.766C231.657 293.766 231.17 293.693 230.762 293.548C230.354 293.405 230.015 293.216 229.743 292.981C229.474 292.749 229.261 292.5 229.101 292.235L230.036 291.579C230.142 291.718 230.276 291.877 230.439 292.056C230.601 292.238 230.823 292.396 231.105 292.528C231.39 292.664 231.763 292.732 232.224 292.732C232.84 292.732 233.349 292.583 233.75 292.285C234.151 291.987 234.351 291.519 234.351 290.883V289.332H234.252C234.166 289.471 234.043 289.643 233.884 289.849C233.728 290.051 233.503 290.232 233.208 290.391C232.916 290.546 232.522 290.624 232.025 290.624C231.408 290.624 230.855 290.479 230.364 290.187C229.877 289.895 229.491 289.471 229.206 288.914C228.924 288.357 228.783 287.681 228.783 286.886C228.783 286.104 228.921 285.422 229.196 284.842C229.471 284.259 229.854 283.808 230.344 283.49C230.835 283.169 231.402 283.008 232.045 283.008C232.542 283.008 232.936 283.091 233.228 283.256C233.523 283.419 233.748 283.604 233.904 283.813C234.063 284.019 234.186 284.188 234.272 284.32H234.391V283.107H235.525V290.962C235.525 291.619 235.376 292.152 235.077 292.563C234.782 292.978 234.385 293.281 233.884 293.473C233.387 293.669 232.833 293.766 232.224 293.766ZM232.184 289.57C232.655 289.57 233.052 289.463 233.377 289.247C233.702 289.032 233.949 288.722 234.118 288.318C234.287 287.913 234.371 287.429 234.371 286.866C234.371 286.316 234.289 285.83 234.123 285.409C233.957 284.988 233.712 284.658 233.387 284.42C233.062 284.181 232.661 284.062 232.184 284.062C231.687 284.062 231.272 284.188 230.941 284.44C230.613 284.692 230.366 285.03 230.2 285.454C230.038 285.878 229.957 286.349 229.957 286.866C229.957 287.396 230.039 287.865 230.205 288.273C230.374 288.677 230.623 288.995 230.951 289.227C231.282 289.456 231.693 289.57 232.184 289.57ZM237.672 290.744V283.107H238.806V284.261H238.886C239.025 283.883 239.277 283.576 239.641 283.341C240.006 283.106 240.417 282.988 240.874 282.988C240.96 282.988 241.068 282.99 241.197 282.993C241.327 282.996 241.424 283.001 241.491 283.008V284.201C241.451 284.191 241.36 284.176 241.217 284.156C241.078 284.133 240.931 284.121 240.775 284.121C240.404 284.121 240.072 284.199 239.78 284.355C239.492 284.508 239.263 284.72 239.094 284.992C238.929 285.26 238.846 285.567 238.846 285.911V290.744H237.672ZM245.129 290.923C244.645 290.923 244.206 290.831 243.811 290.649C243.417 290.464 243.104 290.197 242.872 289.849C242.64 289.497 242.524 289.073 242.524 288.576C242.524 288.139 242.61 287.784 242.782 287.512C242.954 287.237 243.185 287.022 243.473 286.866C243.761 286.71 244.08 286.594 244.428 286.518C244.779 286.438 245.132 286.375 245.487 286.329C245.951 286.269 246.327 286.224 246.615 286.195C246.907 286.162 247.119 286.107 247.252 286.031C247.387 285.954 247.455 285.822 247.455 285.633V285.593C247.455 285.103 247.321 284.721 247.053 284.45C246.787 284.178 246.385 284.042 245.845 284.042C245.284 284.042 244.845 284.165 244.527 284.41C244.209 284.655 243.985 284.917 243.856 285.195L242.742 284.798C242.941 284.334 243.206 283.972 243.538 283.714C243.872 283.452 244.237 283.27 244.631 283.167C245.029 283.061 245.42 283.008 245.805 283.008C246.05 283.008 246.332 283.038 246.65 283.097C246.971 283.154 247.281 283.271 247.58 283.45C247.881 283.629 248.131 283.899 248.33 284.261C248.529 284.622 248.629 285.106 248.629 285.712V290.744H247.455V289.71H247.396C247.316 289.875 247.184 290.053 246.998 290.242C246.812 290.43 246.565 290.591 246.257 290.724C245.949 290.856 245.573 290.923 245.129 290.923ZM245.308 289.869C245.772 289.869 246.163 289.778 246.481 289.595C246.802 289.413 247.044 289.178 247.207 288.889C247.372 288.601 247.455 288.298 247.455 287.979V286.906C247.406 286.965 247.296 287.02 247.127 287.07C246.961 287.116 246.769 287.157 246.551 287.194C246.335 287.227 246.125 287.257 245.919 287.283C245.717 287.307 245.553 287.327 245.427 287.343C245.122 287.383 244.837 287.447 244.572 287.537C244.31 287.623 244.098 287.754 243.935 287.93C243.776 288.102 243.697 288.337 243.697 288.636C243.697 289.043 243.848 289.352 244.149 289.56C244.454 289.766 244.84 289.869 245.308 289.869ZM250.77 293.607V283.107H251.904V284.32H252.043C252.129 284.188 252.248 284.019 252.401 283.813C252.557 283.604 252.779 283.419 253.067 283.256C253.359 283.091 253.753 283.008 254.25 283.008C254.893 283.008 255.46 283.169 255.951 283.49C256.441 283.812 256.824 284.267 257.099 284.857C257.374 285.447 257.512 286.143 257.512 286.945C257.512 287.754 257.374 288.455 257.099 289.048C256.824 289.638 256.443 290.096 255.956 290.42C255.468 290.742 254.907 290.903 254.27 290.903C253.78 290.903 253.387 290.822 253.092 290.659C252.797 290.493 252.57 290.306 252.411 290.097C252.252 289.885 252.129 289.71 252.043 289.57H251.943V293.607H250.77ZM251.924 286.925C251.924 287.502 252.008 288.011 252.177 288.452C252.346 288.889 252.593 289.232 252.918 289.481C253.243 289.726 253.64 289.849 254.111 289.849C254.602 289.849 255.011 289.72 255.339 289.461C255.67 289.199 255.919 288.848 256.085 288.407C256.254 287.963 256.338 287.469 256.338 286.925C256.338 286.389 256.255 285.905 256.09 285.474C255.927 285.04 255.68 284.697 255.349 284.445C255.021 284.189 254.608 284.062 254.111 284.062C253.634 284.062 253.233 284.183 252.908 284.425C252.583 284.663 252.338 284.998 252.172 285.429C252.006 285.857 251.924 286.355 251.924 286.925ZM260.475 286.15V290.744H259.301V280.562H260.475V284.3H260.574C260.753 283.906 261.022 283.593 261.38 283.361C261.741 283.126 262.221 283.008 262.821 283.008C263.342 283.008 263.797 283.112 264.188 283.321C264.58 283.527 264.883 283.843 265.098 284.271C265.317 284.695 265.426 285.235 265.426 285.891V290.744H264.253V285.971C264.253 285.364 264.096 284.895 263.781 284.564C263.469 284.229 263.037 284.062 262.483 284.062C262.099 284.062 261.754 284.143 261.449 284.305C261.148 284.468 260.909 284.705 260.733 285.016C260.561 285.328 260.475 285.706 260.475 286.15ZM268.428 290.823C268.183 290.823 267.972 290.735 267.797 290.56C267.621 290.384 267.533 290.174 267.533 289.928C267.533 289.683 267.621 289.473 267.797 289.297C267.972 289.121 268.183 289.033 268.428 289.033C268.673 289.033 268.884 289.121 269.059 289.297C269.235 289.473 269.323 289.683 269.323 289.928C269.323 290.091 269.281 290.24 269.199 290.376C269.119 290.512 269.011 290.621 268.875 290.704C268.743 290.783 268.594 290.823 268.428 290.823Z" fill="#667085"/>
<defs>
<clipPath id="clip0_3036_396">
<rect width="69.3205" height="54.5218" fill="white" transform="translate(141.984 115.067)"/>
</clipPath>
</defs>
</svg>
