<svg width="181" height="181" viewBox="0 0 181 181" fill="none" xmlns="http://www.w3.org/2000/svg">
<g opacity="0.4">
<path d="M179.255 94.4082C179.605 91.2917 179.445 88.0973 178.578 85.1161C177.723 82.1554 176.138 79.3916 173.885 77.5299C173.328 77.0624 172.737 76.6524 172.122 76.2956C171.503 75.9471 170.855 75.6723 170.199 75.4509C168.887 75.008 167.512 74.8522 166.163 74.9137C163.451 75.0572 160.838 76.0783 158.465 77.5463C158.32 77.6365 158.155 77.7349 158.032 77.821L157.689 78.0753C157.466 78.2598 157.243 78.4321 157.029 78.633C156.595 79.0184 156.178 79.4531 155.782 79.937C154.99 80.8842 154.243 81.9791 153.578 83.1642C152.22 85.5344 151.065 88.2162 149.979 90.9842C147.82 96.5529 145.922 102.495 143.792 108.502C143.26 110.007 142.707 111.516 142.129 113.029C141.563 114.547 140.952 116.064 140.317 117.589C139.033 120.64 137.642 123.695 135.752 126.791C135.273 127.566 134.757 128.345 134.163 129.129C133.866 129.518 133.54 129.916 133.197 130.301C132.85 130.679 132.495 131.035 132.128 131.376C130.65 132.741 129.016 133.787 127.386 134.615C124.113 136.28 120.852 137.174 117.711 138.101C114.562 138.991 111.487 139.848 108.532 140.947C105.585 142.037 102.757 143.37 100.203 145.043C97.6394 146.704 95.3859 148.754 93.5615 151.104C91.7455 153.466 90.3092 156.103 89.6653 158.76C89.3433 160.084 89.203 161.397 89.2773 162.635C89.3599 163.869 89.6488 165.018 90.1358 166.006C91.0934 167.99 92.7526 169.315 94.7172 169.951C95.6995 170.279 96.7644 170.43 97.8623 170.447C98.9643 170.447 100.103 170.311 101.251 170.033C101.536 169.963 101.825 169.881 102.109 169.795L103.133 169.487C103.81 169.274 104.483 169.053 105.147 168.807C106.476 168.319 107.776 167.773 109.072 167.154C111.66 165.924 114.244 164.37 117.108 162.717C119.96 161.06 123.13 159.383 126.506 158.038C129.891 156.718 133.416 155.705 136.936 155.065C137.378 154.975 137.816 154.913 138.257 154.84L139.438 154.651C140.09 154.54 140.75 154.413 141.415 154.274C142.735 153.983 144.052 153.626 145.34 153.208C150.495 151.522 155.138 148.849 158.671 145.08C160.454 143.206 162.023 141.09 163.352 138.72C164.025 137.539 164.64 136.292 165.176 134.988C165.733 133.688 166.204 132.327 166.637 130.929C167.058 129.526 167.426 128.083 167.723 126.603C167.867 125.91 168.02 124.999 168.177 124.179C168.35 123.342 168.523 122.51 168.722 121.686C169.522 118.385 170.542 115.182 171.768 112.103C172.969 109.015 174.368 106.054 175.767 103.147C176.473 101.691 177.174 100.248 177.818 98.8C178.454 97.3525 179.057 95.8722 179.255 94.4164V94.4082ZM180.493 94.5394C180.402 95.4088 180.179 96.2166 179.94 97.008C179.7 97.7995 179.416 98.5622 179.139 99.3208C178.578 100.838 177.996 102.331 177.48 103.84C176.956 105.345 176.485 106.862 176.085 108.391C175.684 109.921 175.379 111.467 175.123 113.009C174.64 116.105 174.475 119.213 174.62 122.285C174.648 123.051 174.706 123.818 174.764 124.577C174.838 125.356 174.917 126.045 174.991 126.947C175.135 128.665 175.197 130.412 175.148 132.175C175.057 135.702 174.521 139.323 173.369 142.866C172.226 146.401 170.455 149.849 168.102 152.888C165.754 155.93 162.881 158.575 159.736 160.728C156.587 162.885 153.174 164.558 149.649 165.776C147.886 166.391 146.091 166.887 144.263 167.281C143.35 167.482 142.426 167.646 141.489 167.781L139.215 168.109C136.383 168.56 133.647 169.163 130.985 170.061C128.306 170.918 125.685 172.091 122.854 173.448C120.035 174.802 116.972 176.36 113.633 177.652C111.97 178.295 110.253 178.882 108.507 179.358C107.636 179.595 106.757 179.809 105.878 180.001L104.557 180.272C104.058 180.358 103.554 180.44 103.046 180.506C101.016 180.76 98.9107 180.776 96.8057 180.44C94.7048 180.12 92.6081 179.448 90.6765 178.398C88.749 177.348 87.0031 175.905 85.6411 174.17C84.2708 172.444 83.2926 170.434 82.7849 168.376C82.2648 166.317 82.1988 164.23 82.4547 162.27C82.7024 160.306 83.2678 158.465 84.0149 156.771C85.5503 153.388 87.6965 150.567 90.0904 148.102C91.2873 146.856 92.5875 145.724 93.9289 144.662C95.2827 143.616 96.6942 142.657 98.143 141.787C103.95 138.302 110.315 136.305 116.155 133.779C119.065 132.532 121.867 131.121 124.067 129.379C125.157 128.501 126.077 127.546 126.766 126.537C126.94 126.287 127.097 126.028 127.245 125.77C127.39 125.516 127.526 125.257 127.662 124.975C127.939 124.409 128.199 123.781 128.446 123.129C128.942 121.821 129.375 120.394 129.779 118.938C130.205 117.487 130.576 115.986 130.968 114.477L132.132 109.901C132.524 108.359 132.925 106.813 133.354 105.263C135.083 99.0625 137.089 92.768 140.168 86.6252C141.728 83.562 143.549 80.5275 145.963 77.6939C146.578 76.9927 147.214 76.2997 147.911 75.6354C148.596 74.967 149.335 74.3232 150.136 73.7286C150.928 73.1299 151.783 72.5722 152.699 72.0883C153.145 71.8382 153.632 71.6249 154.111 71.4158L154.849 71.1288C155.089 71.0427 155.295 70.9811 155.518 70.9073C157.276 70.3496 159.105 69.9437 160.974 69.7673C162.844 69.591 164.755 69.6566 166.612 70.0175C168.47 70.366 170.257 71.055 171.854 71.9899C172.651 72.4615 173.398 72.9987 174.079 73.5974C174.768 74.1838 175.396 74.8276 175.961 75.5083C178.227 78.2475 179.494 81.4911 180.138 84.7307C180.782 87.9866 180.815 91.2876 180.485 94.5271L180.493 94.5394Z" fill="#EAECF0"/>
<path d="M56.1044 14.9696C59.7572 14.453 63.2985 13.3048 66.6995 11.849C70.1087 10.4056 73.39 8.66692 76.7001 6.89133C78.3635 6.01789 80.0227 5.11165 81.7397 4.26281C83.4567 3.40167 85.2232 2.58154 87.1136 1.88853C89.0039 1.20372 91.0181 0.625523 93.251 0.391785C95.4633 0.162148 97.9563 0.313872 100.387 1.19141C100.99 1.40465 101.572 1.6958 102.166 1.96234C102.732 2.26989 103.289 2.60614 103.842 2.9465C104.358 3.31966 104.874 3.70922 105.373 4.11108C105.835 4.53345 106.294 4.96402 106.752 5.39869C108.419 7.08406 109.839 9.07289 110.958 11.1847C112.084 13.3007 112.864 15.5396 113.409 17.7458C113.942 19.9601 114.243 22.1417 114.392 24.2658C114.685 28.5141 114.453 32.5246 114.169 36.3382L113.715 41.9438C113.64 42.8582 113.591 43.7604 113.529 44.6584L113.451 45.9952L113.397 47.3157C113.36 49.0666 113.339 50.7807 113.471 52.4456C113.57 54.1145 113.818 55.7507 114.177 57.2557C114.557 58.8139 115.163 60.4419 115.886 62.0739C116.612 63.7101 117.442 65.3627 118.341 67.0152C120.141 70.3327 122.18 73.646 124.169 77.0659L125.647 79.6576C126.126 80.5392 126.6 81.4249 127.05 82.3312C127.971 84.1355 128.792 86.0218 129.448 88.0106C130.088 89.9994 130.538 92.1277 130.521 94.3174C130.513 96.5031 129.989 98.7092 129.031 100.624C128.565 101.596 127.967 102.461 127.347 103.302L126.357 104.491C126.018 104.868 125.672 105.209 125.325 105.57C123.913 106.964 122.39 108.256 120.731 109.379C119.06 110.474 117.293 111.45 115.428 112.209C114.957 112.389 114.499 112.602 114.02 112.762L112.584 113.246C111.614 113.517 110.636 113.796 109.645 113.992C105.683 114.833 101.58 115.013 97.5394 114.661C95.517 114.493 93.5028 114.222 91.5134 113.824C89.5157 113.455 87.5552 112.939 85.6112 112.377C84.6495 112.073 83.6713 111.794 82.7179 111.454L81.2816 110.958L79.8617 110.425C77.9755 109.695 76.1223 108.895 74.2939 108.034C73.3858 107.599 72.4819 107.148 71.578 106.701C70.6907 106.234 69.795 105.758 68.9159 105.27C68.045 104.77 67.1576 104.29 66.2991 103.769C65.4447 103.24 64.5738 102.736 63.7318 102.187L58.878 99.0701C58.0897 98.5616 57.289 98.0859 56.4965 97.5898L55.3037 96.8557L54.1026 96.1463C47.701 92.3122 41.122 89.0194 34.353 86.0095C30.9438 84.5087 27.5057 83.0652 23.8612 81.4332C22.041 80.6253 20.1795 79.715 18.252 78.6406C16.3411 77.5539 14.3516 76.2868 12.4696 74.6876C10.5833 73.1047 8.83331 71.2061 7.40936 69.1804C5.96064 67.1588 4.86688 65.0305 3.95885 62.9474C3.48008 61.9017 3.11687 60.8683 2.73302 59.8268C2.55141 59.3101 2.39457 58.7975 2.22535 58.2849C2.06025 57.7723 1.89103 57.2639 1.7507 56.7103L1.32145 55.0823L1.11508 54.2663L0.954108 53.4215C0.747738 52.2939 0.524859 51.1867 0.446438 50.0098C0.392782 49.4316 0.334998 48.8534 0.297852 48.2711V46.4955V45.6098C0.306106 45.3145 0.34738 45.0152 0.372145 44.7158L0.55375 42.9361C0.644553 42.3456 0.784885 41.7511 0.900452 41.1647L1.09031 40.2871C1.16461 39.996 1.26366 39.7089 1.35034 39.4219C1.53194 38.8478 1.70942 38.2778 1.90341 37.7119C2.13454 37.1583 2.37806 36.6129 2.62158 36.0716C3.66168 33.9434 4.93705 31.9587 6.48482 30.3266L7.04615 29.6992C7.24014 29.5024 7.44651 29.3137 7.64462 29.1251C8.04911 28.7479 8.44534 28.3624 8.85395 28.0056C9.70832 27.3413 10.5338 26.636 11.4253 26.0783C13.163 24.8604 15.0079 23.946 16.8363 23.0807C18.6895 22.277 20.5386 21.5471 22.4166 20.9771C26.1601 19.792 29.9202 18.9473 33.672 18.2543C34.6131 18.0902 35.5458 17.9016 36.4869 17.7622C37.4238 17.6105 38.3566 17.4341 39.2935 17.2988C40.2304 17.1512 41.1674 17.0159 42.1002 16.8805L44.9027 16.4746L56.0879 14.9573L56.1044 14.9696ZM56.3108 16.1834C52.6044 16.7165 48.9269 17.389 45.2989 18.2461L43.941 18.57L42.5913 18.9268C41.6874 19.1523 40.8 19.4271 39.9126 19.6936C38.1296 20.2103 36.3796 20.8172 34.6502 21.4569C31.1956 22.7445 27.8606 24.2945 24.7857 26.1275C23.2338 27.0215 21.7892 28.0384 20.4024 29.0759C19.0569 30.1585 17.7568 31.2575 16.6671 32.4754C16.081 33.0494 15.6188 33.7056 15.107 34.3084L14.4424 35.2679C14.3351 35.4278 14.2196 35.5796 14.1123 35.7395L13.8357 36.2357C13.0474 37.5274 12.5232 38.8806 12.1435 40.2379C12.0651 40.5824 11.9825 40.9227 11.8876 41.259L11.7307 42.3005C11.706 42.4728 11.6688 42.6409 11.6523 42.8172L11.6317 43.3503C11.6193 43.7071 11.5863 44.0515 11.5822 44.4042L11.6193 45.4827C11.6276 45.6631 11.6193 45.8353 11.6399 46.0198L11.7101 46.5693L11.8298 47.6642L12.0527 48.7837C12.3251 50.2722 12.7956 51.8018 13.3239 53.3354C13.4354 53.7127 13.6005 54.1145 13.7573 54.5123C13.9141 54.906 14.0627 55.3119 14.2237 55.6974C14.5663 56.4478 14.88 57.227 15.2432 57.9241C15.9531 59.3511 16.7166 60.6469 17.5669 61.7418C18.4213 62.8449 19.3417 63.788 20.4313 64.6615C22.5858 66.4001 25.5493 67.9215 28.8884 69.4879C30.5476 70.2712 32.2728 71.0544 34.0311 71.8622C35.7852 72.6577 37.5518 73.523 39.3224 74.3841C46.4215 77.8697 53.3638 81.9211 59.9223 86.3909L61.1564 87.2233L62.3739 88.0762C63.1829 88.6503 64.0043 89.208 64.8008 89.7903L69.4689 93.2144C70.9589 94.2969 72.4654 95.3467 73.9843 96.3842L76.2792 97.8973C77.051 98.3853 77.8228 98.8774 78.5987 99.3571C80.163 100.288 81.7273 101.235 83.3329 102.076L84.5298 102.724L85.7392 103.339C86.544 103.761 87.3653 104.118 88.1826 104.512C91.468 105.98 94.8359 107.239 98.2864 108.038C100.012 108.457 101.749 108.707 103.491 108.879C105.237 109.063 106.979 109.039 108.704 108.895C112.163 108.621 115.506 107.575 118.507 105.865C119.992 104.987 121.392 103.95 122.667 102.761C122.977 102.457 123.311 102.162 123.604 101.85L124.438 100.915C124.933 100.255 125.412 99.5868 125.767 98.861C126.51 97.4298 126.885 95.847 126.856 94.2067C126.836 92.5665 126.435 90.877 125.791 89.2326C125.156 87.58 124.273 85.9767 123.315 84.3979C122.333 82.8315 121.251 81.2937 120.1 79.7806C117.805 76.7502 115.295 73.7936 112.836 70.6402C111.61 69.0574 110.404 67.413 109.261 65.6579C108.122 63.9028 107.037 62.0329 106.137 59.9457C104.325 55.6728 103.623 51.3548 103.322 47.1967C102.777 38.9052 103.842 31.2739 103.689 24.434C103.619 21.0222 103.239 17.8729 102.24 15.0845C101.745 13.682 101.064 12.3739 100.222 11.1109C99.4339 9.95453 98.5671 9.01958 97.4857 8.34297C96.4126 7.65816 95.0795 7.18658 93.5358 7.00205C91.9963 6.80932 90.2958 6.87903 88.5664 7.10867C86.8329 7.33831 85.0623 7.71967 83.2833 8.17074C81.5168 8.65052 79.7338 9.1795 77.9631 9.7659C74.4136 10.9182 70.8888 12.2304 67.3062 13.4032C63.7277 14.5842 60.0832 15.6216 56.3067 16.1875L56.3108 16.1834Z" fill="#EAECF0"/>
<path d="M73.2504 154.454C71.9792 154.778 70.7822 154.975 69.6142 155.106C69.0281 155.184 68.4626 155.225 67.8889 155.274C67.3276 155.307 66.758 155.34 66.2049 155.348C65.0905 155.393 64.0092 155.36 62.9278 155.328C58.6312 155.16 54.5244 154.503 50.4796 153.884L49.0432 153.671L48.4076 153.577L47.7555 153.527C47.3221 153.486 46.8681 153.499 46.4182 153.486C45.9642 153.507 45.506 153.523 45.0396 153.56C44.5732 153.601 44.111 153.642 43.6363 153.72C43.1699 153.786 42.6953 153.864 42.2165 153.954C41.2713 154.147 40.3055 154.352 39.3521 154.614C35.4971 155.627 31.6875 157.124 27.4363 158.092C25.2983 158.539 23.0034 158.867 20.5683 158.608C19.3466 158.51 18.129 158.202 16.9279 157.813C16.3418 157.595 15.7392 157.374 15.182 157.091C14.8972 156.952 14.6042 156.82 14.3318 156.673L13.5228 156.197C12.4414 155.553 11.4715 154.795 10.5428 153.995C10.0723 153.589 9.62241 153.097 9.16427 152.638C8.71851 152.162 8.34705 151.649 7.93843 151.141C7.5422 150.632 7.22439 150.099 6.87356 149.562C6.69609 149.296 6.55575 149.021 6.40717 148.75L5.96966 147.922L5.75504 147.504L5.57343 147.081L5.21848 146.228C4.96258 145.662 4.7851 145.092 4.59937 144.514C3.86469 142.218 3.47259 139.88 3.34464 137.572C3.2332 135.267 3.3694 132.983 3.72023 130.752C4.07519 128.526 4.6943 126.361 5.48676 124.273C5.69313 123.753 5.90775 123.24 6.12238 122.727C6.34938 122.219 6.60528 121.719 6.8488 121.218C7.08819 120.718 7.35647 120.226 7.63301 119.742C7.90954 119.258 8.17782 118.774 8.48325 118.303C9.6513 116.417 11.0175 114.645 12.4621 112.992C13.919 111.344 15.4668 109.802 17.1384 108.433C18.7976 107.059 20.5353 105.82 22.3843 104.795C24.2334 103.778 26.2022 102.995 28.2618 102.552C30.3378 102.113 32.5501 102.163 34.651 102.7C36.7518 103.225 38.7495 104.151 40.6357 105.226C44.404 107.403 47.8628 110.114 51.045 112.96C52.6423 114.391 54.1406 115.879 55.5645 117.409C55.7626 117.639 55.8782 117.7 56.0061 117.819L56.3776 118.143C56.6665 118.336 56.8853 118.561 57.1866 118.737L57.5952 119.025C57.7438 119.115 57.8965 119.197 58.0368 119.295C58.3092 119.488 58.6559 119.644 58.9449 119.828C60.2202 120.529 61.6689 121.21 63.3405 121.87L65.9697 122.9L67.3771 123.449L68.8465 124.052C69.8412 124.45 70.8895 124.95 71.9544 125.475C73.0275 126.041 74.1337 126.652 75.2481 127.427C76.3666 128.222 77.4934 129.096 78.5417 130.223C79.5818 131.331 80.5559 132.606 81.2906 134.021L81.5754 134.546L81.8189 135.087C81.9757 135.448 82.1408 135.809 82.2812 136.173C82.5206 136.899 82.7888 137.646 82.9292 138.371L83.1603 139.466L83.3006 140.532C83.408 141.258 83.4121 141.931 83.4368 142.62C83.4451 142.804 83.4492 142.944 83.4492 143.153C83.4492 143.432 83.4327 143.706 83.4121 143.985C83.3956 144.527 83.2883 145.121 83.1603 145.699C83.1314 145.839 83.0984 145.986 83.0571 146.126L82.9168 146.565C82.8177 146.852 82.7146 147.139 82.6072 147.422C82.3596 147.971 82.0748 148.516 81.757 149.009C81.5919 149.246 81.4227 149.484 81.2493 149.714C81.1626 149.833 81.0718 149.948 80.9852 150.054L80.7086 150.358C80.527 150.555 80.3372 150.747 80.1432 150.94C79.9533 151.133 79.7676 151.272 79.5736 151.44C79.3837 151.596 79.1898 151.756 78.9958 151.9L78.4303 152.281C78.2404 152.4 78.0465 152.539 77.8607 152.638L77.3118 152.937C75.8424 153.7 74.501 154.126 73.2298 154.454H73.2504Z" fill="#EAECF0"/>
<path d="M131.797 49.1903C131.554 47.7919 131.476 46.4674 131.513 45.1839C131.55 42.6169 132.132 40.2672 132.772 37.9791C133.42 35.6868 134.204 33.456 135.186 31.3073C136.185 29.1667 137.407 27.1123 138.925 25.2301C140.448 23.352 142.199 21.5887 144.287 20.0838C146.388 18.6034 148.992 17.5168 151.852 17.0903C153.276 16.8812 154.762 16.8401 156.211 17.0042C157.656 17.1764 159.051 17.5414 160.268 18.0909C161.498 18.6321 162.547 19.321 163.45 20.051C164.363 20.785 165.151 21.5641 165.915 22.3432C166.315 22.7779 166.674 23.2454 166.992 23.7498C167.289 24.2623 167.537 24.8036 167.751 25.3695C168.147 26.4972 168.399 27.6987 168.56 28.9248C168.886 31.377 168.956 33.9973 168.643 36.511C168.329 39.0206 167.549 41.3621 166.319 43.3591C165.089 45.3561 163.479 47.0538 161.581 48.4111C159.69 49.7808 157.47 50.7608 155.295 51.6548C153.087 52.5241 150.953 53.3442 148.922 54.2956C146.854 55.2141 144.927 56.309 142.454 57.0717C141.831 57.2563 141.171 57.4285 140.428 57.5064C139.697 57.6007 138.892 57.6171 138.017 57.4695C137.076 57.3137 135.95 56.7888 135.12 56.0671C134.918 55.8867 134.707 55.6939 134.534 55.4971C134.361 55.3044 134.191 55.1034 134.026 54.8943C133.741 54.5006 133.457 54.0742 133.259 53.6846C133.027 53.2663 132.871 52.8973 132.701 52.4913C132.561 52.1222 132.404 51.7163 132.305 51.3595L132.144 50.8018L132.008 50.2605C131.921 49.8956 131.859 49.5511 131.793 49.1985L131.797 49.1903Z" fill="#EAECF0"/>
</g>
<path d="M41.3696 168.72C44.5394 171.87 49.6822 171.87 52.852 168.72C56.0218 165.571 56.0218 160.462 52.852 157.312C49.6822 154.163 44.5394 154.163 41.3696 157.312C38.1997 160.462 38.1997 165.571 41.3696 168.72Z" fill="#EAECF0"/>
<path d="M50.0618 158.231C50.0907 158.608 49.9751 158.998 49.7605 159.326C49.55 159.658 49.2322 159.925 48.8772 160.101C48.514 160.273 48.0724 160.335 47.6844 160.203C47.3005 160.08 46.9786 159.826 46.7764 159.51C47.0818 159.728 47.4161 159.879 47.7504 159.937C47.9197 159.966 48.0848 159.97 48.2498 159.937C48.4149 159.916 48.5718 159.855 48.7245 159.785C48.7988 159.748 48.8772 159.707 48.9515 159.662C49.0217 159.613 49.096 159.572 49.162 159.514C49.3023 159.416 49.422 159.289 49.5376 159.162C49.7646 158.899 49.9421 158.584 50.0618 158.227V158.231Z" fill="#D0D5DD"/>
<path d="M47.1436 158.694C47.1023 158.436 47.1725 158.157 47.3128 157.923C47.4531 157.686 47.6719 157.493 47.9237 157.37C48.1796 157.243 48.5015 157.21 48.7698 157.308C49.0381 157.403 49.2568 157.591 49.3765 157.825C49.1495 157.694 48.9225 157.604 48.7037 157.579C48.4809 157.546 48.2745 157.599 48.0764 157.69C47.6678 157.887 47.3458 158.219 47.1395 158.694H47.1436Z" fill="#D0D5DD"/>
<path d="M47.1064 166.81C47.2096 167.043 47.2096 167.322 47.1271 167.576C47.0445 167.831 46.8753 168.068 46.6565 168.228C46.4337 168.401 46.1324 168.487 45.8558 168.442C45.5834 168.401 45.3399 168.265 45.1748 168.068C45.4183 168.142 45.6536 168.179 45.8682 168.167C46.087 168.155 46.2727 168.073 46.4378 167.945C46.6111 167.814 46.7556 167.654 46.867 167.466C46.9785 167.273 47.0569 167.056 47.0982 166.805L47.1064 166.81Z" fill="#D0D5DD"/>
<path d="M45.4263 167.724C45.3314 167.568 45.3231 167.367 45.3726 167.183C45.4263 166.998 45.5419 166.826 45.6987 166.711C45.8597 166.588 46.0826 166.527 46.2807 166.563C46.4747 166.6 46.6439 166.707 46.7429 166.863C46.5655 166.834 46.4086 166.822 46.2683 166.842C46.1321 166.863 46.0206 166.912 45.9175 166.99C45.6946 167.158 45.5377 167.38 45.4304 167.724H45.4263Z" fill="#D0D5DD"/>
<path d="M44.1843 159.551C44.3246 159.678 44.4071 159.867 44.4154 160.068C44.4195 160.273 44.337 160.486 44.1843 160.638C44.0274 160.802 43.788 160.868 43.5899 160.839C43.3918 160.814 43.2102 160.732 43.0781 160.597C43.2639 160.597 43.4331 160.597 43.5817 160.564C43.7303 160.535 43.8458 160.482 43.9284 160.392C44.0192 160.298 44.0935 160.179 44.1347 160.043C44.176 159.904 44.1884 159.74 44.1801 159.555L44.1843 159.551Z" fill="#D0D5DD"/>
<path d="M43.1775 160.335C43.0578 160.261 42.9877 160.125 42.9753 159.978C42.9629 159.826 43.0207 159.666 43.1362 159.555C43.2518 159.432 43.4375 159.387 43.582 159.412C43.7265 159.437 43.8503 159.506 43.9287 159.621C43.7925 159.646 43.6811 159.658 43.5861 159.687C43.4912 159.715 43.4334 159.752 43.388 159.801C43.3344 159.855 43.2848 159.92 43.2518 160.007C43.2147 160.093 43.194 160.199 43.1775 160.335Z" fill="#D0D5DD"/>
<path d="M49.8229 168.056C49.7362 168.224 49.5711 168.351 49.373 168.405C49.1749 168.462 48.9478 168.433 48.7621 168.323C48.564 168.212 48.4443 167.995 48.4195 167.798C48.3948 167.601 48.4319 167.408 48.531 167.248C48.5805 167.429 48.6218 167.593 48.6878 167.728C48.7539 167.863 48.8323 167.962 48.9437 168.023C49.0552 168.089 49.1914 168.13 49.3358 168.134C49.4844 168.142 49.6454 168.109 49.8229 168.056Z" fill="#D0D5DD"/>
<path d="M48.8154 167.277C48.8608 167.146 48.9723 167.043 49.1126 166.994C49.2571 166.945 49.4263 166.965 49.5666 167.043C49.7152 167.125 49.806 167.293 49.8143 167.437C49.8266 167.58 49.7854 167.716 49.6946 167.822C49.6368 167.695 49.5955 167.593 49.546 167.511C49.4964 167.429 49.4469 167.38 49.3891 167.347C49.3231 167.31 49.2488 167.277 49.158 167.265C49.0672 167.248 48.9558 167.257 48.8196 167.273L48.8154 167.277Z" fill="#D0D5DD"/>
<path d="M52.6041 162.377C52.6247 162.565 52.5628 162.758 52.4307 162.918C52.2986 163.074 52.0923 163.181 51.8776 163.193C51.6506 163.213 51.4278 163.098 51.2998 162.951C51.1677 162.799 51.0893 162.619 51.0811 162.434C51.2214 162.557 51.3493 162.668 51.4814 162.742C51.6135 162.82 51.7332 162.852 51.857 162.844C51.9891 162.836 52.1212 162.795 52.245 162.717C52.3729 162.639 52.4885 162.524 52.6041 162.381V162.377Z" fill="#D0D5DD"/>
<path d="M51.3288 162.299C51.2916 162.164 51.3288 162.02 51.4155 161.897C51.5063 161.778 51.659 161.696 51.82 161.688C51.9892 161.671 52.1584 161.762 52.2451 161.872C52.3359 161.987 52.3813 162.118 52.3648 162.258C52.2492 162.184 52.1543 162.123 52.0635 162.082C51.9727 162.041 51.9066 162.028 51.8406 162.036C51.7663 162.041 51.6838 162.061 51.6012 162.098C51.5145 162.139 51.4279 162.205 51.3247 162.295L51.3288 162.299Z" fill="#D0D5DD"/>
<path d="M41.8521 164.206C41.8727 164.394 41.8108 164.587 41.6788 164.747C41.5467 164.903 41.3403 165.009 41.1257 165.022C40.8987 165.042 40.6758 164.927 40.5479 164.78C40.4158 164.628 40.3374 164.452 40.3291 164.263C40.4694 164.386 40.5974 164.497 40.7295 164.571C40.8615 164.648 40.9812 164.681 41.1051 164.673C41.2371 164.665 41.3692 164.624 41.493 164.546C41.621 164.468 41.7365 164.353 41.8521 164.21V164.206Z" fill="#D0D5DD"/>
<path d="M40.5768 164.128C40.5397 163.992 40.5768 163.849 40.6635 163.726C40.7543 163.607 40.907 163.525 41.068 163.517C41.2372 163.5 41.4065 163.591 41.4931 163.705C41.5839 163.82 41.6293 163.951 41.6128 164.091C41.4973 164.017 41.4023 163.955 41.3115 163.914C41.2207 163.873 41.1547 163.861 41.0886 163.869C41.0143 163.873 40.9318 163.894 40.8493 163.931C40.7626 163.972 40.6759 164.037 40.5727 164.128H40.5768Z" fill="#D0D5DD"/>
<path d="M158.964 23.5004L159.003 20.8736L160.754 22.8224L162.645 22.2374L161.717 23.9072L162.606 24.8332L161.234 24.9727L161.21 26.7433L159.697 25.4957L158.465 26.5147L158.605 25.0153L156.812 24.1901L158.964 23.5004Z" fill="white"/>
<path d="M157.307 156.868L159.729 157.914L157.244 158.767L157.053 160.727L155.864 159.232L154.655 159.689L155.061 158.375L153.423 157.666L155.17 156.764L154.702 155.245L156.04 155.95L157.494 154.625L157.307 156.868Z" fill="white"/>
<path d="M36.7451 162.071L34.3586 165.338L33.8945 161.351L30.9932 160.421L33.6449 159.135L33.3563 157.186L35.2087 158.224L36.8192 156.016L37.607 158.914L40.0598 158.72L38.5507 160.483L40.0715 163.098L36.7451 162.071Z" fill="white"/>
<path d="M145.039 132.498L146.45 135.296L147.85 132.618L150.525 133.076L149.102 130.263L151.087 128.384L148.279 128.484L147.718 125.749L146.232 128.581L142.496 128.298L144.699 130.561L142.656 132.115L145.039 132.498Z" fill="white"/>
<path d="M79.7508 23.4306L80.4293 22.2993L79.158 22.4117L78.7173 21.3656L78.0349 22.5047L76.9118 22.2296L77.5864 23.1982L76.7363 24.0157L78.0856 23.8956L78.8304 25.2787L79.1385 23.9886L80.1563 24.3566L79.7508 23.4306Z" fill="white"/>
<path d="M153.965 83.1348L153.727 82.3909L153.279 82.9953L152.643 82.7784L152.877 83.5222L152.315 83.9058L153.01 83.9911L153.041 84.6846L153.517 84.0453L154.421 84.2623L153.969 83.623L154.53 83.3208L153.965 83.1348Z" fill="white"/>
<path d="M164.089 126.543L164.674 126.024L163.937 125.865L163.874 125.199L163.285 125.722L162.704 125.369L162.911 126.032L162.287 126.346L163.067 126.512L163.243 127.423L163.644 126.749L164.151 127.136L164.089 126.543Z" fill="white"/>
<path d="M147.402 36.3168L147.983 35.7977L147.246 35.6388L147.184 34.9724L146.599 35.4955L146.014 35.1429L146.221 35.8054L145.601 36.1192L146.381 36.2858L146.552 37.1963L146.958 36.526L147.465 36.9096L147.402 36.3168Z" fill="white"/>
<path d="M44.0692 143.075L44.1004 142.301L43.4726 142.715L42.9461 142.297L42.9149 143.079L42.2598 143.25L42.8798 143.564L42.6731 144.226L43.3361 143.784L44.116 144.292L43.9093 143.536L44.5411 143.443L44.0692 143.075Z" fill="white"/>
<path d="M58.8374 16.3328L58.4358 15.6625L58.1355 16.3483L57.4648 16.2824L57.8664 16.9527L57.4102 17.4525L58.1043 17.3789L58.2915 18.0492L58.6073 17.3208L59.5394 17.3285L58.9544 16.8055L59.4341 16.3832L58.8374 16.3328Z" fill="white"/>
<path d="M21.8529 121.297L22.9838 119.124L20.6363 119.473L19.7003 117.582L18.5655 119.767L16.4558 119.384L17.809 121.104L16.3311 122.712L18.8112 122.34L20.3477 124.819L20.7766 122.398L22.6992 122.967L21.8529 121.297Z" fill="white"/>
<path d="M33.1811 78.7181L34.8229 79.0513L34.16 77.5906L35.2324 76.6298L33.5789 76.2927L33.4424 74.8514L32.5611 76.0525L31.2274 75.3861L31.9294 76.932L30.5801 78.3926L32.2569 78.2221L32.2374 79.5782L33.1811 78.7181Z" fill="white"/>
<path d="M37.651 31.2917C37.5223 31.1406 30.0349 27.6886 23.2535 32.8299C17.0218 37.5566 14.8575 46.4406 15.6843 46.6537C16.6982 46.9132 19.4747 42.6747 24.8055 40.3462C26.6969 39.5209 29.7035 40.3462 29.7035 40.3462L37.651 31.2956V31.2917Z" fill="white"/>
<path opacity="0.1" d="M29.7034 40.3462C29.7034 40.3462 28.397 39.9859 26.9658 39.982C28.1396 37.5373 30.3351 32.9771 31.7624 30.0248C35.1161 30.0558 37.5728 31.2104 37.6469 31.2995L29.7034 40.3501V40.3462Z" fill="black"/>
<path d="M49.9822 45.7473C50.1108 45.8984 52.3141 53.8021 46.102 59.6059C40.389 64.9409 31.2132 65.6112 31.1391 64.7666C31.0455 63.7321 35.7095 61.7019 38.8955 56.859C40.0264 55.1426 39.6988 52.0586 39.6988 52.0586L49.9861 45.7511L49.9822 45.7473Z" fill="white"/>
<path opacity="0.1" d="M50.2788 51.7639C47.0889 52.6861 42.1909 54.1041 39.6055 54.848C39.8433 53.4261 39.6991 52.0507 39.6991 52.0507L49.9863 45.7432C50.0604 45.8284 50.813 48.4514 50.2827 51.7601L50.2788 51.7639Z" fill="black"/>
<path d="M32.5501 55.4059L25.2383 46.8358C25.2383 46.8358 29.0521 36.6771 38.1149 29.8505C42.6424 26.4488 47.9498 23.8994 52.7035 22.2141C59.2627 19.8778 64.7534 19.1998 65.6035 20.1955C66.4575 21.1951 64.882 26.4604 61.4932 32.5122C59.0365 36.8902 55.6399 41.679 51.518 45.5572C43.2585 53.3253 32.5462 55.402 32.5462 55.402L32.5501 55.4059Z" fill="#D0D5DD"/>
<path d="M50.3131 41.896C47.5677 44.209 43.4536 43.8719 41.1216 41.1443C38.7935 38.4168 39.1328 34.3293 41.8781 32.0124C44.6235 29.6994 48.7376 30.0365 51.0696 32.764C53.3977 35.4916 53.0584 39.5791 50.3131 41.896Z" fill="#98A2B3"/>
<path d="M50.6724 41.2915C47.9271 43.6045 43.813 43.2675 41.481 40.5399C39.1529 37.8123 39.4922 33.7249 42.2375 31.408C44.9829 29.095 49.097 29.432 51.429 32.1596C53.7571 34.8872 53.4178 38.9746 50.6724 41.2915Z" fill="white"/>
<path d="M49.3809 39.7767C47.4778 41.3845 44.6233 41.1521 43.005 39.2614C41.3866 37.3707 41.6206 34.5346 43.5236 32.9268C45.4266 31.3189 48.2812 31.5513 49.8995 33.442C51.5179 35.3327 51.2839 38.1688 49.3809 39.7767Z" fill="#EAECF0"/>
<path d="M49.3807 39.7767C48.94 40.1486 48.4487 40.4237 47.9339 40.598L44.2994 40.3036C43.8198 40.0479 43.3791 39.6953 43.0047 39.2614C42.7318 38.9437 42.5134 38.5988 42.3496 38.2385L50.1957 38.8739C49.9734 39.2032 49.7004 39.5093 49.3807 39.7767Z" fill="#EAECF0"/>
<path d="M50.2934 33.9767L43.0518 33.3878C43.196 33.2251 43.352 33.0701 43.5236 32.9229C45.4305 31.315 48.2812 31.5475 49.8995 33.4382C50.0438 33.6087 50.1764 33.7869 50.2895 33.9729L50.2934 33.9767Z" fill="#EAECF0"/>
<path d="M50.6874 37.9402L42.0263 37.239C41.999 37.1072 41.9795 36.9755 41.9639 36.8399L50.8161 37.5567C50.781 37.6845 50.7381 37.8124 50.6913 37.9402H50.6874Z" fill="#EAECF0"/>
<path d="M61.4968 32.5161L52.707 22.2141C59.2662 19.8778 64.7569 19.1998 65.607 20.1955C66.4611 21.1951 64.8856 26.4604 61.4968 32.5122V32.5161Z" fill="white"/>
<path d="M55.2892 23.0897C55.1293 23.2253 54.8876 23.2059 54.7511 23.0471C54.6146 22.8882 54.6341 22.648 54.794 22.5124C54.9539 22.3768 55.1956 22.3962 55.3321 22.555C55.4686 22.7139 55.4491 22.9541 55.2892 23.0897Z" fill="#EAECF0"/>
<path d="M56.8527 24.9223C56.6928 25.0579 56.451 25.0385 56.3146 24.8796C56.1781 24.7208 56.1976 24.4806 56.3575 24.345C56.5173 24.2094 56.7591 24.2287 56.8956 24.3876C57.0321 24.5464 57.0126 24.7867 56.8527 24.9223Z" fill="#EAECF0"/>
<path d="M58.4162 26.7509C58.2563 26.8865 58.0145 26.8672 57.878 26.7083C57.7415 26.5495 57.761 26.3092 57.9209 26.1736C58.0808 26.038 58.3226 26.0574 58.4591 26.2163C58.5956 26.3751 58.5761 26.6153 58.4162 26.7509Z" fill="#EAECF0"/>
<path d="M59.9806 28.5835C59.8208 28.7191 59.579 28.6997 59.4425 28.5409C59.306 28.382 59.3255 28.1418 59.4854 28.0062C59.6453 27.8706 59.887 27.89 60.0235 28.0488C60.16 28.2077 60.1405 28.4479 59.9806 28.5835Z" fill="#EAECF0"/>
<path d="M61.5441 30.4161C61.3842 30.5518 61.1424 30.5324 61.006 30.3735C60.8695 30.2147 60.889 29.9745 61.0489 29.8389C61.2087 29.7033 61.4505 29.7226 61.587 29.8815C61.7235 30.0403 61.704 30.2805 61.5441 30.4161Z" fill="#EAECF0"/>
<path d="M27.3478 46.6381C27.1879 46.7737 26.9462 46.7544 26.8097 46.5955C26.6732 46.4367 26.6927 46.1965 26.8526 46.0609C27.0125 45.9252 27.2542 45.9446 27.3907 46.1035C27.5272 46.2623 27.5077 46.5025 27.3478 46.6381Z" fill="#98A2B3"/>
<path d="M28.9113 48.4707C28.7514 48.6063 28.5096 48.5869 28.3731 48.4281C28.2367 48.2692 28.2562 48.029 28.416 47.8934C28.5759 47.7578 28.8177 47.7772 28.9542 47.9361C29.0907 48.0949 29.0712 48.3351 28.9113 48.4707Z" fill="#98A2B3"/>
<path d="M30.4748 50.3033C30.3149 50.4389 30.0731 50.4195 29.9366 50.2607C29.8001 50.1018 29.8196 49.8616 29.9795 49.726C30.1394 49.5904 30.3812 49.6098 30.5177 49.7686C30.6542 49.9275 30.6347 50.1677 30.4748 50.3033Z" fill="#98A2B3"/>
<path d="M32.0392 52.1359C31.8793 52.2715 31.6376 52.2521 31.5011 52.0933C31.3646 51.9344 31.3841 51.6942 31.544 51.5586C31.7039 51.423 31.9456 51.4424 32.0821 51.6012C32.2186 51.7601 32.1991 52.0003 32.0392 52.1359Z" fill="#98A2B3"/>
<path d="M33.6027 53.9685C33.4428 54.1041 33.201 54.0847 33.0646 53.9258C32.9281 53.767 32.9476 53.5268 33.1075 53.3912C33.2673 53.2556 33.5091 53.2749 33.6456 53.4338C33.7821 53.5926 33.7626 53.8329 33.6027 53.9685Z" fill="#98A2B3"/>
<path opacity="0.2" d="M65.194 19.9441C60.1323 20.3006 51.3659 23.3497 42.1393 30.5406C35.3228 35.8523 30.3468 45.1431 28.0304 50.1062L25.2422 46.8362C25.2422 46.8362 29.056 36.6776 38.1188 29.8548C42.6463 26.4492 47.9537 23.9037 52.7074 22.2184C58.588 20.1223 63.603 19.363 65.194 19.9441Z" fill="#EAECF0"/>
<path d="M29.2858 56.8006L23.3389 49.8345L25.6514 47.3239L32.156 54.9448L29.2858 56.8006Z" fill="white"/>
<path opacity="0.1" d="M32.1564 54.9448L30.7565 55.8475L24.7666 48.2848L25.6518 47.3239L32.1564 54.9448Z" fill="black"/>
<path opacity="0.6" d="M27.9757 55.247C25.2187 57.0951 22.7853 59.4507 21.011 62.2635C19.2327 65.0647 18.1291 68.3308 18.0277 71.7093C17.9848 73.3946 18.1876 75.0994 18.6478 76.7498C19.104 78.4042 19.8177 80.0005 20.7536 81.4882C21.6856 82.9721 22.836 84.3436 24.1424 85.5641C25.4488 86.7884 26.9072 87.8693 28.4593 88.8147C26.8097 88.0553 25.2148 87.1409 23.7368 86.0484C22.2588 84.9558 20.894 83.6772 19.7241 82.2166C18.5503 80.7598 17.5715 79.1248 16.8539 77.362C16.1325 75.5992 15.6724 73.7162 15.4969 71.7945C15.1537 67.9434 15.9726 63.9876 17.669 60.4581C19.3614 56.9169 21.9001 53.798 24.895 51.2448L27.9796 55.247H27.9757Z" fill="white"/>
<path d="M23.265 59.4468L22.1809 59.6444L21.9353 60.7835L21.6935 59.6444L20.6094 59.4468L21.6896 59.1834L21.9353 58.1102L22.1848 59.1834L23.265 59.4468Z" fill="#EAECF0"/>
<path d="M19.2719 80.7172L18.6675 80.8295L18.531 81.4649L18.3945 80.8295L17.79 80.7172L18.3945 80.57L18.531 79.9694L18.6675 80.57L19.2719 80.7172Z" fill="#EAECF0"/>
<path d="M18.9487 75.2078L18.3403 75.3163L18.2077 75.9517L18.0712 75.3163L17.4629 75.2078L18.0673 75.0606L18.2077 74.4601L18.3442 75.0606L18.9487 75.2078Z" fill="#EAECF0"/>
<path d="M22.4623 55.9057L21.8579 56.018L21.7214 56.6534L21.5849 56.018L20.9805 55.9057L21.5849 55.7585L21.7214 55.1618L21.8579 55.7585L22.4623 55.9057Z" fill="#EAECF0"/>
<path d="M20.7077 82.0887C20.4815 82.0887 20.4815 82.4374 20.7077 82.4374C20.9339 82.4374 20.9339 82.0887 20.7077 82.0887Z" fill="#EAECF0"/>
<path d="M25.7214 55.0572C25.4952 55.0572 25.4952 55.4059 25.7214 55.4059C25.9476 55.4059 25.9476 55.0572 25.7214 55.0572Z" fill="#EAECF0"/>
<path d="M16.2614 70.6245C16.0353 70.6245 16.0353 70.9731 16.2614 70.9731C16.4876 70.9731 16.4876 70.6245 16.2614 70.6245Z" fill="#EAECF0"/>
<path d="M20.3953 81.1821C20.2354 81.1821 20.2354 81.4301 20.3953 81.4301C20.5552 81.4301 20.5552 81.1821 20.3953 81.1821Z" fill="#EAECF0"/>
<path d="M16.199 64.5262C16.0391 64.5262 16.0391 64.7741 16.199 64.7741C16.3589 64.7741 16.3589 64.5262 16.199 64.5262Z" fill="#EAECF0"/>
<path d="M17.4623 77.1566C17.0295 77.1566 17.0295 77.8269 17.4623 77.8269C17.8952 77.8269 17.8952 77.1566 17.4623 77.1566Z" fill="#EAECF0"/>
<path d="M17.7905 63.3871C17.3576 63.3871 17.3576 64.0574 17.7905 64.0574C18.2233 64.0574 18.2233 63.3871 17.7905 63.3871Z" fill="#EAECF0"/>
<path d="M122.768 128.837C122.768 128.837 124.843 139.654 118.927 144.846C113.011 150.041 106.694 151.409 93.4116 148.674C80.1295 145.938 71.3943 142.455 66.0478 147.306C66.0478 147.306 64.9949 149.038 68.1147 152.502C71.2344 155.965 74.8844 163.931 67.3425 169.723C58.4435 176.558 44.9118 169.266 42.5252 156.236C40.1386 143.203 49.9774 127.217 69.9631 128.105C89.9449 128.992 95.9074 132.959 99.6706 133.072C103.43 133.184 104.003 129.929 104.003 129.929L122.776 128.837H122.768Z" fill="#333F53"/>
<path d="M67.0579 151.273C60.0815 150.584 53.4209 152.246 48.9285 157.875C47.4856 159.611 46.3508 161.572 45.3408 163.594C46.0701 161.448 47.0567 159.352 48.4449 157.507C52.7228 151.552 60.0932 149.635 67.054 151.277L67.0579 151.273Z" fill="#667085"/>
<path d="M69.3157 145.431C66.9525 138.961 61.3721 135.489 54.5165 135.776C52.3873 135.842 50.2542 136.167 48.1367 136.624C50.1645 135.877 52.2976 135.346 54.4853 135.172C61.4813 134.494 67.8143 138.457 69.3157 145.431Z" fill="#667085"/>
<path d="M66.0477 147.31C59.8863 143.16 52.6641 143.49 46.3545 147.093C45.5746 147.593 44.3657 148.279 43.6482 148.852C43.2153 149.174 42.7746 149.491 42.3262 149.801C45.3874 146.698 49.3299 144.292 53.7404 143.676C58.0924 143.071 62.811 144.331 66.0477 147.306V147.31Z" fill="#667085"/>
<path d="M72.7556 144.892C73.4419 139.402 72.311 133.227 67.69 129.685C67.0621 129.174 66.3797 128.736 65.6855 128.294C66.4577 128.581 67.2064 128.938 67.9122 129.375C73.0793 132.51 74.5065 139.437 72.7556 144.892Z" fill="#667085"/>
<path d="M77.0371 145.187C80.0086 140.603 80.8744 135.47 78.1641 130.545C77.856 129.879 77.392 129.232 77.0371 128.589C77.5246 129.135 78.0939 129.728 78.4917 130.352C81.861 135.024 80.9718 141.154 77.0371 145.187Z" fill="#667085"/>
<path d="M82.4307 146.21C84.7548 144.292 86.4005 141.537 87.1492 138.655C87.9214 135.706 87.3169 132.638 85.9286 129.933C87.9136 132.37 88.7013 135.776 87.9058 138.841C87.1024 141.839 85.215 144.726 82.4268 146.213L82.4307 146.21Z" fill="#667085"/>
<path d="M89.2119 147.763C93.2246 144.776 95.6736 140.317 95.2798 135.284C95.1745 134.114 94.9717 133.079 94.7377 131.933C95.0185 132.63 95.3539 133.358 95.5215 134.094C97.0931 139.507 94.2893 145.357 89.2158 147.763H89.2119Z" fill="#667085"/>
<path d="M97.998 149.495C99.1016 148.538 99.554 147.066 100.018 145.729C101.235 141.618 101.516 137.047 99.6671 133.072C102.377 136.721 102.151 141.851 100.587 145.931C100.01 147.26 99.3278 148.771 97.998 149.495Z" fill="#667085"/>
<path d="M107.466 149.925C108.382 144.706 107.376 138.314 103.831 134.215C103.309 133.614 102.727 133.064 102.107 132.533C102.821 132.921 103.488 133.405 104.104 133.947C108.199 137.647 109.423 144.896 107.466 149.925Z" fill="#667085"/>
<path d="M103.586 131.01C110.675 132.804 116.544 139.41 116.326 146.853C115.269 139.457 110.321 134.005 103.586 131.01Z" fill="#667085"/>
<path d="M103.995 129.929C111.248 128.829 119.336 132.533 122.273 139.402C118.209 133.106 111.381 130.065 103.995 129.929Z" fill="#667085"/>
<path opacity="0.1" d="M122.772 137.345C115.729 139.716 104.272 143.443 102.303 143.288C100.185 143.118 73.0439 139.139 71.7102 138.368C70.6184 137.732 62.9633 132.568 58.623 129.631C61.9299 128.488 65.7126 127.919 69.9554 128.105C89.9372 128.988 95.8997 132.959 99.6629 133.072C103.422 133.184 103.995 129.929 103.995 129.929L122.768 128.837C122.768 128.837 123.564 132.963 122.772 137.341V137.345Z" fill="black"/>
<path d="M65.0652 78.7567C65.0652 78.7567 62.2457 78.6211 61.3488 78.7567C60.4558 78.8923 59.009 79.6439 59.009 79.6439C59.009 79.6439 55.2927 77.114 51.9234 77.8656C48.5541 78.6172 43.4611 85.316 42.9113 90.7828C42.3614 96.2495 42.7046 109.577 45.8009 115.184C48.8972 120.79 70.084 136.028 73.1803 137.395C76.2766 138.763 95.1977 141.293 102.49 141.154C109.778 141.018 130.002 128.473 135.165 123.452C138.468 120.24 140.118 104.382 140.188 101.17C140.258 97.9581 135.442 87.567 135.442 87.567L65.0652 78.749V78.7567Z" fill="#D0D5DD"/>
<path opacity="0.1" d="M140.188 101.174C140.117 104.39 138.468 120.244 135.165 123.452C130.002 128.477 109.778 141.022 102.486 141.157C95.2013 141.293 76.2763 138.767 73.18 137.395C70.0837 136.032 48.893 120.79 45.8006 115.187C43.9834 111.902 43.1177 105.966 42.8213 100.511C43.3048 103.878 47.3644 112.262 48.6864 114.056C50.02 115.858 70.9338 131.181 75.1532 132.13C79.3687 133.079 99.9277 134.78 103.866 134.753C107.805 134.722 131.058 122.611 133.098 120.646C135.138 118.682 139.451 107.725 140.184 101.174H140.188Z" fill="black"/>
<path d="M66.0046 77.6874C66.0046 77.6874 60.042 68.2998 60.3189 64.0186C60.5958 59.7374 73.0669 45.6114 77.9297 41.8726C82.7926 38.1377 94.1639 36.1308 98.0168 36.1308C101.87 36.1308 112.851 40.3306 112.851 40.3306C112.851 40.3306 114.118 37.3977 115.261 31.0283C115.795 28.045 135.808 38.684 134.892 56.2698C134.892 56.2698 139.571 73.3752 139.844 75.665C140.121 77.9586 133.698 86.1568 133.698 86.1568C133.698 86.1568 127.978 88.5744 120.003 90.159C111.771 91.794 102.353 92.8982 90.3111 90.2559C72.6535 86.3776 66.0046 77.6796 66.0046 77.6796V77.6874Z" fill="white"/>
<path d="M71.1559 48.4397C71.2339 44.3329 67.7944 34.2634 66.9209 32.9422C66.0512 31.6211 78.5418 28.878 90.7555 37.0607L71.1559 48.4397Z" fill="white"/>
<path opacity="0.1" d="M73.5038 47.076C73.5038 47.076 72.6654 38.7383 69.6392 34.8097C69.1323 34.1549 78.3082 34.4494 86.1854 39.9278C86.1854 39.9278 83.0969 41.5589 80.9482 42.7561C80.9482 42.7561 79.3299 41.9696 78.0859 41.9114C76.8419 41.8533 74.8531 42.512 74.8531 42.512C74.8531 42.512 77.2085 42.9846 77.8129 43.3798C78.4173 43.775 78.8034 44.3988 78.8034 44.3988C78.8034 44.3988 77.7817 43.8719 77.2864 43.806C76.7912 43.7401 75.9957 44.0075 75.9957 44.0075C75.9957 44.0075 77.1227 44.0617 77.6881 44.856C77.6881 44.856 74.4202 46.5413 73.5038 47.076Z" fill="black"/>
<path opacity="0.1" d="M114.458 41.4232C114.458 41.4232 115.991 36.3439 116.42 32.95C116.521 32.1286 127.53 38.4864 127.081 49.9701C127.081 49.9701 122.901 46.5529 120.768 45.3208C120.768 45.3208 120.869 43.0311 120.288 41.9385C119.703 40.8459 118.12 39.4783 118.12 39.4783C118.12 39.4783 118.911 41.7332 118.876 42.4499C118.841 43.1667 118.498 43.8176 118.498 43.8176C118.498 43.8176 118.436 42.6746 118.241 42.2213C118.046 41.7642 117.41 41.2218 117.41 41.2218C117.41 41.2218 117.936 42.2136 117.535 43.1008C117.535 43.1008 116.299 41.9579 114.458 41.4271V41.4232Z" fill="black"/>
<path opacity="0.1" d="M133.694 86.1607C133.694 86.1607 127.977 88.5783 119.998 90.1629C111.766 91.7979 102.349 92.9021 90.3065 90.2559C73.1988 86.4977 66.4251 78.2182 66.0195 77.7068C67.5014 79.2449 78.3658 85.5795 81.0488 86.4629C83.7473 87.3501 98.8701 89.6089 105.273 88.7836C111.677 87.9661 128.804 83.7973 129.974 82.9101C131.144 82.019 133.959 74.9986 134.443 73.0769C134.93 71.1513 132.618 55.6887 132.618 55.6887C132.618 55.6887 135.246 41.4155 119.683 31.7179C125.672 34.8251 135.531 43.7982 134.879 56.2621C134.879 56.2621 139.559 73.3675 139.832 75.6611C140.109 77.9509 133.686 86.1568 133.686 86.1568L133.694 86.1607Z" fill="black"/>
<path d="M77.2508 54.9564C74.0063 54.1621 71.5768 56.9827 70.6448 60.7447C69.8883 63.79 71.0465 67.3699 74.1584 68.1331C77.2742 68.8964 80.1053 65.7117 80.8151 62.8524C81.5248 59.9931 80.7761 55.8204 77.2508 54.9603V54.9564Z" fill="#667085"/>
<path d="M77.3673 55.8204C74.3178 55.0726 72.0326 57.7266 71.1591 61.26C70.4493 64.1232 71.5373 67.49 74.4621 68.2068C77.3907 68.9235 80.0503 65.9286 80.7171 63.2398C81.3839 60.551 80.6781 56.6301 77.3673 55.8204Z" fill="#EAECF0"/>
<path d="M77.8946 57.2965C75.508 56.7115 73.7181 58.7881 73.0317 61.5544C72.478 63.7938 73.3281 66.4323 75.6172 66.9902C77.9102 67.552 79.9926 65.208 80.5151 63.1042C81.0377 61.0004 80.4878 57.9319 77.8946 57.2965Z" fill="#667085"/>
<path d="M101.943 59.9582C106.283 59.7452 108.635 62.9454 108.83 66.8159C108.986 69.9503 106.568 73.2745 102.403 73.4798C98.2346 73.6852 95.4697 70.0549 95.3255 67.1103C95.1812 64.1658 97.2324 60.1907 101.947 59.9582H101.943Z" fill="#667085"/>
<path d="M101.565 60.7874C105.647 60.5859 107.855 63.5963 108.038 67.2344C108.186 70.1789 105.913 73.3055 101.997 73.4992C98.0783 73.6929 95.4811 70.2796 95.3446 67.5133C95.2081 64.747 97.1385 61.0082 101.568 60.7913L101.565 60.7874Z" fill="#EAECF0"/>
<path d="M101.752 61.5274C105.082 61.3646 106.888 63.821 107.036 66.7888C107.157 69.1948 105.301 71.7441 102.103 71.903C98.9052 72.0618 96.7838 69.2722 96.6707 67.0174C96.5576 64.7586 98.1331 61.7056 101.752 61.5274Z" fill="#667085"/>
<path d="M88.0647 65.5761C87.9594 65.979 85.2881 67.1568 85.0035 67.1219C84.7227 67.0832 82.418 65.2351 82.4063 64.8206C82.3946 64.4099 84.7149 64.5649 85.3037 64.6423C85.8965 64.7198 88.1739 65.1809 88.0647 65.5761Z" fill="#667085"/>
<path d="M80.1758 67.4745C80.4995 68.1061 80.8309 68.7337 81.217 69.3149C81.412 69.6016 81.6109 69.8883 81.8487 70.1014C81.9618 70.206 82.0983 70.2835 82.1724 70.2873C82.2504 70.2873 82.3986 70.2525 82.5117 70.1789C82.7573 70.0355 82.9718 69.7759 83.1746 69.5163C83.3735 69.249 83.5529 68.9584 83.7167 68.6601C84.0442 68.0634 84.3445 67.4242 84.5863 66.7888L85.0386 65.611L85.2921 66.8469C85.4598 67.6605 85.7016 68.4896 86.0057 69.2606C86.1578 69.6481 86.3372 70.0239 86.5517 70.3609C86.774 70.6903 87.0274 71.0041 87.3394 71.1281L87.4564 71.1668L87.5773 71.1862C87.667 71.1901 87.7606 71.1862 87.8542 71.1784C88.0414 71.1552 88.2324 71.1048 88.4196 71.0312C88.7979 70.884 89.1528 70.6554 89.4959 70.4036C90.1745 69.8921 90.7906 69.28 91.3639 68.6291C90.9076 69.3691 90.3616 70.0587 89.7143 70.6631C89.3867 70.9653 89.0241 71.2366 88.6107 71.4458C88.1934 71.6434 87.7138 71.81 87.16 71.6472C86.6414 71.469 86.3021 71.0893 86.033 70.7174C85.764 70.3377 85.5573 69.9348 85.374 69.5241C85.0152 68.6988 84.7696 67.8581 84.5746 66.9864L85.2804 67.0445C85.0035 67.7225 84.6994 68.3734 84.3172 69.001C84.1261 69.311 83.9155 69.6171 83.6777 69.9076C83.4359 70.1943 83.159 70.4733 82.7729 70.667C82.5741 70.76 82.3674 70.8259 82.0866 70.7871C81.8097 70.7213 81.6576 70.5585 81.5212 70.4191C81.2638 70.1207 81.0844 69.803 80.9206 69.4815C80.6047 68.8306 80.363 68.1603 80.1758 67.4745Z" fill="#667085"/>
<path d="M69.1515 62.6587C67.3538 62.3255 65.5483 62.0543 63.7349 61.8218C61.9255 61.5932 60.1122 61.384 58.291 61.26C57.3824 61.1748 56.4699 61.1244 55.5613 61.0663C54.6488 61.0237 53.7401 60.9811 52.8276 60.9578C51.0026 60.8881 49.1776 60.9113 47.3486 60.9191C48.2611 60.8454 49.1737 60.768 50.0862 60.7292C51.0026 60.6982 51.9151 60.6672 52.8315 60.675C54.6644 60.6672 56.4933 60.7641 58.3222 60.8958C60.1473 61.0508 61.9684 61.2561 63.7778 61.5467C64.6825 61.6939 65.5834 61.8528 66.4803 62.031C67.3733 62.2247 68.2702 62.4146 69.1515 62.6625V62.6587Z" fill="#667085"/>
<path d="M68.2976 63.6273C67.4748 63.5769 66.652 63.5265 65.8291 63.4955C65.0063 63.4529 64.1835 63.4219 63.3607 63.3987C61.715 63.3483 60.0694 63.3096 58.4237 63.3251C57.6009 63.3134 56.7781 63.3289 55.9552 63.3406L53.4868 63.4181L52.2545 63.4645L51.0222 63.5382C50.1994 63.5653 49.3804 63.6583 48.5537 63.697C50.1838 63.4413 51.8255 63.2437 53.4712 63.1352C55.1168 63.0151 56.7703 62.9725 58.4198 62.9609C60.0694 62.9764 61.7228 63.0074 63.3685 63.1197C65.0141 63.2282 66.6598 63.3754 68.2898 63.6273H68.2976Z" fill="#667085"/>
<path d="M68.6519 64.6965C67.9656 64.7392 67.2793 64.7779 66.5968 64.8322C65.9105 64.8786 65.2281 64.929 64.5456 64.991C63.1807 65.115 61.812 65.2351 60.451 65.3862C59.0861 65.5334 57.7252 65.6961 56.3642 65.8705C55.0032 66.041 53.6461 66.2463 52.2812 66.4245C52.9481 66.2618 53.6188 66.1107 54.2935 65.9673C54.9681 65.8395 55.6427 65.7039 56.3213 65.5915C57.6745 65.3513 59.0432 65.177 60.4081 65.022C61.7769 64.8786 63.1496 64.7663 64.5222 64.7082C65.8949 64.6501 67.2754 64.6229 68.648 64.6927L68.6519 64.6965Z" fill="#667085"/>
<path d="M110.312 71.9649C111.447 71.9765 112.582 72.0579 113.713 72.1315C114.844 72.2283 115.975 72.3407 117.102 72.4763C119.356 72.7475 121.602 73.1156 123.833 73.5456C126.059 73.9989 128.274 74.4987 130.462 75.1186C131.558 75.4169 132.642 75.754 133.722 76.095C134.264 76.2616 134.798 76.4553 135.333 76.6451L136.935 77.2185C134.759 76.5754 132.591 75.9245 130.388 75.3898C129.292 75.107 128.188 74.8513 127.085 74.5917C125.977 74.3554 124.874 74.1035 123.758 73.9021C121.54 73.441 119.305 73.0807 117.063 72.7514C114.82 72.4259 112.57 72.1508 110.309 71.961L110.312 71.9649Z" fill="#667085"/>
<path d="M110.999 73.4061C113.027 73.6735 115.039 74.057 117.04 74.4871C119.04 74.9171 121.025 75.4324 122.998 75.971C124.964 76.5366 126.921 77.1449 128.848 77.8345C130.778 78.5087 132.673 79.2874 134.537 80.1243C133.57 79.7911 132.626 79.3998 131.655 79.086L130.213 78.5784L128.758 78.1019C127.791 77.7803 126.812 77.482 125.841 77.1759C124.862 76.8892 123.887 76.5909 122.901 76.3274C120.939 75.7579 118.962 75.2503 116.981 74.7622C115.991 74.5181 114.996 74.2817 113.998 74.0609C113.003 73.8284 112.005 73.6153 111.003 73.4061H110.999Z" fill="#667085"/>
<path d="M110.211 74.5685C111.872 74.9637 113.502 75.4673 115.121 76.0059C116.739 76.5483 118.334 77.1488 119.921 77.7726C121.496 78.4274 123.068 79.0821 124.608 79.8183C125.381 80.1786 126.145 80.5583 126.905 80.938C127.662 81.3293 128.414 81.7283 129.159 82.139C127.599 81.4533 126.055 80.7404 124.488 80.074C122.928 79.396 121.36 78.7373 119.777 78.1135C118.205 77.4626 116.61 76.8699 115.019 76.2732C114.224 75.971 113.424 75.6882 112.621 75.4053C111.821 75.1148 111.014 74.8436 110.207 74.5724L110.211 74.5685Z" fill="#667085"/>
<path d="M74.4199 50.652C75.7146 48.986 78.304 48.4784 80.1875 49.385C78.1597 49.602 76.358 49.912 74.4199 50.652Z" fill="#667085"/>
<path d="M109.981 56.7658C108.39 55.4368 106.791 54.5612 104.942 53.7011C107.021 53.457 109.306 54.7704 109.981 56.7658Z" fill="#667085"/>
<path d="M87.0821 84.3009C86.2671 83.1773 85.534 81.9569 85.1401 80.6745C85.1089 80.5738 84.949 80.5738 84.9139 80.6784C84.8164 80.9651 84.5434 81.7671 84.5045 81.8911C84.4733 81.8136 84.446 81.7361 84.4187 81.6586C84.329 81.3951 84.251 81.1278 84.1847 80.8566C84.0521 80.3142 83.9624 79.7601 83.9234 79.2022C83.8844 78.6482 83.8883 78.0864 83.9429 77.5285C83.9975 76.9667 84.1223 76.4166 84.2237 75.8586C84.2276 75.8354 84.1847 75.8238 84.173 75.847C83.9156 76.3856 83.7713 76.9706 83.6699 77.5363C83.5685 78.0942 83.5256 78.6598 83.5295 79.2216C83.5334 79.7911 83.5958 80.3568 83.7128 80.9147C83.7752 81.2014 83.8493 81.4881 83.939 81.7709C84.0248 82.0422 84.1067 82.3289 84.29 82.5652C84.4109 82.7202 84.6526 82.5807 84.6721 82.4257C84.6838 82.3327 84.988 81.2169 85.0348 81.0542C85.222 81.6005 85.4326 82.1351 85.7289 82.6504C86.076 83.251 86.4933 83.8282 86.9924 84.3513C87.0392 84.3978 87.1211 84.3397 87.086 84.2932L87.0821 84.3009Z" fill="#667085"/>
<path d="M136.931 88.9386C125.49 94.0334 103.589 97.5513 87.0938 93.1074C70.5983 88.6674 62.6586 79.4386 62.3818 78.3499C62.1088 77.2612 63.0681 76.0214 64.2653 75.665H64.2692C64.8229 76.3585 65.4079 77.0326 66.0084 77.6835C71.3743 83.4719 81.9736 90.0854 98.9721 91.6429C115.678 93.1772 131.799 86.9898 135.859 85.3161C137.438 85.1805 139.092 87.9816 136.939 88.9386H136.931Z" fill="#667085"/>
<path d="M96.8154 130.708C101.308 132.483 106.206 132.963 110.924 131.863C106.51 134.048 100.844 133.498 96.8154 130.708Z" fill="#667085"/>
<path d="M107.462 107.094C108.566 104.393 110.445 101.639 113.249 100.395C116.997 99.2289 122.082 100.945 125.603 102.336C127.81 103.247 129.943 104.366 131.862 105.773C127.713 103.557 123.22 101.898 118.591 101.038C116.778 100.759 114.824 100.469 113.105 101.185C110.613 102.425 108.815 104.715 107.462 107.098V107.094Z" fill="#667085"/>
<path d="M125.455 102.584C127.148 102.154 129.012 102.534 130.529 103.355C128.828 103.045 127.19 102.697 125.455 102.584Z" fill="#667085"/>
<path d="M111.124 105.215C115.262 107.993 117.009 109.415 116.72 114.06C116.471 118.097 105.368 130.968 98.2358 133.196C96.8164 133.637 95.4593 133.463 94.4805 132.928L111.124 105.219V105.215Z" fill="#D0D5DD"/>
<path d="M104.935 104.142C100.045 105.44 89.9525 123.649 90.5765 128.054C91.0756 131.565 93.5519 133.486 96.6482 132.998C100.341 132.417 115.172 115.869 115.179 111.941C115.191 107.567 110.188 102.747 104.931 104.142H104.935Z" fill="#475467"/>
<path d="M115.183 111.925L104.093 104.506C104.389 104.335 104.67 104.215 104.939 104.142C105.052 104.111 105.169 104.084 105.282 104.06C105.38 104.037 105.473 104.018 105.567 104.006L114.961 110.283C114.988 110.383 115.012 110.48 115.031 110.581C115.133 111.026 115.183 111.476 115.183 111.921V111.925Z" fill="#667085"/>
<path d="M115.031 110.585L105.278 104.06C105.376 104.037 105.469 104.018 105.563 104.006C105.664 103.987 105.77 103.971 105.867 103.96L114.864 109.976C114.899 110.077 114.926 110.178 114.957 110.283C114.985 110.383 115.008 110.48 115.027 110.581L115.031 110.585Z" fill="#333F53"/>
<path d="M114.079 114.788C114.052 114.847 114.013 114.909 113.974 114.971C113.81 115.253 113.631 115.548 113.436 115.85L100.852 107.435C101.086 107.164 101.316 106.904 101.546 106.66C101.592 106.606 101.643 106.559 101.69 106.505L114.083 114.788H114.079Z" fill="#667085"/>
<path d="M114.185 114.614C114.153 114.672 114.118 114.73 114.079 114.788C114.052 114.847 114.013 114.909 113.974 114.97L101.542 106.66C101.589 106.606 101.639 106.559 101.686 106.505C101.737 106.455 101.784 106.404 101.834 106.354L114.185 114.61V114.614Z" fill="#333F53"/>
<path d="M111.728 118.314C111.685 118.368 111.646 118.423 111.603 118.481C111.401 118.752 111.194 119.023 110.979 119.298L98.2861 110.813C98.4811 110.527 98.68 110.244 98.8789 109.969C98.9218 109.911 98.9569 109.86 98.9998 109.802L111.728 118.314Z" fill="#667085"/>
<path d="M111.849 118.148C111.806 118.206 111.767 118.26 111.728 118.318C111.685 118.372 111.646 118.426 111.603 118.485L98.8789 109.973C98.9218 109.914 98.9569 109.864 98.9998 109.806C99.0388 109.748 99.0778 109.694 99.1168 109.635L111.849 118.148Z" fill="#333F53"/>
<path d="M109.084 121.642C109.041 121.7 109.002 121.751 108.952 121.805C108.733 122.072 108.507 122.336 108.281 122.595L96.0049 114.385C96.1804 114.091 96.3559 113.797 96.5352 113.506C96.5742 113.448 96.6054 113.39 96.6444 113.328L109.084 121.642Z" fill="#667085"/>
<path d="M109.221 121.483C109.178 121.538 109.131 121.588 109.088 121.642C109.045 121.7 109.006 121.751 108.956 121.805L96.543 113.506C96.582 113.448 96.6132 113.39 96.6522 113.328C96.6912 113.274 96.7263 113.212 96.7653 113.15L109.229 121.479L109.221 121.483Z" fill="#333F53"/>
<path d="M106.277 124.862C106.226 124.912 106.179 124.963 106.133 125.017C105.899 125.273 105.657 125.528 105.423 125.78L93.9541 118.109C94.1101 117.807 94.27 117.501 94.4338 117.194C94.465 117.136 94.4962 117.074 94.5312 117.016L106.273 124.866L106.277 124.862Z" fill="#667085"/>
<path d="M106.413 124.707C106.366 124.761 106.32 124.808 106.273 124.862C106.222 124.912 106.175 124.963 106.129 125.017L94.4297 117.194C94.4609 117.136 94.4921 117.074 94.5272 117.016C94.5545 116.958 94.5896 116.892 94.6247 116.83L106.409 124.711L106.413 124.707Z" fill="#333F53"/>
<path d="M103.29 127.961C103.239 128.012 103.188 128.058 103.138 128.109C102.88 128.36 102.631 128.604 102.381 128.841L92.1367 121.991C92.2654 121.673 92.4019 121.356 92.5501 121.026C92.5774 120.964 92.6086 120.898 92.632 120.836L103.29 127.961Z" fill="#667085"/>
<path d="M103.442 127.814C103.392 127.864 103.341 127.911 103.29 127.961C103.24 128.012 103.189 128.058 103.138 128.109L92.5508 121.026C92.5781 120.964 92.6093 120.898 92.6327 120.836C92.66 120.778 92.6912 120.712 92.7185 120.65L103.439 127.818L103.442 127.814Z" fill="#333F53"/>
<path d="M100.068 130.898C100.01 130.948 99.9551 130.991 99.9005 131.038C99.6002 131.278 99.3155 131.502 99.0426 131.704L90.7324 126.148C90.8065 125.819 90.8962 125.466 91.0054 125.094C91.0249 125.028 91.0444 124.959 91.0717 124.889L100.068 130.902V130.898Z" fill="#667085"/>
<path d="M100.236 130.762C100.182 130.809 100.127 130.852 100.073 130.898C100.014 130.948 99.9594 130.991 99.9048 131.038L91.0098 125.094C91.0293 125.028 91.0488 124.959 91.0761 124.889C91.0917 124.823 91.1151 124.753 91.1385 124.684L100.236 130.766V130.762Z" fill="#333F53"/>
<path d="M95.6934 133.072C95.5609 133.072 95.4322 133.072 95.3035 133.056C93.5759 132.928 92.1448 131.975 91.3063 130.383C91.244 130.267 91.1855 130.143 91.1309 130.019L95.6934 133.068V133.072Z" fill="#667085"/>
<path d="M96.0481 133.064C95.9272 133.072 95.8063 133.072 95.6932 133.072C95.5606 133.072 95.4319 133.072 95.3032 133.056L91.3061 130.383C91.2437 130.267 91.1852 130.143 91.1306 130.019C91.076 129.906 91.0331 129.79 90.9863 129.674L96.052 133.06L96.0481 133.064Z" fill="#333F53"/>
<path d="M111.85 105.707C119.278 109.574 117.535 115.587 113.051 121.077C111.791 122.653 110.403 124.118 108.933 125.493C110.161 123.901 111.409 122.34 112.563 120.716C116.623 115.002 118.409 110.387 111.85 105.711V105.707Z" fill="#667085"/>
<path d="M111.085 122.743C111.065 123.793 110.586 124.839 109.751 125.489C110.149 124.509 110.543 123.649 111.085 122.743Z" fill="#667085"/>
<path d="M94.4805 132.928C97.4637 133.936 100.466 132.246 102.911 130.666C103.282 130.437 103.629 130.174 103.999 129.933C102.748 131.169 101.289 132.208 99.6514 132.89C98.0369 133.552 96.0598 133.831 94.4805 132.932V132.928Z" fill="#667085"/>
<path d="M103.836 131.01C103.532 131.39 103.103 131.627 102.659 131.797C102.21 131.956 101.723 132.033 101.247 131.933C101.465 131.824 101.684 131.747 101.894 131.665C102.53 131.437 103.166 131.189 103.84 131.01H103.836Z" fill="#667085"/>
<path d="M45.3447 110.875C50.1569 110.43 54.7429 108.648 58.4436 105.54C55.5072 109.481 50.2076 111.546 45.3447 110.875Z" fill="#667085"/>
<path d="M46.3506 82.5498C49.7667 76.2617 54.3838 76.1338 59.9252 79.9811C61.3798 81.0078 62.7174 82.2088 63.7976 83.6075C62.4717 82.4413 61.06 81.4107 59.5782 80.5002C53.9042 77.0791 50.5232 77.0482 46.3467 82.5498H46.3506Z" fill="#667085"/>
<path d="M36.5938 81.0155C41.3396 79.4619 43.539 78.9621 47.0604 82.0267C50.1216 84.6923 53.5728 101.294 50.9834 108.26C50.4687 109.647 49.4977 110.604 48.4721 111.05L36.5938 81.0155Z" fill="#D0D5DD"/>
<path d="M31.953 85.2231C29.9954 89.8607 38.3172 108.934 42.2052 111.139C45.3054 112.894 48.351 112.127 49.8563 109.391C51.654 106.133 47.5555 84.3552 44.4319 81.9453C40.9573 79.2604 34.0549 80.2445 31.953 85.2269V85.2231Z" fill="#475467"/>
<path d="M44.416 81.9337L31.7227 86.1103C31.7695 85.7771 31.8435 85.4788 31.9488 85.223C31.9917 85.1146 32.0424 85.01 32.0931 84.9054C32.136 84.8124 32.1789 84.7271 32.2257 84.6496L42.9692 81.1085C43.0667 81.1472 43.1603 81.1898 43.25 81.2363C43.6673 81.43 44.0572 81.6625 44.4121 81.9376L44.416 81.9337Z" fill="#667085"/>
<path d="M43.2575 81.2324L32.0967 84.9015C32.1396 84.8085 32.1825 84.7232 32.2293 84.6458C32.2761 84.5528 32.3268 84.4637 32.3775 84.3784L42.6725 80.9883C42.7739 81.0232 42.8714 81.062 42.9728 81.1046C43.0703 81.1433 43.1639 81.1859 43.2536 81.2324H43.2575Z" fill="#333F53"/>
<path d="M46.0229 84.5528C46.0541 84.6109 46.0775 84.6767 46.1048 84.7426C46.2295 85.0448 46.3543 85.3625 46.4752 85.7035L32.0777 90.4418C32.0036 90.0931 31.9413 89.7522 31.8867 89.4229C31.8711 89.3531 31.8633 89.2834 31.8516 89.2175L46.0268 84.5489L46.0229 84.5528Z" fill="#667085"/>
<path d="M45.9487 84.3629C45.976 84.4249 45.9994 84.4869 46.0267 84.5528C46.0579 84.6109 46.0813 84.6768 46.1086 84.7426L31.8866 89.4268C31.871 89.357 31.8632 89.2873 31.8515 89.2214C31.8437 89.1517 31.8281 89.0819 31.8203 89.0122L45.9487 84.3591V84.3629Z" fill="#333F53"/>
<path d="M47.3913 88.5588C47.4069 88.6247 47.4264 88.6906 47.4459 88.7603C47.5356 89.0819 47.6292 89.4151 47.715 89.7483L33.1927 94.5293C33.0835 94.1999 32.9783 93.8706 32.8847 93.549C32.8652 93.4832 32.8457 93.4212 32.8262 93.3514L47.3874 88.5588H47.3913Z" fill="#667085"/>
<path d="M47.3288 88.3613C47.3483 88.4271 47.3678 88.4969 47.3912 88.5589C47.4068 88.6247 47.4263 88.6906 47.4458 88.7603L32.8846 93.5491C32.8651 93.4832 32.8456 93.4212 32.8261 93.3515C32.8027 93.2895 32.7832 93.2197 32.7637 93.1577L47.3288 88.3613Z" fill="#333F53"/>
<path d="M48.4212 92.6696C48.4407 92.7354 48.4563 92.8013 48.468 92.8749C48.546 93.2081 48.6162 93.549 48.6903 93.8861L34.6438 98.5082C34.5151 98.1905 34.3903 97.869 34.2655 97.5513C34.2421 97.4893 34.2148 97.4234 34.1914 97.3576L48.4212 92.6696Z" fill="#667085"/>
<path d="M48.3782 92.4681C48.3938 92.534 48.4094 92.5998 48.4211 92.6696C48.4406 92.7354 48.4562 92.8013 48.4679 92.8749L34.2654 97.5513C34.242 97.4893 34.2147 97.4234 34.1913 97.3576C34.1679 97.2956 34.1445 97.2258 34.1211 97.16L48.3782 92.4642V92.4681Z" fill="#333F53"/>
<path d="M49.2673 96.8462C49.2751 96.9159 49.2907 96.9856 49.3024 97.0515C49.3609 97.3924 49.4194 97.7373 49.474 98.0743L36.3478 102.394C36.2035 102.084 36.0553 101.774 35.911 101.457C35.8837 101.395 35.8525 101.337 35.8291 101.267L49.2634 96.8423L49.2673 96.8462Z" fill="#667085"/>
<path d="M49.2281 96.6447C49.2437 96.7144 49.2515 96.7803 49.2671 96.8461C49.2749 96.9159 49.2905 96.9856 49.3022 97.0515L35.9148 101.457C35.8875 101.395 35.8563 101.337 35.8329 101.267C35.8017 101.209 35.7705 101.143 35.7471 101.077L49.232 96.6408L49.2281 96.6447Z" fill="#333F53"/>
<path d="M49.9071 101.089C49.9149 101.158 49.9227 101.228 49.9305 101.298C49.9734 101.654 50.0163 102.003 50.0514 102.34L38.3329 106.199C38.1575 105.904 37.9898 105.598 37.8182 105.285C37.7831 105.223 37.7519 105.161 37.7168 105.102L49.911 101.089H49.9071Z" fill="#667085"/>
<path d="M49.8835 100.879C49.8913 100.949 49.8991 101.019 49.9069 101.089C49.9147 101.158 49.9225 101.228 49.9303 101.298L37.8141 105.285C37.779 105.223 37.7478 105.161 37.7127 105.102C37.6815 105.044 37.6503 104.982 37.6152 104.92L49.8796 100.879H49.8835Z" fill="#333F53"/>
<path d="M50.2736 105.416C50.2736 105.494 50.2775 105.564 50.2814 105.633C50.2892 106.013 50.2931 106.377 50.2853 106.714L40.7779 109.845C40.5596 109.585 40.3334 109.298 40.1072 108.985C40.0643 108.927 40.0253 108.872 39.9824 108.806L50.2736 105.416Z" fill="#667085"/>
<path d="M50.2695 105.203C50.2695 105.273 50.2734 105.343 50.2773 105.416C50.2773 105.494 50.2812 105.564 50.2851 105.633L40.1109 108.985C40.068 108.927 40.029 108.872 39.9861 108.806C39.9432 108.752 39.9042 108.694 39.8613 108.628L50.2734 105.199L50.2695 105.203Z" fill="#333F53"/>
<path d="M49.3261 110.186C49.2442 110.29 49.1623 110.391 49.0765 110.484C47.9183 111.763 46.2844 112.305 44.5023 111.991C44.3736 111.968 44.2371 111.941 44.1084 111.906L49.33 110.186H49.3261Z" fill="#667085"/>
<path d="M49.54 109.903C49.4737 110.004 49.3996 110.097 49.3294 110.19C49.2475 110.294 49.1656 110.395 49.0798 110.488L44.5056 111.995C44.3769 111.972 44.2404 111.945 44.1117 111.91C43.9908 111.883 43.8699 111.848 43.749 111.813L49.5439 109.907L49.54 109.903Z" fill="#333F53"/>
<path d="M60.9863 81.1046C61.9963 80.9884 63.0648 81.3332 63.8019 82.0384C62.7997 81.8059 61.9261 81.5231 60.9863 81.1046Z" fill="#667085"/>
<path d="M46.8223 81.8291C50.406 84.1654 51.533 92.6115 51.5837 96.6447C51.4082 96.0016 51.2679 95.3584 51.1236 94.7153C50.7063 92.8517 50.2734 90.7944 49.8055 88.958C49.4896 87.6949 49.1387 86.4357 48.698 85.2114C48.2417 84.0026 47.7738 82.7512 46.8223 81.8291Z" fill="#667085"/>
<path d="M51.0146 92.7936C51.8024 93.491 52.2937 94.5332 52.2469 95.587C51.7595 94.6494 51.3578 93.7932 51.0146 92.7936Z" fill="#667085"/>
<path d="M49.541 110.465C51.366 108.33 51.5532 105.474 51.8964 102.817C52.1226 105.467 51.795 108.698 49.541 110.465Z" fill="#667085"/>
<path d="M52.6136 103.642C52.7072 104.118 52.6097 104.595 52.4459 105.041C52.2743 105.478 52.0169 105.897 51.6309 106.195C51.6894 105.959 51.7712 105.746 51.8453 105.533C52.0832 104.905 52.3094 104.262 52.6097 103.642H52.6136Z" fill="#667085"/>
<path d="M62.9795 86.2265C62.496 89.5042 63.0263 103.134 67.9945 104.095C72.9626 105.056 73.1264 97.7992 78.5274 92.5843C78.5274 92.5843 75.0645 88.5705 70.5604 86.8309C66.0564 85.0874 62.9834 86.2265 62.9834 86.2265H62.9795Z" fill="#D0D5DD"/>
<path d="M75.7898 95.9357C75.5597 96.2844 75.3452 96.637 75.1385 96.9857C71.5703 94.7192 68.3648 93.7738 66.1771 93.3902C64.8942 93.1617 63.8257 93.0997 63.0457 93.0958C63.0067 92.6735 62.9755 92.2589 62.9443 91.8521C65.3192 91.8405 70.1587 92.348 75.7898 95.9357Z" fill="white"/>
<path d="M77.0765 94.1612C76.8113 94.4906 76.5617 94.8238 76.3199 95.157C70.3613 91.4763 65.2489 91.0075 62.8896 91.0269C62.8662 90.5968 62.8545 90.1784 62.8428 89.7832C65.3853 89.7445 70.7668 90.2326 77.0726 94.1612H77.0765Z" fill="white"/>
<path d="M62.8504 87.8576C63.2091 91.8753 63.7863 107.853 70.9382 102.832C71.9833 101.968 72.7165 100.728 73.434 99.504C74.8145 97.0321 76.1949 94.3317 78.523 92.5804C77.4779 93.5723 76.6473 94.7501 75.9337 95.9783C74.1398 98.8337 73.083 103.491 69.3511 104.448C62.6437 105.804 62.6827 92.0806 62.8504 87.8537V87.8576Z" fill="#667085"/>
<path d="M76.3193 95.1608C76.9862 94.6416 77.6296 94.2387 78.3588 93.8163C77.9182 94.5292 77.1461 95.0135 76.3193 95.1608Z" fill="#667085"/>
<path d="M66.0482 98.9189C66.5474 100.635 66.8515 103.405 68.6337 104.25C66.5279 103.89 65.9819 100.682 66.0482 98.9189Z" fill="#667085"/>
<path d="M68.6024 98.5043C68.8442 100.275 68.7311 103.057 70.369 104.157C68.3412 103.495 68.2749 100.24 68.6024 98.5043Z" fill="#667085"/>
<path d="M87.8576 94.7424C84.7418 95.9241 73.0273 103.034 74.6066 107.811C76.186 112.588 83.8761 109.151 91.1996 110.899C91.1996 110.899 91.691 106.366 91.0241 101.608C90.3573 96.8501 87.8576 94.7424 87.8576 94.7424Z" fill="#D0D5DD"/>
<path d="M85.5923 110.348C85.1711 110.348 84.7578 110.36 84.3483 110.372C84.5667 106.249 83.8414 103.065 83.1277 101.007C82.7027 99.7908 82.2347 98.8299 81.8564 98.1519C82.0319 98.0279 82.2074 97.9117 82.379 97.7993C82.418 97.7722 82.4531 97.749 82.4882 97.7257C82.6247 97.6366 82.7612 97.5436 82.8976 97.4584C84.0519 99.4885 85.9316 103.851 85.5884 110.352L85.5923 110.348Z" fill="white"/>
<path d="M87.7839 110.407C87.3667 110.379 86.9494 110.364 86.5321 110.356C86.7817 103.568 84.75 99.0236 83.5957 97.0128C83.701 96.9431 83.8024 96.8772 83.9077 96.8191C84.091 96.7029 84.2742 96.5944 84.4497 96.4937C84.5238 96.451 84.594 96.4046 84.6642 96.3619C85.916 98.5083 88.0491 103.266 87.7839 110.407Z" fill="white"/>
<path d="M86.3604 95.4282C83.3304 97.5204 71.2766 104.657 75.73 108.876C77.3171 110.348 79.6257 110.275 81.7198 110.306C84.6406 110.259 87.6278 110.217 90.5174 110.747C87.581 110.507 84.6757 110.713 81.7354 110.891C79.5633 110.972 76.935 111.05 75.2074 109.419C70.0482 104.254 82.5075 97.377 86.3643 95.4243L86.3604 95.4282Z" fill="#667085"/>
<path d="M87.6045 110.546C88.4273 110.736 89.1488 110.976 89.9404 111.274C89.1059 111.383 88.2401 111.092 87.6045 110.546Z" fill="#667085"/>
<path d="M78.2021 103.599C76.9387 104.87 74.6535 106.486 74.7783 108.442C74.0685 106.443 76.6189 104.401 78.2021 103.599Z" fill="#667085"/>
<path d="M79.8126 105.61C78.3737 106.683 75.874 107.942 75.7063 109.899C75.3007 107.815 78.128 106.172 79.8126 105.61Z" fill="#667085"/>
<path opacity="0.2" d="M66.0044 77.6874C59.8546 71.0544 55.7756 61.7404 55.6391 53.1277C55.5026 44.5149 57.9789 35.631 63.4813 28.7966C68.9837 21.9622 85.8731 9.52156 110.998 14.442C136.124 19.3625 148.782 38.4012 149.332 56.7657C149.769 71.3644 135.847 85.3199 135.847 85.3199C131.787 86.9936 115.666 93.181 98.9603 91.6468C81.9656 90.0893 71.3625 83.4757 65.9966 77.6874H66.0044Z" fill="#EAECF0"/>
<path d="M66.0046 77.6874C60.4086 71.5697 56.587 63.7164 55.7446 55.4562C55.0778 47.2115 56.9067 38.6608 61.364 31.6288C65.8525 24.5658 73.2345 19.7616 80.9168 16.6853C96.1527 10.649 115.304 12.6249 129.128 21.3345C141.599 29.0833 149.621 43.3449 149.484 57.9823C149.309 64.2549 146.766 70.2215 143.529 75.5177C141.33 79.0512 138.811 82.3831 135.925 85.3935C130.177 87.7453 124.168 89.481 118.061 90.6201C100.661 94.0411 78.7135 90.8641 66.0007 77.6874H66.0046ZM66.0046 77.6874C78.7408 90.8138 100.661 93.9326 118.034 90.4651C124.059 89.3531 130.251 87.4741 135.777 85.2424C137.212 83.7508 138.542 82.1545 139.801 80.5079C144.727 73.968 148.919 66.3006 149.184 57.9745C149.34 41.2953 138.694 25.4879 123.489 18.6341C106.53 10.8156 85.339 11.606 70.0719 22.8107C59.5741 30.0442 54.8204 43.0621 55.8148 55.4485C56.6299 63.697 60.432 71.5581 66.0046 77.6835V77.6874Z" fill="#667085"/>
<g opacity="0.6">
<path d="M67.6265 37.5488C64.2962 40.9621 66.402 50.7643 70.6994 50.466C74.2169 50.2219 76.3383 46.363 76.7673 43.7749C77.1962 41.1869 76.3422 37.6534 73.8035 36.5531C71.6587 35.6233 68.8471 36.2974 67.6265 37.5488Z" fill="#EAECF0"/>
<path d="M75.7923 31.2297C74.5951 32.1247 75.4257 34.8523 76.8997 35.3676C78.3738 35.879 79.9181 34.1239 79.6646 32.9732C79.4111 31.8225 76.8764 30.4239 75.7962 31.2297H75.7923Z" fill="#EAECF0"/>
<path d="M132.571 81.5385C133.721 81.7671 134.887 79.8609 134.419 78.7412C133.951 77.6215 132.551 77.9392 132.009 78.687C131.467 79.4347 131.533 81.3332 132.571 81.5385Z" fill="#EAECF0"/>
</g>
</svg>
