<svg width="223" height="207" viewBox="0 0 223 207" fill="none" xmlns="http://www.w3.org/2000/svg">
<g opacity="0.3">
<path d="M208.75 44.2794L137.5 3.13501L66.25 44.2794M208.75 44.2794V126.568L179.401 143.516M208.75 44.2794L179.401 61.2275M137.5 167.712L165.638 151.464V135.286M137.5 167.712V135.286M137.5 167.712L109.668 151.641V135.286M66.25 44.2794V126.568L95.5992 143.516M66.25 44.2794L95.5992 61.2275M137.5 37.3965V85.4237V101.331M137.5 37.3965L95.5992 61.2275M137.5 37.3965L179.401 61.2275M95.5992 61.2275V143.516M179.401 61.2275V143.516M179.401 143.516L165.638 135.286M95.5992 143.516L109.668 135.286M165.638 117.544L137.5 135.286M165.638 117.544L137.5 101.331M165.638 117.544V135.286M137.5 135.286L109.668 117.544M109.668 117.544L137.5 101.331M109.668 117.544V135.286" stroke="#9E77ED" stroke-width="2" stroke-linecap="round" stroke-linejoin="round"/>
<path d="M34.9016 83L53 72.7194V62.4839V51.2581M34.9016 83V62.4839M34.9016 83L17 72.8312V62.4839V51.2581M53 51.2581L34.9016 62.4839M53 51.2581L34.9016 41L17 51.2581M34.9016 62.4839L17 51.2581" stroke="#9E77ED" stroke-width="2" stroke-linecap="round" stroke-linejoin="round"/>
<path d="M50.9563 41L59 36.594V32.2074V27.3963M50.9563 41V32.2074M50.9563 41L43 36.6419V32.2074V27.3963M59 27.3963L50.9563 32.2074M59 27.3963L50.9563 23L43 27.3963M50.9563 32.2074L43 27.3963" stroke="#9E77ED" stroke-linecap="round" stroke-linejoin="round"/>
<path d="M160.956 186L169 181.594V177.207V172.396M160.956 186V177.207M160.956 186L153 181.642V177.207V172.396M169 172.396L160.956 177.207M169 172.396L160.956 168L153 172.396M160.956 177.207L153 172.396" stroke="#9E77ED" stroke-linecap="round" stroke-linejoin="round"/>
<path d="M22.9453 37L33 31.6149V26.2535V20.3733M22.9453 37V26.2535M22.9453 37L13 31.6735V26.2535V20.3733M33 20.3733L22.9453 26.2535M33 20.3733L22.9453 15L13 20.3733M22.9453 26.2535L13 20.3733" stroke="#9E77ED" stroke-linecap="round" stroke-linejoin="round"/>
</g>
</svg>
