<svg width="20" height="20" viewBox="0 0 20 20" fill="none" xmlns="http://www.w3.org/2000/svg">
<path d="M3.39225 10.9983C4.07227 10.3146 4.70149 9.70123 4.78747 9.63872C4.92425 9.53714 4.97115 9.52542 5.16656 9.53714C5.33461 9.54495 5.40887 9.5723 5.49094 9.64653C5.54956 9.70123 5.61991 9.79109 5.65117 9.84969C5.68244 9.9122 5.70589 10.0216 5.70589 10.0958C5.70589 10.1701 5.67853 10.2912 5.64726 10.3576C5.616 10.4279 5.00632 11.0687 4.29113 11.7836C3.57593 12.4947 2.94281 13.1003 2.88419 13.1198C2.82166 13.1433 2.70832 13.1628 2.63016 13.1628C2.54809 13.1628 2.42302 13.1276 2.35659 13.0846C2.28624 13.0417 2.19244 12.9479 2.14945 12.8776C2.10646 12.8112 2.07129 12.6861 2.07129 12.6041C2.07129 12.526 2.09083 12.4127 2.11428 12.3501C2.13382 12.2915 2.71223 11.686 3.39225 10.9983Z" fill="white"/>
<path d="M10.9861 3.40722C11.6622 2.73523 12.2679 2.16091 12.3305 2.12965C12.393 2.09449 12.5181 2.06714 12.604 2.06714C12.69 2.06714 12.8151 2.1023 12.8854 2.14528C12.9558 2.18825 13.0496 2.28202 13.0926 2.34844C13.1356 2.41876 13.1707 2.54379 13.1707 2.62193C13.1707 2.70397 13.1434 2.82899 13.1121 2.89541C13.0808 2.96574 12.4712 3.60648 11.756 4.32145C11.0408 5.03251 10.4077 5.63809 10.349 5.65763C10.2865 5.68107 10.1732 5.7006 10.095 5.7006C10.0129 5.7006 9.88787 5.66544 9.82143 5.62246C9.75108 5.57949 9.65729 5.48572 9.6143 5.41539C9.5674 5.34116 9.53613 5.22005 9.53613 5.11456C9.53613 4.98172 9.55958 4.89968 9.64947 4.78247C9.712 4.69652 10.3139 4.07922 10.9861 3.40722Z" fill="white"/>
<path d="M2.14945 2.35235C2.19244 2.28202 2.28624 2.18825 2.35659 2.14528C2.42302 2.1023 2.54809 2.06714 2.63016 2.06714C2.70832 2.06714 2.83338 2.09449 2.90373 2.12574C2.97017 2.157 3.61111 2.76648 4.3263 3.48145C5.03759 4.19643 5.64336 4.82935 5.6629 4.89186C5.68635 4.95047 5.70589 5.05986 5.70589 5.13409C5.70589 5.20833 5.68244 5.31772 5.65117 5.38023C5.61991 5.43884 5.55347 5.52479 5.50266 5.57167C5.45576 5.62246 5.35024 5.67325 5.27599 5.68497C5.20173 5.7006 5.06886 5.69669 4.98288 5.68107C4.84218 5.65762 4.69367 5.52088 3.50559 4.34098C2.78258 3.6182 2.16118 2.96574 2.12991 2.89932C2.09865 2.82899 2.07129 2.70397 2.07129 2.62583C2.07129 2.54379 2.10646 2.41876 2.14945 2.35235Z" fill="white"/>
<path d="M7.10892 0.320697C7.148 0.238652 7.23789 0.133164 7.31215 0.0862805C7.39031 0.0354902 7.51146 0.000327617 7.61308 0.000327617C7.7186 -0.00357933 7.82803 0.0276763 7.91791 0.0823736C7.99608 0.133164 8.09378 0.238651 8.13286 0.31679C8.20321 0.453534 8.20712 0.594184 8.20712 2.34059C8.20712 4.13779 8.20321 4.22374 8.12896 4.3722C8.07685 4.47639 7.99868 4.55453 7.89447 4.60662C7.80849 4.6496 7.68733 4.68476 7.62089 4.68476C7.55445 4.68476 7.4333 4.6496 7.34732 4.60662C7.2431 4.55453 7.16494 4.47639 7.11283 4.3722C7.03858 4.22374 7.03467 4.13779 7.03467 2.34059C7.03467 0.594184 7.03858 0.453534 7.10892 0.320697Z" fill="white"/>
<path d="M6.56987 7.0914C6.57377 6.9234 6.59722 6.88043 6.74183 6.73196C6.89424 6.57569 6.92551 6.56006 7.09747 6.56006C7.26552 6.56006 7.83611 6.79448 11.5489 8.40023C13.8938 9.41213 16.6803 10.6155 17.7433 11.0765C18.8063 11.5375 19.7209 11.9438 19.7756 11.9829C19.8303 12.022 19.9045 12.1157 19.9436 12.19C19.9944 12.2837 20.0101 12.3736 19.9944 12.4986C19.9827 12.5963 19.9436 12.7174 19.9006 12.7721C19.8576 12.8268 19.7834 12.901 19.7326 12.9362C19.6779 12.9753 18.521 13.2605 17.0008 13.6121C15.5508 13.9481 14.3354 14.2372 14.3041 14.2528C14.2729 14.2724 14.2338 14.3349 14.2182 14.3974C14.2064 14.4599 13.925 15.6711 12.9988 19.6679L12.8308 19.832C12.6783 19.9882 12.6471 20 12.4595 20C12.2797 20 12.2328 19.9843 12.1038 19.8749C11.967 19.7577 11.7365 19.242 9.25869 13.5144C6.82781 7.89233 6.56596 7.26331 6.56987 7.0914Z" fill="white"/>
<path d="M0.0781634 7.34149C0.12897 7.24381 0.211041 7.15786 0.304837 7.10707H0.300929C0.441623 7.03674 0.543236 7.03284 2.33318 7.02893C4.14266 7.02893 4.22864 7.03284 4.37715 7.10707C4.48137 7.15916 4.55953 7.2373 4.61164 7.34149C4.65463 7.42744 4.6898 7.54855 4.6898 7.61497C4.6898 7.68139 4.65463 7.80251 4.61164 7.88846C4.55953 7.99264 4.48137 8.07078 4.37715 8.12288C4.22864 8.19711 4.14266 8.20102 2.3449 8.20102C0.547144 8.20102 0.461164 8.19711 0.312654 8.12288C0.208436 8.07078 0.130272 7.99264 0.0781634 7.88846C0.0351735 7.80251 0 7.68139 0 7.61497C0 7.54855 0.0351735 7.42744 0.0781634 7.34149Z" fill="white"/>
</svg>
