<svg width="17" height="20" viewBox="0 0 17 20" fill="none" xmlns="http://www.w3.org/2000/svg">
<path fill-rule="evenodd" clip-rule="evenodd" d="M8.45062 0.000598317C8.78661 -0.00330858 9.13823 0.012319 9.22809 0.0357604C9.32185 0.0552949 9.5719 0.109991 9.78678 0.156874C10.0017 0.203757 10.3142 0.293616 10.4783 0.352219C10.6463 0.414729 10.8924 0.520216 11.0253 0.586633C11.162 0.65305 11.3769 0.770257 11.5058 0.848395C11.6347 0.926533 11.8731 1.08672 12.0332 1.20783C12.1934 1.33285 12.4552 1.55945 12.6154 1.71963C12.7756 1.87982 13.0295 2.17674 13.1819 2.3799C13.3381 2.58306 13.5608 2.9464 13.682 3.18081C13.8031 3.41523 13.9672 3.79419 14.0414 4.02079C14.1156 4.24739 14.2133 4.63808 14.2602 4.89203C14.3305 5.29444 14.3383 5.51714 14.3383 8.22071L14.815 8.24806C15.0806 8.25978 15.3932 8.29885 15.5104 8.33401C15.6276 8.36917 15.8229 8.44731 15.9401 8.50982C16.0573 8.57233 16.2566 8.7286 16.3816 8.85363C16.5066 8.97865 16.6551 9.1779 16.7176 9.2951C16.7801 9.41231 16.8583 9.62328 16.8934 9.76393C16.9481 9.99053 16.9559 10.4867 16.9559 14.1397C16.9559 17.6832 16.9481 18.2927 16.8973 18.488C16.8661 18.6091 16.784 18.8162 16.7215 18.9451C16.6551 19.0741 16.4988 19.285 16.3699 19.414C16.241 19.5429 16.0534 19.6914 15.948 19.7421C15.8464 19.7929 15.6667 19.8711 15.3346 20H1.62136L1.40648 19.918C1.28928 19.8711 1.10956 19.7929 1.00407 19.7421C0.902493 19.6914 0.714962 19.5429 0.586034 19.414C0.457107 19.285 0.300831 19.0741 0.234414 18.9451C0.167997 18.8162 0.0898586 18.6091 0.0586034 18.488C0.00781379 18.2927 0 17.6832 0 14.1397C0 10.4867 0.00781379 9.99053 0.0625103 9.76393C0.0976724 9.62328 0.17581 9.41231 0.238321 9.2951C0.300831 9.1779 0.449293 8.97865 0.574314 8.85363C0.699334 8.7286 0.898586 8.57233 1.01579 8.50982C1.133 8.44731 1.32834 8.36917 1.44555 8.33401C1.56276 8.29885 1.87531 8.25978 2.61762 8.22071V6.82204C2.61762 5.73983 2.63325 5.33351 2.68013 5.00533C2.71529 4.77483 2.79343 4.41148 2.85594 4.1966C2.92236 3.98173 3.08254 3.57932 3.21928 3.29802C3.36774 2.98937 3.58262 2.63385 3.75843 2.39943C3.91862 2.18455 4.19991 1.86419 4.37963 1.68838C4.55935 1.51257 4.82111 1.28206 4.96176 1.17657C5.10241 1.07499 5.32119 0.926533 5.45012 0.848395C5.57905 0.770257 5.80565 0.649143 5.95802 0.574912C6.10648 0.496774 6.38778 0.383474 6.58312 0.317057C6.77456 0.25064 7.0832 0.168595 7.26683 0.133433C7.45045 0.0982707 7.6497 0.0552949 7.71612 0.0357604C7.77863 0.0201328 8.11072 0.00450521 8.44671 0.000598317H8.45062ZM7.41529 2.79012C7.26292 2.84482 7.00506 2.96593 6.84488 3.05579C6.6847 3.14565 6.43466 3.33318 6.28229 3.47383C6.13383 3.61448 5.93458 3.83326 5.84472 3.96219C5.75095 4.09112 5.62593 4.30209 5.55951 4.43102C5.497 4.55995 5.40324 4.78655 5.35245 4.93892C5.2665 5.20458 5.26259 5.26319 5.25087 6.72437L5.23915 8.24024H11.7246C11.7012 5.26319 11.6972 5.20458 11.6113 4.93892C11.5605 4.78655 11.4667 4.55995 11.4042 4.43102C11.3378 4.30209 11.2128 4.09112 11.119 3.96219C11.0292 3.83326 10.8299 3.61448 10.6815 3.47383C10.5291 3.33318 10.279 3.14565 10.1189 3.05579C9.95868 2.96593 9.70864 2.84873 9.55627 2.79403C9.4039 2.73933 9.16949 2.68073 9.02884 2.65729C8.88819 2.63385 8.62643 2.61822 8.4428 2.61822C8.25918 2.62213 8.01695 2.63775 7.90365 2.65729C7.79426 2.67682 7.57157 2.73543 7.41529 2.79012ZM7.77863 11.0102C7.66142 11.0532 7.45827 11.1665 7.32934 11.2603C7.20041 11.3579 7.04023 11.5025 6.97381 11.5845C6.90739 11.6705 6.80581 11.8307 6.74721 11.9401C6.69251 12.0534 6.61828 12.2487 6.58703 12.3698C6.55577 12.4949 6.52842 12.7019 6.52842 12.8308C6.52842 12.9598 6.55577 13.1707 6.59093 13.2997C6.62219 13.4286 6.70814 13.6396 6.78237 13.7685C6.8527 13.8974 7.01288 14.1006 7.14181 14.2178C7.26683 14.3389 7.46999 14.4874 7.5911 14.5499L7.81379 14.6671L7.83723 16.9409C7.9896 17.1597 8.09509 17.2574 8.16932 17.3003C8.25137 17.3472 8.37639 17.3785 8.48187 17.3785C8.58736 17.3785 8.71238 17.3472 8.79442 17.3003C8.86866 17.2574 8.97414 17.1597 9.02884 17.0815L9.12651 16.9409L9.14995 14.6671C9.49376 14.4874 9.69692 14.3389 9.82194 14.2178C9.95086 14.1006 10.111 13.8974 10.1814 13.7685C10.2556 13.6396 10.3416 13.4286 10.3728 13.2997C10.408 13.1707 10.4353 12.9598 10.4353 12.8308C10.4353 12.7019 10.408 12.4949 10.3767 12.3698C10.3455 12.2487 10.2634 12.0417 10.2009 11.9127C10.1384 11.7838 9.98603 11.5806 9.86882 11.4634C9.75161 11.3462 9.57971 11.2056 9.48594 11.1509C9.39609 11.1001 9.21637 11.018 9.08744 10.9751C8.95851 10.9321 8.73191 10.8852 8.57955 10.8774C8.42718 10.8696 8.23574 10.8774 8.14979 10.8969C8.06383 10.9126 7.89584 10.9633 7.77863 11.0102Z" fill="white"/>
</svg>
