<svg width="94" height="32" viewBox="0 0 94 32" fill="none" xmlns="http://www.w3.org/2000/svg">
<path opacity="0.5" d="M32 32C32 27.7977 31.1723 23.6365 29.5641 19.7541C27.956 15.8717 25.5989 12.3441 22.6274 9.37258C19.6559 6.40111 16.1283 4.044 12.2459 2.43585C8.36345 0.827704 4.2023 -1.83688e-07 0 0L1.39876e-06 32H32Z" fill="#6941C6"/>
<path opacity="0.5" d="M32 0C32 4.2023 31.1723 8.36345 29.5641 12.2459C27.956 16.1283 25.5989 19.6559 22.6274 22.6274C19.6559 25.5989 16.1283 27.956 12.2459 29.5641C8.36345 31.1723 4.2023 32 0 32L1.39876e-06 0H32Z" fill="#6941C6"/>
<path d="M42.2784 23V8.29155H45.3881V14.7768H45.582L50.8751 8.29155H54.6024L49.1442 14.8773L54.6671 23H50.9469L46.9179 16.9529L45.3881 18.8202V23H42.2784ZM55.8175 23V8.29155H58.9272V20.4361H65.2329V23H55.8175ZM66.8878 23V8.29155H76.7988V10.8555H69.9976V14.3602H76.2889V16.9241H69.9976V20.4361H76.8275V23H66.8878ZM92.3829 15.6458C92.3829 17.2497 92.0789 18.6143 91.4708 19.7394C90.8675 20.8646 90.044 21.724 89.0003 22.3177C87.9613 22.9066 86.793 23.2011 85.4955 23.2011C84.1884 23.2011 83.0154 22.9042 81.9764 22.3105C80.9374 21.7168 80.1163 20.8574 79.513 19.7323C78.9097 18.6071 78.6081 17.2449 78.6081 15.6458C78.6081 14.0418 78.9097 12.6773 79.513 11.5521C80.1163 10.427 80.9374 9.56992 81.9764 8.98101C83.0154 8.3873 84.1884 8.09045 85.4955 8.09045C86.793 8.09045 87.9613 8.3873 89.0003 8.98101C90.044 9.56992 90.8675 10.427 91.4708 11.5521C92.0789 12.6773 92.3829 14.0418 92.3829 15.6458ZM89.2301 15.6458C89.2301 14.6068 89.0745 13.7306 88.7633 13.0172C88.4568 12.3038 88.0235 11.7628 87.4633 11.3941C86.9032 11.0254 86.2472 10.8411 85.4955 10.8411C84.7438 10.8411 84.0879 11.0254 83.5277 11.3941C82.9675 11.7628 82.5318 12.3038 82.2206 13.0172C81.9142 13.7306 81.7609 14.6068 81.7609 15.6458C81.7609 16.6847 81.9142 17.5609 82.2206 18.2743C82.5318 18.9877 82.9675 19.5288 83.5277 19.8974C84.0879 20.2661 84.7438 20.4504 85.4955 20.4504C86.2472 20.4504 86.9032 20.2661 87.4633 19.8974C88.0235 19.5288 88.4568 18.9877 88.7633 18.2743C89.0745 17.5609 89.2301 16.6847 89.2301 15.6458Z" fill="black"/>
</svg>
