<svg width="16" height="16" viewBox="0 0 16 16" fill="none" xmlns="http://www.w3.org/2000/svg">
<g clip-path="url(#clip0_180_34240)">
<path d="M7.33325 1.33331L9.33325 3.33331M9.33325 3.33331L7.33325 5.33331M9.33325 3.33331H4.53325C3.41315 3.33331 2.85309 3.33331 2.42527 3.5513C2.04895 3.74305 1.74299 4.04901 1.55124 4.42533C1.33325 4.85316 1.33325 5.41321 1.33325 6.53331V10.3333C1.33325 10.6429 1.33325 10.7977 1.35036 10.9277C1.46852 11.8252 2.17473 12.5314 3.0722 12.6495C3.20217 12.6666 3.35697 12.6666 3.66659 12.6666M6.66659 12.6666H11.4666C12.5867 12.6666 13.1467 12.6666 13.5746 12.4487C13.9509 12.2569 14.2569 11.951 14.4486 11.5746C14.6666 11.1468 14.6666 10.5868 14.6666 9.46665V5.66665C14.6666 5.35703 14.6666 5.20223 14.6495 5.07226C14.5313 4.17479 13.8251 3.46858 12.9276 3.35042C12.7977 3.33331 12.6429 3.33331 12.3333 3.33331M6.66659 12.6666L8.66659 14.6666M6.66659 12.6666L8.66659 10.6666" stroke="#98A2B3" stroke-width="1.33333" stroke-linecap="round" stroke-linejoin="round"/>
</g>
<defs>
<clipPath id="clip0_180_34240">
<rect width="16" height="16" fill="white"/>
</clipPath>
</defs>
</svg>
