<svg width="19" height="20" viewBox="0 0 19 20" fill="none" xmlns="http://www.w3.org/2000/svg">
<path d="M13.7188 3.86719C13.7266 3.86719 13.8008 3.83984 13.8867 3.80859C14.0117 3.76562 14.3086 3.75391 15.3047 3.75C16.1914 3.75 16.6172 3.76563 16.7461 3.79688C16.8555 3.82813 16.9688 3.89453 17.0313 3.96484C17.0859 4.03125 17.1484 4.15234 17.1641 4.23828C17.1875 4.35938 17.1758 4.4375 17.1133 4.57813C17.0625 4.69531 16.9805 4.79688 16.9023 4.84375C16.7813 4.92188 16.7227 4.92188 13.8242 4.90234L13.668 4.73828C13.5313 4.58594 13.5156 4.55078 13.5156 4.36328C13.5156 4.21094 13.5391 4.125 13.6133 4.01563C13.668 3.93359 13.7148 3.86719 13.7188 3.86719Z" fill="white"/>
<path d="M1.7266 3.96492C1.77738 3.91023 1.88675 3.83992 1.97269 3.80867C2.09769 3.76179 2.38285 3.75398 3.4766 3.76179C4.67581 3.76961 4.83988 3.77742 4.94925 3.83992C5.01956 3.87508 5.11332 3.96492 5.15628 4.03133C5.20707 4.11726 5.23441 4.23054 5.23441 4.35554C5.23441 4.48445 5.20707 4.58992 5.15628 4.66804C5.11332 4.73445 5.02738 4.81648 4.96878 4.85164C4.87503 4.91414 4.7266 4.92195 3.418 4.92195C2.043 4.92195 1.96488 4.91804 1.84769 4.84383C1.77738 4.80086 1.69925 4.72664 1.67191 4.67976C1.64847 4.62898 1.61331 4.53914 1.59769 4.47273C1.57816 4.40633 1.57816 4.29304 1.6016 4.21101C1.62503 4.12898 1.67972 4.01961 1.7266 3.96492Z" fill="white"/>
<path d="M3.23438 0.421875C3.26562 0.328125 3.34375 0.21875 3.44531 0.136719C3.58203 0.0234375 3.64062 0 3.79688 0C3.92969 0 4.02734 0.0273438 4.12891 0.09375C4.21094 0.148438 4.60156 0.375 5 0.605469C5.39844 0.832031 5.78125 1.07813 5.84766 1.15234C5.92578 1.23438 5.98828 1.34766 6 1.43359C6.01953 1.53906 6.00391 1.63672 5.94922 1.75781C5.89844 1.88281 5.83203 1.96094 5.72266 2.02344C5.60547 2.08984 5.52344 2.10938 5.39062 2.09766C5.25 2.08594 5.03906 1.98047 4.35547 1.58594C3.88281 1.3125 3.44531 1.04297 3.38672 0.984375C3.32812 0.925781 3.25781 0.808594 3.23438 0.722656C3.20313 0.605469 3.20313 0.527344 3.23438 0.421875Z" fill="white"/>
<path d="M12.9336 1.10543C12.9844 1.05855 13.4219 0.792928 13.9062 0.511678C14.6484 0.0819906 14.8125 0.00386556 14.9492 0.00386556C15.0625 -4.06902e-05 15.168 0.0312093 15.2734 0.0976156C15.3828 0.164022 15.4492 0.246053 15.4922 0.359334C15.5312 0.468709 15.5469 0.574178 15.5312 0.664022C15.5156 0.738241 15.4727 0.855428 15.4297 0.917928C15.3789 0.999959 15.0938 1.18746 14.4453 1.55855C13.8242 1.91793 13.4844 2.0898 13.3789 2.10152C13.2617 2.11715 13.1797 2.09762 13.0547 2.0273C12.9414 1.9648 12.8594 1.88277 12.8125 1.7773C12.7695 1.69137 12.7344 1.58199 12.7344 1.53512C12.7344 1.48433 12.7578 1.38668 12.7891 1.32027C12.8164 1.24996 12.8828 1.1523 12.9336 1.10543Z" fill="white"/>
<path d="M8.25391 0.910082C8.29688 0.828051 8.38281 0.749926 8.48828 0.703051H8.48438C8.62891 0.632738 8.70312 0.624926 9.00391 0.640551C9.19531 0.656176 9.48828 0.699145 9.64844 0.74602C9.80859 0.788988 10.0625 0.890551 10.2148 0.968676C10.3711 1.05071 10.6094 1.23039 10.7734 1.38664C10.9336 1.53508 11.1328 1.77336 11.2227 1.91399C11.3086 2.05461 11.4297 2.29289 11.4922 2.44133C11.5547 2.58977 11.6367 2.84758 11.6797 3.00774C11.7188 3.16789 11.7734 3.45696 11.8008 3.65227C11.8281 3.87102 11.8359 4.22649 11.8242 4.58977C11.8086 4.93743 11.7695 5.32024 11.7266 5.52727C11.6836 5.71868 11.5781 6.09758 11.4883 6.36711C11.4023 6.63664 11.3281 6.86711 11.3281 6.88664C11.3281 6.90227 12.582 6.91399 14.1094 6.91399C16.5039 6.91399 16.9258 6.92571 17.1289 6.97649C17.2578 7.01164 17.4766 7.09368 17.6172 7.16008C17.7773 7.23821 17.9648 7.37493 18.125 7.53899C18.2773 7.69133 18.4219 7.88664 18.4922 8.02727C18.5547 8.15618 18.6367 8.36711 18.6797 8.49602C18.7227 8.64055 18.75 8.85149 18.75 9.05461C18.75 9.25774 18.7227 9.48039 18.6719 9.66008C18.6289 9.81243 18.5391 10.0546 18.4727 10.1952C18.4062 10.3359 18.293 10.5312 18.0859 10.8202L18.1719 11.1015C18.2344 11.3085 18.2578 11.4882 18.2578 11.7577C18.2578 11.9843 18.2305 12.2265 18.1914 12.3827C18.1523 12.5234 18.0703 12.7499 18.0039 12.8906C17.9375 13.0312 17.8242 13.2343 17.6094 13.5351L17.6914 13.8085C17.75 14.0116 17.7734 14.1835 17.7734 14.4726C17.7734 14.6991 17.7461 14.9609 17.7109 15.0976C17.6758 15.2265 17.5977 15.4452 17.5312 15.5859C17.4687 15.7265 17.3555 15.9296 17.2773 16.0351C17.1914 16.1601 17.1484 16.2577 17.1602 16.3085C17.168 16.3515 17.207 16.4921 17.2422 16.621C17.2773 16.7499 17.3047 16.996 17.3047 17.1679C17.3047 17.3515 17.2734 17.6093 17.2266 17.7929C17.1836 17.9648 17.0977 18.2109 17.0352 18.3398C16.9727 18.4687 16.832 18.6913 16.7227 18.8359C16.6133 18.9843 16.4062 19.1991 16.2578 19.3163C16.1133 19.4374 15.8828 19.5937 15.7422 19.664C15.6016 19.7382 15.3398 19.8437 14.8242 19.9999H4.41406V15.539C4.41406 11.789 4.42188 10.9921 4.47266 10.5663C4.50781 10.289 4.57422 9.84758 4.62891 9.58977C4.67969 9.33196 4.79297 8.89446 4.87891 8.61321C4.96484 8.33196 5.12109 7.89446 5.22656 7.63664C5.33203 7.37883 5.55078 6.90618 5.71484 6.58196C5.875 6.26164 6.25 5.55852 6.55078 5.01946C6.85156 4.4843 7.17969 3.88664 7.27344 3.69133C7.37109 3.49602 7.52344 3.1718 7.60938 2.96868C7.69531 2.76555 7.82031 2.44133 7.88672 2.24602C7.94922 2.05071 8.04688 1.69914 8.09766 1.46477C8.14844 1.23039 8.21875 0.976489 8.25391 0.910082Z" fill="white"/>
<path d="M0.101562 8.48438C0.160156 8.39062 0.261719 8.28125 0.328125 8.23828C0.445312 8.16797 0.53125 8.16406 3.78906 8.16406L3.69141 8.50391C3.63672 8.69531 3.55469 9.00781 3.51172 9.19922C3.46875 9.39062 3.39453 9.77734 3.34766 10.0586C3.26593 10.5528 3.26563 10.6749 3.24245 19.8954L3.24219 20H1.83594C0.445313 20 0.429688 20 0.292969 19.9102C0.21875 19.8633 0.121094 19.7539 0.078125 19.668C0.00390625 19.5156 0 19.4102 0 8.65234L0.101562 8.48438Z" fill="white"/>
</svg>
