<svg width="221" height="220" viewBox="0 0 221 220" fill="none" xmlns="http://www.w3.org/2000/svg">
<g opacity="0.4">
<path d="M217.913 114.75C218.339 110.962 218.143 107.08 217.09 103.456C216.051 99.8576 214.125 96.4982 211.386 94.2354C210.709 93.6672 209.991 93.1688 209.244 92.7351C208.491 92.3115 207.704 91.9775 206.906 91.7084C205.311 91.1701 203.64 90.9807 202 91.0554C198.704 91.2299 195.528 92.471 192.643 94.2553C192.468 94.365 192.267 94.4846 192.117 94.5893L191.7 94.8983C191.429 95.1226 191.158 95.3319 190.898 95.5761C190.371 96.0447 189.864 96.573 189.383 97.1611C188.419 98.3125 187.511 99.6433 186.704 101.084C185.053 103.965 183.648 107.224 182.329 110.589C179.705 117.357 177.398 124.579 174.809 131.881C174.162 133.71 173.49 135.545 172.787 137.384C172.1 139.228 171.357 141.072 170.585 142.926C169.025 146.635 167.334 150.348 165.036 154.111C164.454 155.053 163.827 156 163.105 156.952C162.744 157.425 162.347 157.909 161.931 158.377C161.51 158.836 161.078 159.27 160.632 159.683C158.836 161.343 156.849 162.614 154.867 163.621C150.889 165.644 146.926 166.731 143.108 167.857C139.28 168.939 135.543 169.981 131.951 171.316C128.369 172.642 124.933 174.262 121.827 176.296C118.712 178.314 115.973 180.806 113.755 183.662C111.548 186.533 109.802 189.738 109.02 192.968C108.628 194.578 108.458 196.173 108.548 197.678C108.648 199.178 108.999 200.574 109.591 201.775C110.755 204.187 112.772 205.797 115.16 206.57C116.354 206.969 117.648 207.153 118.983 207.173C120.322 207.173 121.707 207.009 123.102 206.67C123.448 206.585 123.799 206.485 124.145 206.381L125.389 206.007C126.212 205.748 127.03 205.478 127.837 205.179C129.453 204.586 131.033 203.923 132.608 203.171C135.754 201.675 138.894 199.786 142.376 197.778C145.842 195.764 149.695 193.726 153.799 192.091C157.913 190.486 162.197 189.255 166.476 188.477C167.013 188.368 167.545 188.293 168.082 188.203L169.516 187.974C170.309 187.839 171.112 187.685 171.919 187.515C173.525 187.161 175.125 186.728 176.69 186.219C182.956 184.171 188.6 180.921 192.894 176.341C195.062 174.063 196.968 171.491 198.583 168.61C199.401 167.175 200.148 165.659 200.801 164.074C201.478 162.494 202.05 160.84 202.577 159.14C203.088 157.435 203.535 155.681 203.896 153.882C204.072 153.039 204.257 151.933 204.448 150.936C204.659 149.919 204.869 148.907 205.11 147.906C206.083 143.893 207.322 140.001 208.812 136.257C210.272 132.504 211.973 128.906 213.674 125.372C214.531 123.602 215.384 121.848 216.167 120.089C216.939 118.329 217.672 116.53 217.913 114.76V114.75ZM219.418 114.91C219.307 115.967 219.036 116.949 218.745 117.91C218.455 118.872 218.108 119.799 217.772 120.722C217.09 122.566 216.383 124.38 215.756 126.214C215.118 128.043 214.546 129.888 214.06 131.747C213.573 133.606 213.202 135.485 212.891 137.359C212.304 141.122 212.103 144.9 212.279 148.633C212.314 149.565 212.384 150.497 212.455 151.419C212.545 152.366 212.64 153.204 212.73 154.3C212.906 156.389 212.981 158.512 212.921 160.655C212.811 164.942 212.159 169.343 210.759 173.649C209.369 177.946 207.217 182.137 204.357 185.831C201.503 189.529 198.011 192.744 194.189 195.36C190.361 197.982 186.212 200.016 181.928 201.496C179.786 202.244 177.603 202.847 175.381 203.325C174.272 203.569 173.148 203.769 172.01 203.933L169.245 204.332C165.804 204.88 162.478 205.613 159.242 206.705C155.986 207.746 152.801 209.172 149.359 210.821C145.933 212.466 142.21 214.36 138.152 215.93C136.13 216.713 134.043 217.426 131.921 218.004C130.862 218.293 129.794 218.552 128.725 218.786L127.12 219.115C126.513 219.22 125.901 219.32 125.284 219.399C122.816 219.708 120.257 219.728 117.699 219.32C115.145 218.931 112.596 218.113 110.249 216.837C107.906 215.561 105.784 213.807 104.128 211.699C102.463 209.6 101.274 207.158 100.657 204.656C100.025 202.154 99.9443 199.617 100.255 197.234C100.556 194.847 101.244 192.609 102.152 190.551C104.018 186.439 106.627 183.009 109.536 180.014C110.991 178.499 112.571 177.123 114.202 175.832C115.847 174.561 117.563 173.395 119.324 172.338C126.382 168.102 134.118 165.674 141.217 162.604C144.754 161.089 148.16 159.374 150.834 157.256C152.158 156.189 153.277 155.028 154.115 153.802C154.326 153.498 154.516 153.184 154.697 152.87C154.872 152.561 155.038 152.247 155.204 151.903C155.54 151.215 155.856 150.452 156.157 149.66C156.759 148.07 157.286 146.336 157.777 144.566C158.294 142.802 158.745 140.977 159.222 139.143L160.637 133.581C161.113 131.707 161.6 129.828 162.122 127.944C164.224 120.408 166.662 112.757 170.404 105.29C172.301 101.567 174.513 97.8788 177.448 94.4347C178.195 93.5824 178.968 92.7401 179.816 91.9327C180.648 91.1202 181.546 90.3377 182.52 89.615C183.483 88.8873 184.521 88.2094 185.635 87.6213C186.177 87.3173 186.769 87.0581 187.351 86.8039L188.249 86.455C188.54 86.3503 188.791 86.2756 189.061 86.1858C191.199 85.508 193.421 85.0145 195.694 84.8002C197.966 84.5859 200.289 84.6657 202.546 85.1043C204.804 85.5279 206.976 86.3653 208.918 87.5017C209.886 88.0749 210.794 88.7278 211.622 89.4555C212.46 90.1682 213.222 90.9508 213.909 91.7781C216.664 95.1076 218.204 99.0501 218.986 102.988C219.769 106.945 219.809 110.957 219.408 114.895L219.418 114.91Z" fill="#EAECF0"/>
<path d="M68.228 18.1953C72.6678 17.5673 76.9721 16.1717 81.1059 14.4023C85.2497 12.6478 89.238 10.5345 93.2615 8.37634C95.2832 7.3147 97.2999 6.21318 99.3869 5.18145C101.474 4.13476 103.621 3.13791 105.919 2.29558C108.216 1.46321 110.664 0.760437 113.379 0.476336C116.068 0.197219 119.098 0.381636 122.052 1.44826C122.785 1.70744 123.492 2.06132 124.215 2.3853C124.902 2.75911 125.579 3.16782 126.251 3.58151C126.879 4.03508 127.506 4.50858 128.113 4.99703C128.675 5.51041 129.231 6.03375 129.788 6.56208C131.815 8.6106 133.541 11.028 134.9 13.5948C136.27 16.1667 137.218 18.8881 137.88 21.5696C138.527 24.2611 138.894 26.9127 139.074 29.4945C139.43 34.6582 139.149 39.5328 138.803 44.1681L138.251 50.9815C138.161 52.093 138.101 53.1895 138.026 54.2811L137.93 55.9059L137.865 57.5109C137.82 59.6391 137.795 61.7225 137.956 63.7461C138.076 65.7747 138.377 67.7634 138.813 69.5926C139.275 71.4866 140.012 73.4654 140.89 75.4491C141.773 77.4378 142.782 79.4465 143.875 81.4551C146.063 85.4874 148.541 89.5146 150.959 93.6715L152.755 96.8215C153.337 97.8931 153.914 98.9697 154.461 100.071C155.579 102.264 156.578 104.557 157.375 106.974C158.153 109.392 158.7 111.979 158.68 114.64C158.67 117.297 158.032 119.978 156.869 122.306C156.302 123.487 155.574 124.539 154.822 125.561L153.618 127.006C153.206 127.465 152.785 127.878 152.364 128.317C150.648 130.011 148.797 131.581 146.78 132.947C144.748 134.278 142.601 135.464 140.333 136.386C139.762 136.606 139.205 136.865 138.623 137.059L136.877 137.647C135.698 137.976 134.509 138.315 133.305 138.554C128.489 139.576 123.502 139.796 118.591 139.367C116.133 139.163 113.685 138.834 111.267 138.35C108.838 137.901 106.455 137.273 104.093 136.591C102.924 136.222 101.735 135.883 100.576 135.469L98.83 134.866L97.1043 134.218C94.8116 133.331 92.5591 132.359 90.3367 131.312C89.233 130.784 88.1344 130.236 87.0357 129.692C85.9571 129.124 84.8685 128.546 83.7999 127.953C82.7414 127.345 81.6628 126.762 80.6193 126.129C79.5808 125.486 78.5223 124.873 77.4989 124.205L71.5992 120.417C70.641 119.799 69.6678 119.221 68.7046 118.618L67.2547 117.725L65.7949 116.863C58.0139 112.203 50.0173 108.2 41.7898 104.542C37.646 102.718 33.4671 100.963 29.0373 98.9797C26.8249 97.9978 24.5624 96.8913 22.2196 95.5854C19.8968 94.2646 17.4788 92.7244 15.1911 90.7806C12.8985 88.8567 10.7714 86.549 9.04061 84.0868C7.27974 81.6296 5.95031 79.0427 4.84663 76.5108C4.26469 75.2398 3.82322 73.9837 3.35666 72.7178C3.13592 72.0897 2.94529 71.4667 2.7396 70.8437C2.53893 70.2207 2.33325 69.6026 2.16268 68.9297L1.64094 66.951L1.3901 65.9591L1.19445 64.9324C0.943613 63.5617 0.67271 62.216 0.577392 60.7855C0.512174 60.0827 0.44194 59.38 0.39679 58.6722V56.514V55.4374C0.406823 55.0786 0.45699 54.7147 0.487091 54.3509L0.707827 52.1877C0.818195 51.47 0.988764 50.7473 1.12923 50.0345L1.36 48.9679C1.4503 48.614 1.5707 48.2651 1.67606 47.9162C1.89679 47.2184 2.11251 46.5256 2.3483 45.8378C2.62923 45.1649 2.92522 44.502 3.22121 43.8441C4.48542 41.2573 6.03559 38.8449 7.91687 36.8612L8.59914 36.0986C8.83493 35.8594 9.08576 35.6301 9.32657 35.4008C9.81821 34.9423 10.2998 34.4738 10.7965 34.0401C11.8349 33.2327 12.8383 32.3754 13.9219 31.6975C16.0339 30.2172 18.2764 29.1057 20.4988 28.0541C22.7513 27.0772 24.9988 26.19 27.2814 25.4972C31.8316 24.0567 36.4019 23.03 40.9621 22.1876C42.1059 21.9883 43.2397 21.759 44.3835 21.5895C45.5223 21.4051 46.6561 21.1908 47.7948 21.0263C48.9336 20.8469 50.0724 20.6824 51.2062 20.5179L54.6126 20.0245L68.2079 18.1803L68.228 18.1953ZM68.4788 19.6706C63.9738 20.3186 59.5039 21.136 55.0942 22.1777L53.4437 22.5714L51.8032 23.0051C50.7046 23.2792 49.626 23.6131 48.5474 23.9371C46.3801 24.5651 44.253 25.3028 42.151 26.0803C37.952 27.6454 33.8985 29.5294 30.161 31.7574C28.2748 32.8439 26.5189 34.08 24.8333 35.341C23.1978 36.6569 21.6176 37.9926 20.2931 39.4729C19.5808 40.1707 19.0189 40.9682 18.3968 41.7009L17.5891 42.8672C17.4587 43.0616 17.3182 43.246 17.1878 43.4404L16.8517 44.0435C15.8935 45.6135 15.2563 47.2583 14.7948 48.9081C14.6995 49.3268 14.5991 49.7405 14.4838 50.1492L14.2931 51.4152C14.263 51.6245 14.2179 51.8288 14.1978 52.0432L14.1727 52.6911C14.1577 53.1247 14.1175 53.5434 14.1125 53.9721L14.1577 55.2829C14.1677 55.5022 14.1577 55.7116 14.1828 55.9359L14.268 56.6037L14.4135 57.9345L14.6844 59.2952C15.0155 61.1045 15.5874 62.9636 16.2296 64.8277C16.365 65.2863 16.5657 65.7747 16.7563 66.2582C16.947 66.7367 17.1276 67.2301 17.3232 67.6986C17.7396 68.6107 18.1209 69.5578 18.5624 70.4051C19.4252 72.1396 20.3533 73.7146 21.3868 75.0454C22.4252 76.3861 23.544 77.5325 24.8684 78.5942C27.4871 80.7075 31.0891 82.5566 35.1477 84.4606C37.1644 85.4126 39.2614 86.3646 41.3985 87.3465C43.5306 88.3134 45.6778 89.3651 47.83 90.4118C56.4587 94.6484 64.8969 99.5728 72.8685 105.006L74.3685 106.017L75.8484 107.054C76.8317 107.752 77.83 108.43 78.7982 109.138L84.4722 113.299C86.2832 114.615 88.1143 115.891 89.9605 117.152L92.7498 118.991C93.6879 119.584 94.626 120.183 95.5692 120.766C97.4705 121.897 99.3718 123.049 101.323 124.07L102.778 124.858L104.248 125.605C105.226 126.119 106.225 126.552 107.218 127.031C111.211 128.815 115.305 130.345 119.499 131.317C121.596 131.826 123.708 132.13 125.825 132.339C127.947 132.563 130.064 132.533 132.161 132.359C136.365 132.025 140.429 130.754 144.076 128.676C145.882 127.609 147.583 126.348 149.133 124.903C149.509 124.534 149.915 124.175 150.272 123.796L151.285 122.66C151.887 121.857 152.469 121.045 152.9 120.163C153.803 118.423 154.26 116.499 154.225 114.506C154.2 112.512 153.713 110.458 152.93 108.46C152.158 106.451 151.084 104.502 149.92 102.583C148.726 100.679 147.412 98.8102 146.012 96.971C143.223 93.2877 140.173 89.694 137.183 85.8612C135.693 83.9373 134.228 81.9386 132.838 79.8053C131.454 77.6721 130.134 75.3993 129.041 72.8623C126.838 67.6687 125.986 62.4203 125.619 57.3663C124.957 47.2882 126.251 38.0126 126.066 29.6989C125.981 25.552 125.519 21.7241 124.305 18.3348C123.703 16.6302 122.875 15.0403 121.852 13.5051C120.894 12.0996 119.84 10.9632 118.526 10.1408C117.221 9.30839 115.601 8.7352 113.725 8.51091C111.853 8.27666 109.787 8.36139 107.685 8.6405C105.578 8.91962 103.425 9.38315 101.263 9.93142C99.116 10.5146 96.9488 11.1575 94.7966 11.8703C90.4822 13.2709 86.1979 14.8658 81.8434 16.2913C77.4939 17.7268 73.0641 18.9878 68.4738 19.6756L68.4788 19.6706Z" fill="#EAECF0"/>
<path d="M89.0677 187.735C87.5226 188.128 86.0677 188.368 84.648 188.527C83.9356 188.622 83.2483 188.672 82.551 188.731C81.8687 188.771 81.1764 188.811 80.5041 188.821C79.1496 188.876 77.8352 188.836 76.5209 188.796C71.2984 188.592 66.3068 187.794 61.3904 187.042L59.6446 186.783L58.872 186.668L58.0794 186.608C57.5526 186.558 57.0008 186.573 56.4539 186.558C55.9021 186.583 55.3452 186.603 54.7784 186.648C54.2115 186.698 53.6496 186.748 53.0727 186.842C52.5058 186.922 51.9288 187.017 51.3469 187.127C50.1981 187.361 49.0242 187.61 47.8653 187.929C43.1797 189.16 38.5492 190.979 33.382 192.156C30.7833 192.699 27.994 193.098 25.0342 192.784C23.5492 192.664 22.0693 192.29 20.6094 191.817C19.897 191.552 19.1646 191.283 18.4873 190.939C18.1412 190.77 17.785 190.61 17.4539 190.431L16.4706 189.853C15.1562 189.07 13.9773 188.148 12.8485 187.176C12.2766 186.683 11.7298 186.085 11.1729 185.527C10.6311 184.948 10.1796 184.325 9.68296 183.707C9.20136 183.089 8.81507 182.441 8.38865 181.788C8.17293 181.464 8.00236 181.13 7.82176 180.802L7.28998 179.795L7.02911 179.286L6.80838 178.773L6.37694 177.736C6.0659 177.048 5.85018 176.356 5.62443 175.653C4.73145 172.862 4.25486 170.021 4.09934 167.215C3.96389 164.413 4.12944 161.637 4.55587 158.926C4.98731 156.219 5.73982 153.588 6.70303 151.051C6.95386 150.418 7.21473 149.795 7.4756 149.172C7.75152 148.554 8.06256 147.945 8.35855 147.337C8.64952 146.729 8.97561 146.131 9.31173 145.543C9.64785 144.955 9.97393 144.367 10.3452 143.794C11.7649 141.501 13.4254 139.348 15.1813 137.339C16.9522 135.335 18.8335 133.461 20.8653 131.797C22.882 130.127 24.994 128.622 27.2415 127.376C29.489 126.139 31.882 125.187 34.3853 124.649C36.9088 124.116 39.5977 124.176 42.1512 124.829C44.7048 125.467 47.1329 126.593 49.4255 127.899C54.0058 130.546 58.2098 133.84 62.0777 137.299C64.0192 139.039 65.8402 140.848 67.571 142.707C67.8118 142.986 67.9523 143.061 68.1078 143.205L68.5593 143.599C68.9105 143.833 69.1764 144.108 69.5426 144.322L70.0392 144.671C70.2198 144.78 70.4055 144.88 70.576 145C70.9071 145.234 71.3285 145.423 71.6797 145.648C73.2299 146.5 74.9908 147.327 77.0225 148.13L80.2182 149.381L81.9289 150.049L83.7149 150.782C84.9239 151.265 86.1981 151.873 87.4924 152.511C88.7968 153.199 90.1413 153.942 91.4958 154.884C92.8553 155.85 94.2249 156.912 95.4991 158.283C96.7634 159.629 97.9473 161.179 98.8403 162.898L99.1864 163.536L99.4824 164.194C99.6731 164.633 99.8737 165.071 100.044 165.515C100.335 166.397 100.661 167.304 100.832 168.186L101.113 169.517L101.283 170.813C101.414 171.695 101.419 172.513 101.449 173.35C101.459 173.574 101.464 173.744 101.464 173.998C101.464 174.337 101.444 174.671 101.419 175.01C101.399 175.668 101.268 176.39 101.113 177.093C101.078 177.263 101.038 177.442 100.987 177.612L100.817 178.145C100.696 178.494 100.571 178.843 100.441 179.187C100.14 179.855 99.7935 180.517 99.4072 181.116C99.2065 181.405 99.0008 181.694 98.7901 181.973C98.6848 182.117 98.5744 182.257 98.469 182.386L98.1329 182.755C97.9122 182.995 97.6814 183.229 97.4456 183.463C97.2149 183.697 96.9891 183.867 96.7533 184.071C96.5226 184.261 96.2868 184.455 96.051 184.629L95.3637 185.093C95.1329 185.237 94.8971 185.407 94.6714 185.527L94.0042 185.89C92.2182 186.817 90.5878 187.336 89.0426 187.735H89.0677Z" fill="#EAECF0"/>
<path d="M160.23 59.7893C159.934 58.0897 159.839 56.4798 159.884 54.9197C159.929 51.7996 160.637 48.9436 161.414 46.1624C162.202 43.3762 163.155 40.6648 164.349 38.0531C165.563 35.4513 167.048 32.9542 168.894 30.6664C170.745 28.3837 172.873 26.2404 175.411 24.4112C177.964 22.6119 181.13 21.2911 184.607 20.7727C186.337 20.5185 188.143 20.4687 189.904 20.6681C191.66 20.8774 193.356 21.321 194.836 21.9889C196.331 22.6468 197.605 23.4842 198.704 24.3714C199.812 25.2635 200.771 26.2105 201.699 27.1575C202.185 27.6859 202.622 28.2541 203.008 28.8671C203.369 29.4902 203.67 30.1481 203.931 30.8359C204.413 32.2066 204.719 33.6669 204.914 35.1572C205.311 38.1378 205.396 41.3227 205.015 44.3781C204.633 47.4284 203.685 50.2744 202.19 52.7017C200.695 55.129 198.739 57.1925 196.431 58.8423C194.133 60.507 191.434 61.6982 188.791 62.7848C186.107 63.8415 183.513 64.8383 181.045 65.9947C178.531 67.1111 176.189 68.4419 173.184 69.369C172.426 69.5933 171.623 69.8026 170.72 69.8973C169.832 70.0119 168.854 70.0319 167.791 69.8525C166.647 69.663 165.277 69.0251 164.269 68.1478C164.023 67.9285 163.767 67.6943 163.556 67.455C163.346 67.2208 163.14 66.9766 162.939 66.7224C162.593 66.2439 162.247 65.7255 162.006 65.252C161.725 64.7436 161.535 64.295 161.329 63.8016C161.158 63.353 160.968 62.8596 160.847 62.4259L160.652 61.7481L160.486 61.0902C160.381 60.6466 160.306 60.2279 160.225 59.7993L160.23 59.7893Z" fill="#EAECF0"/>
</g>
<path d="M50.3186 205.075C54.1715 208.903 60.4223 208.903 64.2752 205.075C68.128 201.247 68.128 195.037 64.2752 191.209C60.4223 187.381 54.1715 187.381 50.3186 191.209C46.4658 195.037 46.4658 201.247 50.3186 205.075Z" fill="#EAECF0"/>
<path d="M60.8839 192.325C60.9191 192.784 60.7786 193.257 60.5177 193.656C60.2619 194.06 59.8756 194.384 59.4441 194.598C59.0027 194.807 58.4659 194.882 57.9943 194.723C57.5278 194.573 57.1364 194.264 56.8906 193.88C57.2619 194.145 57.6682 194.329 58.0746 194.399C58.2803 194.434 58.4809 194.439 58.6816 194.399C58.8823 194.374 59.0729 194.299 59.2585 194.214C59.3488 194.169 59.4441 194.12 59.5344 194.065C59.6197 194.005 59.71 193.955 59.7903 193.885C59.9609 193.766 60.1064 193.611 60.2468 193.457C60.5227 193.138 60.7385 192.754 60.8839 192.32V192.325Z" fill="#D0D5DD"/>
<path d="M57.3373 192.888C57.2871 192.574 57.3724 192.235 57.543 191.951C57.7135 191.662 57.9794 191.428 58.2854 191.278C58.5965 191.124 58.9878 191.084 59.3139 191.204C59.6399 191.318 59.9058 191.548 60.0513 191.832C59.7754 191.672 59.4995 191.563 59.2336 191.533C58.9627 191.493 58.7119 191.558 58.4711 191.667C57.9744 191.906 57.5831 192.31 57.3323 192.888H57.3373Z" fill="#D0D5DD"/>
<path d="M57.2919 202.753C57.4173 203.037 57.4173 203.376 57.3169 203.685C57.2166 203.994 57.0109 204.283 56.745 204.477C56.4741 204.686 56.1079 204.791 55.7718 204.736C55.4407 204.686 55.1447 204.522 54.944 204.283C55.24 204.372 55.526 204.417 55.7868 204.402C56.0527 204.387 56.2785 204.288 56.4791 204.133C56.6899 203.974 56.8654 203.779 57.0009 203.55C57.1363 203.316 57.2317 203.052 57.2818 202.748L57.2919 202.753Z" fill="#D0D5DD"/>
<path d="M55.2499 203.864C55.1345 203.674 55.1244 203.43 55.1846 203.206C55.2499 202.982 55.3903 202.772 55.581 202.633C55.7766 202.483 56.0475 202.409 56.2883 202.453C56.5241 202.498 56.7298 202.628 56.8502 202.817C56.6345 202.782 56.4439 202.767 56.2733 202.792C56.1077 202.817 55.9723 202.877 55.8469 202.972C55.576 203.176 55.3853 203.445 55.2549 203.864H55.2499Z" fill="#D0D5DD"/>
<path d="M53.74 193.93C53.9105 194.085 54.0109 194.314 54.0209 194.558C54.0259 194.807 53.9256 195.067 53.74 195.251C53.5493 195.45 53.2584 195.53 53.0176 195.495C52.7767 195.465 52.556 195.366 52.3955 195.201C52.6212 195.201 52.8269 195.201 53.0075 195.161C53.1881 195.126 53.3286 195.062 53.4289 194.952C53.5393 194.837 53.6296 194.693 53.6798 194.528C53.7299 194.359 53.745 194.159 53.7349 193.935L53.74 193.93Z" fill="#D0D5DD"/>
<path d="M52.5159 194.882C52.3705 194.793 52.2852 194.628 52.2701 194.449C52.2551 194.264 52.3253 194.07 52.4658 193.935C52.6063 193.786 52.832 193.731 53.0076 193.761C53.1832 193.791 53.3337 193.875 53.429 194.015C53.2634 194.045 53.128 194.06 53.0126 194.095C52.8972 194.13 52.827 194.174 52.7718 194.234C52.7066 194.299 52.6464 194.379 52.6062 194.483C52.5611 194.588 52.536 194.718 52.5159 194.882Z" fill="#D0D5DD"/>
<path d="M60.5929 204.268C60.4875 204.472 60.2868 204.626 60.046 204.691C59.8052 204.761 59.5293 204.726 59.3036 204.592C59.0628 204.457 58.9173 204.193 58.8872 203.954C58.8571 203.714 58.9022 203.48 59.0226 203.286C59.0828 203.505 59.133 203.704 59.2133 203.869C59.2935 204.033 59.3888 204.153 59.5243 204.228C59.6597 204.307 59.8253 204.357 60.0009 204.362C60.1815 204.372 60.3771 204.332 60.5929 204.268Z" fill="#D0D5DD"/>
<path d="M59.3687 203.321C59.4239 203.161 59.5593 203.037 59.7299 202.977C59.9055 202.917 60.1112 202.942 60.2818 203.036C60.4624 203.136 60.5727 203.341 60.5828 203.515C60.5978 203.689 60.5476 203.854 60.4373 203.984C60.367 203.829 60.3169 203.704 60.2567 203.605C60.1965 203.505 60.1363 203.445 60.066 203.405C59.9858 203.36 59.8955 203.321 59.7851 203.306C59.6747 203.286 59.5393 203.296 59.3737 203.316L59.3687 203.321Z" fill="#D0D5DD"/>
<path d="M63.9741 197.364C63.9992 197.594 63.924 197.828 63.7634 198.022C63.6029 198.212 63.3521 198.341 63.0912 198.356C62.8153 198.381 62.5444 198.241 62.3888 198.062C62.2283 197.878 62.133 197.658 62.123 197.434C62.2935 197.584 62.449 197.718 62.6096 197.808C62.7701 197.903 62.9156 197.942 63.0661 197.932C63.2266 197.922 63.3872 197.873 63.5377 197.778C63.6932 197.683 63.8337 197.544 63.9741 197.369V197.364Z" fill="#D0D5DD"/>
<path d="M62.4239 197.269C62.3788 197.105 62.4239 196.93 62.5293 196.781C62.6396 196.636 62.8253 196.537 63.0209 196.527C63.2266 196.507 63.4323 196.616 63.5376 196.751C63.648 196.891 63.7032 197.05 63.6831 197.22C63.5427 197.13 63.4273 197.055 63.3169 197.005C63.2065 196.955 63.1263 196.94 63.046 196.95C62.9557 196.955 62.8554 196.98 62.755 197.025C62.6497 197.075 62.5443 197.155 62.4189 197.264L62.4239 197.269Z" fill="#D0D5DD"/>
<path d="M50.9056 199.587C50.9307 199.817 50.8554 200.051 50.6949 200.245C50.5343 200.435 50.2835 200.564 50.0226 200.579C49.7467 200.604 49.4758 200.465 49.3203 200.285C49.1598 200.101 49.0644 199.886 49.0544 199.657C49.225 199.807 49.3805 199.941 49.541 200.031C49.7016 200.126 49.8471 200.166 49.9976 200.156C50.1581 200.146 50.3186 200.096 50.4691 200.001C50.6246 199.906 50.7651 199.767 50.9056 199.592V199.587Z" fill="#D0D5DD"/>
<path d="M49.3554 199.493C49.3102 199.328 49.3554 199.154 49.4607 199.004C49.5711 198.86 49.7567 198.76 49.9524 198.75C50.1581 198.73 50.3637 198.84 50.4691 198.979C50.5795 199.119 50.6346 199.278 50.6146 199.448C50.4741 199.358 50.3587 199.283 50.2484 199.233C50.138 199.184 50.0577 199.169 49.9775 199.179C49.8872 199.184 49.7868 199.208 49.6865 199.253C49.5811 199.303 49.4758 199.383 49.3504 199.493H49.3554Z" fill="#D0D5DD"/>
<path d="M193.251 28.5639L193.298 25.3711L195.427 27.7398L197.725 27.0287L196.597 29.0584L197.678 30.1839L196.01 30.3534L195.981 32.5055L194.142 30.9892L192.644 32.2277L192.815 30.4052L190.634 29.4022L193.251 28.5639Z" fill="white"/>
<path d="M191.236 190.668L194.18 191.94L191.161 192.976L190.928 195.358L189.483 193.541L188.013 194.096L188.506 192.5L186.516 191.638L188.639 190.541L188.07 188.695L189.696 189.552L191.464 187.941L191.236 190.668Z" fill="white"/>
<path d="M44.6978 196.993L41.797 200.963L41.2329 196.117L37.7064 194.987L40.9295 193.423L40.5788 191.054L42.8302 192.317L44.7878 189.632L45.7453 193.155L48.7267 192.919L46.8923 195.062L48.7409 198.241L44.6978 196.993Z" fill="white"/>
<path d="M176.325 161.048L178.041 164.448L179.742 161.194L182.994 161.749L181.264 158.33L183.676 156.046L180.264 156.169L179.581 152.844L177.775 156.287L173.234 155.943L175.912 158.693L173.429 160.581L176.325 161.048Z" fill="white"/>
<path d="M96.9694 28.4792L97.7942 27.1042L96.249 27.2407L95.7134 25.9692L94.8839 27.3537L93.5188 27.0194L94.3388 28.1967L93.3055 29.1903L94.9455 29.0443L95.8508 30.7255L96.2253 29.1574L97.4624 29.6047L96.9694 28.4792Z" fill="white"/>
<path d="M187.174 101.048L186.885 100.144L186.34 100.878L185.568 100.614L185.852 101.519L185.169 101.985L186.013 102.088L186.051 102.931L186.629 102.154L187.729 102.418L187.179 101.641L187.862 101.274L187.174 101.048Z" fill="white"/>
<path d="M199.479 153.809L200.19 153.178L199.294 152.985L199.218 152.175L198.503 152.811L197.796 152.382L198.048 153.188L197.289 153.569L198.237 153.772L198.451 154.878L198.939 154.059L199.555 154.53L199.479 153.809Z" fill="white"/>
<path d="M179.197 44.1419L179.903 43.5109L179.008 43.3178L178.932 42.5078L178.221 43.1436L177.51 42.715L177.761 43.5203L177.007 43.9017L177.955 44.1042L178.164 45.2109L178.657 44.3962L179.273 44.8624L179.197 44.1419Z" fill="white"/>
<path d="M53.5993 173.904L53.6373 172.962L52.8741 173.466L52.2342 172.957L52.1963 173.908L51.4 174.115L52.1537 174.497L51.9025 175.302L52.7082 174.765L53.6562 175.382L53.405 174.464L54.1729 174.351L53.5993 173.904Z" fill="white"/>
<path d="M71.5494 19.8518L71.0612 19.0371L70.6962 19.8706L69.881 19.7906L70.3692 20.6053L69.8146 21.2128L70.6583 21.1233L70.8858 21.938L71.2698 21.0526L72.4026 21.0621L71.6916 20.4263L72.2746 19.913L71.5494 19.8518Z" fill="white"/>
<path d="M26.5962 147.433L27.9707 144.791L25.1173 145.215L23.9797 142.917L22.6004 145.573L20.0361 145.107L21.6809 147.198L19.8845 149.152L22.899 148.7L24.7666 151.714L25.2879 148.771L27.6247 149.463L26.5962 147.433Z" fill="white"/>
<path d="M40.3655 95.6793L42.361 96.0843L41.5552 94.3089L42.8587 93.141L40.849 92.7313L40.6831 90.9795L39.6119 92.4393L37.9908 91.6294L38.844 93.5083L37.204 95.2837L39.2422 95.0765L39.2185 96.7247L40.3655 95.6793Z" fill="white"/>
<path d="M45.7976 38.0339C45.6412 37.8502 36.5406 33.6543 28.2979 39.9034C20.7236 45.6486 18.0929 56.4468 19.0978 56.7058C20.3302 57.0213 23.705 51.8695 30.1844 49.0393C32.4833 48.0362 36.1377 49.0393 36.1377 49.0393L45.7976 38.0386V38.0339Z" fill="white"/>
<path opacity="0.1" d="M36.1376 49.0394C36.1376 49.0394 34.5498 48.6015 32.8102 48.5968C34.2369 45.6253 36.9055 40.0825 38.6403 36.4941C42.7166 36.5318 45.7027 37.9352 45.7928 38.0435L36.1376 49.0441V49.0394Z" fill="black"/>
<path d="M60.7852 55.604C60.9416 55.7877 63.6196 65.3944 56.069 72.4488C49.125 78.9333 37.9721 79.748 37.882 78.7214C37.7682 77.4641 43.4372 74.9965 47.3096 69.11C48.6842 67.0238 48.2861 63.2753 48.2861 63.2753L60.7899 55.6087L60.7852 55.604Z" fill="white"/>
<path opacity="0.1" d="M61.1453 62.9172C57.2681 64.038 51.3148 65.7616 48.1722 66.6657C48.4613 64.9374 48.286 63.2657 48.286 63.2657L60.7898 55.5991C60.8799 55.7027 61.7947 58.8908 61.15 62.9125L61.1453 62.9172Z" fill="black"/>
<path d="M39.5979 67.344L30.7106 56.9272C30.7106 56.9272 35.3462 44.5797 46.3617 36.2821C51.8647 32.1475 58.3157 29.0488 64.0937 27.0003C72.0662 24.1607 78.7399 23.3366 79.7732 24.5468C80.8113 25.7618 78.8964 32.1616 74.7774 39.5174C71.7912 44.8387 67.6628 50.6593 62.6527 55.3732C52.6136 64.8151 39.5931 67.3392 39.5931 67.3392L39.5979 67.344Z" fill="#D0D5DD"/>
<path d="M61.1882 50.9231C57.8513 53.7345 52.8507 53.3248 50.0163 50.0095C47.1865 46.6942 47.5989 41.726 50.9358 38.9099C54.2727 36.0985 59.2733 36.5082 62.1077 39.8235C64.9374 43.1388 64.5251 48.107 61.1882 50.9231Z" fill="#98A2B3"/>
<path d="M61.6244 50.1882C58.2875 52.9996 53.2869 52.5899 50.4524 49.2746C47.6227 45.9594 48.0351 40.9912 51.372 38.1751C54.7089 35.3637 59.7095 35.7734 62.5439 39.0886C65.3736 42.4039 64.9613 47.3721 61.6244 50.1882Z" fill="white"/>
<path d="M60.0553 48.3467C57.7422 50.301 54.2726 50.0185 52.3055 47.7204C50.3385 45.4223 50.6229 41.9752 52.936 40.0209C55.249 38.0665 58.7186 38.3491 60.6857 40.6472C62.6527 42.9453 62.3683 46.3924 60.0553 48.3467Z" fill="#EAECF0"/>
<path d="M60.0555 48.3471C59.5199 48.7992 58.9227 49.1335 58.297 49.3454L53.8794 48.9875C53.2964 48.6767 52.7608 48.2482 52.3058 47.7208C51.974 47.3346 51.7085 46.9155 51.5095 46.4775L61.0461 47.2498C60.776 47.6501 60.4442 48.0222 60.0555 48.3471Z" fill="#EAECF0"/>
<path d="M61.1646 41.2974L52.3626 40.5816C52.538 40.3838 52.7276 40.1954 52.9361 40.0165C55.2539 38.0621 58.7188 38.3447 60.6858 40.6428C60.8612 40.85 61.0224 41.0666 61.1598 41.2927L61.1646 41.2974Z" fill="#EAECF0"/>
<path d="M61.6433 46.1148L51.116 45.2624C51.0828 45.1023 51.0591 44.9422 51.0402 44.7773L61.7997 45.6485C61.7571 45.8039 61.7049 45.9594 61.648 46.1148H61.6433Z" fill="#EAECF0"/>
<path d="M74.7821 39.5221L64.0984 27.0003C72.0709 24.1607 78.7447 23.3366 79.778 24.5468C80.816 25.7618 78.9011 32.1616 74.7821 39.5174V39.5221Z" fill="white"/>
<path d="M67.2361 28.0644C67.0418 28.2292 66.7479 28.2057 66.582 28.0126C66.4161 27.8195 66.4398 27.5275 66.6342 27.3627C66.8285 27.1979 67.1224 27.2214 67.2883 27.4145C67.4542 27.6076 67.4305 27.8996 67.2361 28.0644Z" fill="#EAECF0"/>
<path d="M69.1368 30.2919C68.9425 30.4568 68.6486 30.4332 68.4827 30.2401C68.3168 30.0471 68.3405 29.7551 68.5349 29.5903C68.7292 29.4254 69.0231 29.449 69.189 29.6421C69.3549 29.8351 69.3312 30.1271 69.1368 30.2919Z" fill="#EAECF0"/>
<path d="M71.0375 32.5146C70.8432 32.6794 70.5493 32.6559 70.3834 32.4628C70.2175 32.2697 70.2412 31.9777 70.4356 31.8129C70.6299 31.6481 70.9238 31.6716 71.0897 31.8647C71.2556 32.0578 71.2319 32.3498 71.0375 32.5146Z" fill="#EAECF0"/>
<path d="M72.9382 34.7421C72.7439 34.907 72.45 34.8834 72.2841 34.6903C72.1182 34.4973 72.1419 34.2053 72.3363 34.0405C72.5306 33.8756 72.8245 33.8992 72.9904 34.0923C73.1563 34.2853 73.1326 34.5773 72.9382 34.7421Z" fill="#EAECF0"/>
<path d="M74.8389 36.9697C74.6446 37.1345 74.3507 37.1109 74.1848 36.9179C74.0189 36.7248 74.0426 36.4328 74.237 36.268C74.4313 36.1032 74.7252 36.1267 74.8911 36.3198C75.057 36.5129 75.0333 36.8048 74.8389 36.9697Z" fill="#EAECF0"/>
<path d="M33.275 56.687C33.0806 56.8518 32.7868 56.8282 32.6209 56.6352C32.455 56.4421 32.4787 56.1501 32.673 55.9853C32.8673 55.8205 33.1612 55.844 33.3271 56.0371C33.493 56.2302 33.4693 56.5221 33.275 56.687Z" fill="#98A2B3"/>
<path d="M35.1757 58.9145C34.9813 59.0793 34.6874 59.0558 34.5216 58.8627C34.3557 58.6696 34.3794 58.3776 34.5737 58.2128C34.768 58.048 35.0619 58.0715 35.2278 58.2646C35.3937 58.4577 35.37 58.7497 35.1757 58.9145Z" fill="#98A2B3"/>
<path d="M37.0764 61.142C36.882 61.3069 36.5881 61.2833 36.4222 61.0902C36.2564 60.8972 36.2801 60.6052 36.4744 60.4404C36.6687 60.2755 36.9626 60.2991 37.1285 60.4922C37.2944 60.6852 37.2707 60.9772 37.0764 61.142Z" fill="#98A2B3"/>
<path d="M38.9771 63.3691C38.7827 63.5339 38.4888 63.5104 38.3229 63.3173C38.157 63.1242 38.1807 62.8322 38.3751 62.6674C38.5694 62.5026 38.8633 62.5261 39.0292 62.7192C39.1951 62.9123 39.1714 63.2043 38.9771 63.3691Z" fill="#98A2B3"/>
<path d="M40.8777 65.5966C40.6834 65.7614 40.3895 65.7379 40.2236 65.5448C40.0577 65.3517 40.0814 65.0598 40.2758 64.895C40.4701 64.7301 40.764 64.7537 40.9299 64.9468C41.0958 65.1398 41.0721 65.4318 40.8777 65.5966Z" fill="#98A2B3"/>
<path opacity="0.2" d="M79.2762 24.2414C73.1238 24.6747 62.4685 28.3808 51.2539 37.1211C42.9685 43.5774 36.9204 54.87 34.1049 60.9025L30.7159 56.9279C30.7159 56.9279 35.3515 44.5804 46.3671 36.2875C51.8701 32.1482 58.3211 29.0542 64.099 27.0057C71.2468 24.4581 77.3423 23.5351 79.2762 24.2414Z" fill="#EAECF0"/>
<path d="M35.6305 69.0392L28.4021 60.5721L31.2129 57.5205L39.119 66.7835L35.6305 69.0392Z" fill="white"/>
<path opacity="0.1" d="M39.1191 66.7835L37.4175 67.8807L30.137 58.6884L31.213 57.5205L39.1191 66.7835Z" fill="black"/>
<path opacity="0.6" d="M34.0379 67.1507C30.6868 69.397 27.7291 72.2602 25.5724 75.6791C23.411 79.0838 22.0696 83.0537 21.9464 87.1601C21.8943 89.2086 22.1407 91.2806 22.7 93.2867C23.2546 95.2976 24.122 97.2377 25.2596 99.0461C26.3924 100.85 27.7907 102.517 29.3785 104C30.9664 105.488 32.7391 106.802 34.6256 107.951C32.6206 107.028 30.682 105.917 28.8856 104.589C27.0892 103.261 25.4302 101.707 24.0082 99.9314C22.5815 98.1607 21.3918 96.1735 20.5197 94.0308C19.6428 91.8881 19.0835 89.5994 18.8702 87.2637C18.4531 82.5827 19.4485 77.7747 21.5103 73.4846C23.5674 69.1804 26.6531 65.3895 30.2933 62.2861L34.0426 67.1507H34.0379Z" fill="white"/>
<path d="M28.312 72.2555L26.9943 72.4957L26.6957 73.8802L26.4018 72.4957L25.0841 72.2555L26.3971 71.9353L26.6957 70.6309L26.9991 71.9353L28.312 72.2555Z" fill="#EAECF0"/>
<path d="M23.4585 98.1091L22.7239 98.2456L22.558 99.0179L22.3921 98.2456L21.6574 98.1091L22.3921 97.9301L22.558 97.2002L22.7239 97.9301L23.4585 98.1091Z" fill="#EAECF0"/>
<path d="M23.0649 91.4123L22.3255 91.5442L22.1643 92.3165L21.9984 91.5442L21.259 91.4123L21.9937 91.2333L22.1643 90.5034L22.3302 91.2333L23.0649 91.4123Z" fill="#EAECF0"/>
<path d="M27.3356 67.951L26.6009 68.0876L26.435 68.8599L26.2691 68.0876L25.5344 67.951L26.2691 67.7721L26.435 67.0469L26.6009 67.7721L27.3356 67.951Z" fill="#EAECF0"/>
<path d="M25.2028 99.7759C24.9279 99.7759 24.9279 100.2 25.2028 100.2C25.4777 100.2 25.4777 99.7759 25.2028 99.7759Z" fill="#EAECF0"/>
<path d="M31.2981 66.9199C31.0232 66.9199 31.0232 67.3438 31.2981 67.3438C31.573 67.3438 31.573 66.9199 31.2981 66.9199Z" fill="#EAECF0"/>
<path d="M19.7993 85.8413C19.5244 85.8413 19.5244 86.2651 19.7993 86.2651C20.0742 86.2651 20.0742 85.8413 19.7993 85.8413Z" fill="#EAECF0"/>
<path d="M24.8235 98.6738C24.6291 98.6738 24.6291 98.9752 24.8235 98.9752C25.0178 98.9752 25.0178 98.6738 24.8235 98.6738Z" fill="#EAECF0"/>
<path d="M19.7234 78.4292C19.5291 78.4292 19.5291 78.7306 19.7234 78.7306C19.9177 78.7306 19.9177 78.4292 19.7234 78.4292Z" fill="#EAECF0"/>
<path d="M21.2591 93.7812C20.7329 93.7812 20.7329 94.5959 21.2591 94.5959C21.7852 94.5959 21.7852 93.7812 21.2591 93.7812Z" fill="#EAECF0"/>
<path d="M21.6572 77.0449C21.1311 77.0449 21.1311 77.8596 21.6572 77.8596C22.1833 77.8596 22.1833 77.0449 21.6572 77.0449Z" fill="#EAECF0"/>
<path d="M149.255 156.598C149.255 156.598 151.777 169.746 144.586 176.056C137.396 182.371 129.717 184.033 113.573 180.709C97.4292 177.384 86.8118 173.15 80.3134 179.046C80.3134 179.046 79.0337 181.151 82.8256 185.361C86.6175 189.571 91.054 199.253 81.8871 206.294C71.0706 214.601 54.6232 205.738 51.7224 189.901C48.8216 174.059 60.7803 154.629 85.0723 155.708C109.36 156.786 116.607 161.608 121.181 161.745C125.75 161.881 126.447 157.926 126.447 157.926L149.265 156.598H149.255Z" fill="#333F53"/>
<path d="M81.541 183.869C73.0614 183.03 64.9656 185.051 59.5053 191.893C57.7515 194.003 56.3722 196.386 55.1446 198.844C56.0309 196.235 57.2301 193.687 58.9175 191.446C64.1172 184.208 73.0756 181.877 81.5363 183.873L81.541 183.869Z" fill="#667085"/>
<path d="M84.2855 176.767C81.4131 168.903 74.6303 164.683 66.2976 165.032C63.7096 165.112 61.1169 165.507 58.5431 166.063C61.0079 165.154 63.6006 164.509 66.2597 164.297C74.763 163.473 82.4606 168.291 84.2855 176.767Z" fill="#667085"/>
<path d="M80.3134 179.051C72.8243 174.007 64.0461 174.408 56.3769 178.787C55.4289 179.395 53.9596 180.228 53.0874 180.925C52.5613 181.316 52.0257 181.702 51.4806 182.079C55.2014 178.307 59.9934 175.382 65.3543 174.634C70.644 173.899 76.3793 175.429 80.3134 179.046V179.051Z" fill="#667085"/>
<path d="M88.4661 176.113C89.3003 169.44 87.9257 161.933 82.309 157.629C81.5458 157.007 80.7164 156.475 79.8727 155.938C80.8111 156.287 81.7212 156.72 82.5791 157.252C88.8595 161.062 90.5943 169.482 88.4661 176.113Z" fill="#667085"/>
<path d="M93.6705 176.471C97.2823 170.9 98.3346 164.66 95.0404 158.675C94.6659 157.865 94.1019 157.078 93.6705 156.296C94.263 156.96 94.955 157.681 95.4385 158.439C99.5338 164.118 98.4531 171.568 93.6705 176.471Z" fill="#667085"/>
<path d="M100.226 177.713C103.051 175.382 105.051 172.034 105.961 168.531C106.9 164.947 106.165 161.217 104.477 157.93C106.89 160.892 107.848 165.032 106.881 168.757C105.904 172.402 103.61 175.91 100.221 177.718L100.226 177.713Z" fill="#667085"/>
<path d="M108.468 179.602C113.346 175.971 116.322 170.551 115.844 164.434C115.716 163.012 115.469 161.754 115.185 160.36C115.526 161.208 115.934 162.093 116.138 162.988C118.048 169.567 114.64 176.678 108.473 179.602H108.468Z" fill="#667085"/>
<path d="M119.147 181.707C120.489 180.544 121.039 178.754 121.603 177.13C123.082 172.133 123.423 166.576 121.176 161.745C124.47 166.181 124.195 172.416 122.295 177.374C121.593 178.99 120.764 180.826 119.147 181.707Z" fill="#667085"/>
<path d="M130.656 182.23C131.77 175.887 130.547 168.116 126.238 163.134C125.603 162.404 124.897 161.735 124.143 161.09C125.011 161.561 125.821 162.15 126.57 162.809C131.547 167.306 133.035 176.117 130.656 182.23Z" fill="#667085"/>
<path d="M125.94 159.239C134.557 161.42 141.69 169.449 141.425 178.495C140.14 169.505 134.125 162.879 125.94 159.239Z" fill="#667085"/>
<path d="M126.437 157.926C135.254 156.588 145.084 161.09 148.653 169.44C143.714 161.787 135.415 158.091 126.437 157.926Z" fill="#667085"/>
<path opacity="0.1" d="M149.26 166.939C140.7 169.821 126.774 174.351 124.38 174.163C121.807 173.956 88.8169 169.119 87.1958 168.182C85.8687 167.41 76.5642 161.133 71.2887 157.563C75.3082 156.174 79.9059 155.482 85.0629 155.708C109.35 156.781 116.597 161.608 121.171 161.745C125.741 161.881 126.437 157.926 126.437 157.926L149.255 156.598C149.255 156.598 150.222 161.613 149.26 166.934V166.939Z" fill="black"/>
<path d="M79.1189 95.7263C79.1189 95.7263 75.692 95.5615 74.6018 95.7263C73.5164 95.8912 71.7579 96.8047 71.7579 96.8047C71.7579 96.8047 67.2408 93.7296 63.1455 94.6432C59.0502 95.5568 52.8599 103.699 52.1916 110.344C51.5233 116.988 51.9404 133.188 55.7039 140.002C59.4673 146.816 85.2192 165.338 88.9827 167C92.7461 168.662 115.744 171.737 124.608 171.568C133.467 171.403 158.048 156.155 164.323 150.052C168.338 146.148 170.343 126.873 170.428 122.969C170.514 119.065 164.66 106.435 164.66 106.435L79.1189 95.7169V95.7263Z" fill="#D0D5DD"/>
<path opacity="0.1" d="M170.428 122.974C170.343 126.882 168.338 146.152 164.323 150.052C158.048 156.159 133.467 171.408 124.603 171.573C115.749 171.737 92.7462 168.667 88.9827 167C85.2192 165.342 59.4626 146.816 55.7039 140.007C53.4951 136.013 52.4428 128.799 52.0826 122.168C52.6704 126.261 57.6046 136.451 59.2114 138.632C60.8325 140.822 86.2525 159.446 91.3811 160.6C96.5049 161.754 121.494 163.821 126.281 163.788C131.068 163.751 159.332 149.03 161.811 146.642C164.29 144.255 169.533 130.937 170.424 122.974H170.428Z" fill="black"/>
<path d="M80.2613 94.4269C80.2613 94.4269 73.014 83.0165 73.3505 77.8129C73.687 72.6092 88.8452 55.4395 94.7559 50.8951C100.667 46.3555 114.488 43.9161 119.171 43.9161C123.854 43.9161 137.202 49.0209 137.202 49.0209C137.202 49.0209 138.742 45.456 140.131 37.7141C140.78 34.088 165.105 47.0195 163.992 68.3945C163.992 68.3945 169.679 89.1855 170.011 91.9687C170.348 94.7565 162.541 104.721 162.541 104.721C162.541 104.721 155.588 107.66 145.895 109.586C135.889 111.573 124.442 112.915 109.805 109.703C88.3428 104.99 80.2613 94.4174 80.2613 94.4174V94.4269Z" fill="white"/>
<path d="M86.5228 58.8771C86.6176 53.8854 82.437 41.6462 81.3752 40.0404C80.3182 38.4345 95.5001 35.1004 110.345 45.0462L86.5228 58.8771Z" fill="white"/>
<path opacity="0.1" d="M89.3762 57.2196C89.3762 57.2196 88.3571 47.0854 84.6789 42.3103C84.0627 41.5144 95.2157 41.8723 104.79 48.5311C104.79 48.5311 101.036 50.5137 98.4246 51.9688C98.4246 51.9688 96.4576 51.0128 94.9455 50.9422C93.4335 50.8716 91.0162 51.6721 91.0162 51.6721C91.0162 51.6721 93.8791 52.2467 94.6137 52.727C95.3484 53.2073 95.8177 53.9655 95.8177 53.9655C95.8177 53.9655 94.5758 53.3251 93.9739 53.245C93.3719 53.1649 92.405 53.4899 92.405 53.4899C92.405 53.4899 93.7748 53.5558 94.4621 54.5212C94.4621 54.5212 90.49 56.5697 89.3762 57.2196Z" fill="black"/>
<path opacity="0.1" d="M139.155 50.349C139.155 50.349 141.017 44.1753 141.539 40.05C141.662 39.0517 155.043 46.7794 154.498 60.7375C154.498 60.7375 149.416 56.584 146.824 55.0864C146.824 55.0864 146.947 52.3033 146.241 50.9753C145.53 49.6473 143.605 47.985 143.605 47.985C143.605 47.985 144.567 50.7257 144.525 51.5969C144.482 52.4681 144.065 53.2593 144.065 53.2593C144.065 53.2593 143.989 51.8701 143.752 51.3191C143.515 50.7634 142.743 50.1041 142.743 50.1041C142.743 50.1041 143.382 51.3097 142.894 52.3881C142.894 52.3881 141.392 50.9989 139.155 50.3537V50.349Z" fill="black"/>
<path opacity="0.1" d="M162.537 104.726C162.537 104.726 155.588 107.664 145.89 109.59C135.884 111.578 124.437 112.92 109.8 109.703C89.0065 105.135 80.7733 95.0719 80.2804 94.4503C82.0816 96.3199 95.2869 104.019 98.548 105.093C101.828 106.171 120.209 108.917 127.992 107.914C135.775 106.92 156.593 101.853 158.015 100.775C159.437 99.6917 162.859 91.1586 163.447 88.8228C164.039 86.4824 161.228 67.688 161.228 67.688C161.228 67.688 164.423 50.3393 145.506 38.5522C152.787 42.329 164.769 53.2355 163.977 68.385C163.977 68.385 169.665 89.176 169.997 91.9639C170.334 94.747 162.527 104.721 162.527 104.721L162.537 104.726Z" fill="black"/>
<path d="M93.9313 66.7984C89.9877 65.8331 87.0347 69.2614 85.9019 73.834C84.9823 77.5354 86.3901 81.8867 90.1725 82.8144C93.9597 83.7421 97.4009 79.8712 98.2635 76.3958C99.1262 72.9204 98.2161 67.8486 93.9313 66.8032V66.7984Z" fill="#667085"/>
<path d="M94.0735 67.8485C90.3669 66.9396 87.5893 70.1654 86.5276 74.4602C85.6649 77.9403 86.9873 82.0326 90.5423 82.9038C94.1019 83.775 97.3345 80.1348 98.145 76.8666C98.9556 73.5984 98.0976 68.8327 94.0735 67.8485Z" fill="#EAECF0"/>
<path d="M94.7134 69.6426C91.8126 68.9315 89.637 71.4556 88.8028 74.818C88.1297 77.5399 89.163 80.7469 91.9453 81.425C94.7324 82.1078 97.2635 79.2588 97.8987 76.7017C98.5338 74.1446 97.8655 70.4149 94.7134 69.6426Z" fill="#667085"/>
<path d="M123.944 72.878C129.22 72.6189 132.078 76.5087 132.315 81.2132C132.505 85.023 129.566 89.0634 124.504 89.313C119.437 89.5626 116.076 85.1501 115.901 81.5711C115.725 77.9921 118.219 73.1605 123.949 72.878H123.944Z" fill="#667085"/>
<path d="M123.485 73.8856C128.447 73.6408 131.13 77.2998 131.353 81.7217C131.533 85.3007 128.77 89.101 124.011 89.3365C119.247 89.572 116.09 85.4232 115.924 82.0608C115.759 78.6984 118.105 74.1541 123.489 73.8903L123.485 73.8856Z" fill="#EAECF0"/>
<path d="M123.712 74.7852C127.76 74.5874 129.955 77.573 130.135 81.1803C130.282 84.1047 128.025 87.2033 124.139 87.3964C120.252 87.5895 117.673 84.1988 117.536 81.4581C117.399 78.7126 119.313 75.0018 123.712 74.7852Z" fill="#667085"/>
<path d="M107.075 79.7063C106.947 80.196 103.7 81.6276 103.354 81.5852C103.013 81.5381 100.212 79.2919 100.197 78.788C100.183 78.2888 103.003 78.4772 103.719 78.5714C104.44 78.6655 107.208 79.2259 107.075 79.7063Z" fill="#667085"/>
<path d="M97.4862 82.0137C97.8796 82.7813 98.2825 83.5441 98.7518 84.2505C98.9888 84.599 99.2305 84.9475 99.5197 85.2065C99.6571 85.3336 99.823 85.4278 99.9131 85.4325C100.008 85.4325 100.188 85.3901 100.325 85.3007C100.624 85.1264 100.885 84.8109 101.131 84.4954C101.373 84.1705 101.591 83.8173 101.79 83.4547C102.188 82.7294 102.553 81.9524 102.847 81.1801L103.397 79.7485L103.705 81.2508C103.909 82.2397 104.203 83.2475 104.572 84.1846C104.757 84.6555 104.975 85.1123 105.236 85.522C105.506 85.9223 105.814 86.3037 106.193 86.4544L106.336 86.5015L106.483 86.5251C106.592 86.5298 106.705 86.5251 106.819 86.5156C107.047 86.4874 107.279 86.4262 107.506 86.3367C107.966 86.1577 108.397 85.8799 108.815 85.5738C109.639 84.9522 110.388 84.2081 111.085 83.417C110.53 84.3164 109.867 85.1547 109.08 85.8893C108.682 86.2566 108.241 86.5863 107.739 86.8406C107.231 87.0807 106.648 87.2832 105.975 87.0855C105.345 86.8688 104.933 86.4073 104.606 85.9552C104.279 85.4937 104.027 85.004 103.805 84.5048C103.368 83.5018 103.07 82.4799 102.833 81.4203L103.691 81.4909C103.354 82.315 102.985 83.1062 102.52 83.8691C102.288 84.2458 102.032 84.6178 101.743 84.971C101.449 85.3195 101.112 85.6586 100.643 85.894C100.401 86.007 100.15 86.0871 99.8088 86.04C99.4723 85.96 99.2874 85.7622 99.1215 85.5926C98.8087 85.23 98.5906 84.8439 98.3916 84.453C98.0076 83.6619 97.7138 82.8472 97.4862 82.0137Z" fill="#667085"/>
<path d="M84.0865 76.1601C81.9014 75.7551 79.7068 75.4255 77.5028 75.1429C75.3035 74.8651 73.0994 74.6108 70.8859 74.4601C69.7815 74.3565 68.6723 74.2953 67.5679 74.2247C66.4588 74.1729 65.3544 74.1211 64.2453 74.0928C62.027 74.008 59.8087 74.0363 57.5857 74.0457C58.6949 73.9562 59.804 73.862 60.9131 73.815C62.027 73.7773 63.1361 73.7396 64.25 73.749C66.4778 73.7396 68.7008 73.8573 70.9238 74.0174C73.1421 74.2058 75.3556 74.4554 77.5549 74.8086C78.6546 74.9875 79.7495 75.1806 80.8397 75.3972C81.9251 75.6327 83.0153 75.8635 84.0865 76.1648V76.1601Z" fill="#667085"/>
<path d="M83.0483 77.3373C82.0482 77.2761 81.0481 77.2149 80.048 77.1772C79.0479 77.1254 78.0477 77.0877 77.0476 77.0595C75.0474 76.9983 73.0471 76.9512 71.0469 76.97C70.0468 76.9559 69.0467 76.9747 68.0466 76.9888L65.0462 77.083L63.5484 77.1395L62.0506 77.229C61.0505 77.262 60.0551 77.375 59.0502 77.4221C61.0315 77.1113 63.027 76.8711 65.0272 76.7393C67.0275 76.5933 69.0372 76.5415 71.0422 76.5273C73.0471 76.5462 75.0569 76.5838 77.0571 76.7204C79.0573 76.8523 81.0576 77.0312 83.0389 77.3373H83.0483Z" fill="#667085"/>
<path d="M83.4797 78.6372C82.6455 78.689 81.8113 78.7361 80.9818 78.802C80.1476 78.8585 79.3181 78.9197 78.4886 78.9951C76.8297 79.1458 75.166 79.2917 73.5117 79.4754C71.8528 79.6544 70.1986 79.8521 68.5443 80.0641C66.8901 80.2713 65.2406 80.5209 63.5817 80.7375C64.3922 80.5397 65.2075 80.356 66.0275 80.1818C66.8475 80.0264 67.6675 79.8616 68.4922 79.725C70.1369 79.433 71.8006 79.2211 73.4596 79.0327C75.1233 78.8585 76.7918 78.7219 78.4602 78.6513C80.1286 78.5807 81.8066 78.5477 83.475 78.6325L83.4797 78.6372Z" fill="#667085"/>
<path d="M134.116 87.4715C135.496 87.4856 136.875 87.5845 138.249 87.674C139.624 87.7917 140.999 87.9283 142.368 88.0931C145.108 88.4228 147.838 88.8701 150.549 89.3929C153.256 89.9438 155.948 90.5513 158.607 91.3048C159.939 91.6674 161.257 92.0771 162.57 92.4915C163.229 92.694 163.878 92.9295 164.527 93.1602L166.476 93.8572C163.831 93.0754 161.195 92.2843 158.517 91.6344C157.185 91.2907 155.844 90.9798 154.503 90.6643C153.156 90.3771 151.815 90.071 150.459 89.8261C147.762 89.2657 145.046 88.8277 142.321 88.4275C139.596 88.0319 136.861 87.6975 134.112 87.4668L134.116 87.4715Z" fill="#667085"/>
<path d="M134.95 89.2231C137.415 89.5481 139.861 90.0143 142.292 90.537C144.724 91.0597 147.137 91.6861 149.535 92.3406C151.924 93.0282 154.303 93.7675 156.645 94.6058C158.991 95.4252 161.295 96.3717 163.56 97.3889C162.385 96.9839 161.238 96.5083 160.058 96.1268L158.304 95.5099L156.536 94.9307C155.36 94.5398 154.171 94.1772 152.99 93.8052C151.801 93.4567 150.616 93.0941 149.416 92.7739C147.032 92.0816 144.629 91.4647 142.221 90.8714C141.017 90.5747 139.809 90.2874 138.595 90.019C137.387 89.7364 136.173 89.4774 134.955 89.2231H134.95Z" fill="#667085"/>
<path d="M133.993 90.6362C136.012 91.1166 137.993 91.7288 139.96 92.3833C141.928 93.0426 143.866 93.7726 145.795 94.5307C147.71 95.3266 149.62 96.1224 151.493 97.0172C152.431 97.4551 153.36 97.9166 154.284 98.3781C155.204 98.8538 156.119 99.3388 157.024 99.838C155.128 99.0045 153.251 98.138 151.346 97.328C149.45 96.5039 147.544 95.7033 145.62 94.9451C143.71 94.154 141.771 93.4335 139.837 92.7083C138.87 92.341 137.899 91.9972 136.922 91.6534C135.951 91.3002 134.969 90.9706 133.988 90.6409L133.993 90.6362Z" fill="#667085"/>
<path d="M90.4902 61.5663C92.0638 59.5413 95.2111 58.9244 97.5005 60.0264C95.0357 60.2901 92.8459 60.6668 90.4902 61.5663Z" fill="#667085"/>
<path d="M133.713 68.9972C131.779 67.3819 129.836 66.3177 127.589 65.2722C130.116 64.9755 132.893 66.572 133.713 68.9972Z" fill="#667085"/>
<path d="M105.881 102.466C104.89 101.1 103.999 99.6166 103.52 98.0579C103.482 97.9354 103.288 97.9354 103.245 98.0626C103.127 98.411 102.795 99.3859 102.747 99.5365C102.71 99.4424 102.676 99.3482 102.643 99.254C102.534 98.9338 102.439 98.6088 102.359 98.2792C102.198 97.6199 102.089 96.9465 102.041 96.2684C101.994 95.595 101.999 94.9121 102.065 94.234C102.131 93.5512 102.283 92.8825 102.406 92.2043C102.411 92.1761 102.359 92.162 102.345 92.1902C102.032 92.8448 101.856 93.5559 101.733 94.2434C101.61 94.9215 101.558 95.6091 101.563 96.2919C101.567 96.9842 101.643 97.6717 101.785 98.3498C101.861 98.6983 101.951 99.0468 102.06 99.3906C102.164 99.7202 102.264 100.069 102.487 100.356C102.634 100.544 102.928 100.375 102.951 100.186C102.966 100.073 103.335 98.7171 103.392 98.5194C103.62 99.1834 103.876 99.8332 104.236 100.46C104.658 101.189 105.165 101.891 105.772 102.527C105.828 102.583 105.928 102.513 105.885 102.456L105.881 102.466Z" fill="#667085"/>
<path d="M166.471 108.102C152.564 114.295 125.944 118.571 105.895 113.17C85.845 107.773 76.1945 96.5555 75.858 95.2322C75.5262 93.9089 76.6922 92.402 78.1474 91.9688H78.1521C78.8252 92.8117 79.5362 93.6311 80.2661 94.4222C86.7882 101.458 99.6712 109.496 120.332 111.389C140.638 113.254 160.233 105.734 165.167 103.699C167.087 103.535 169.097 106.939 166.48 108.102H166.471Z" fill="#667085"/>
<path d="M117.711 158.872C123.171 161.028 129.125 161.612 134.86 160.275C129.495 162.931 122.607 162.262 117.711 158.872Z" fill="#667085"/>
<path d="M130.651 130.169C131.993 126.887 134.277 123.539 137.685 122.027C142.24 120.61 148.421 122.696 152.701 124.386C155.384 125.493 157.977 126.854 160.309 128.563C155.265 125.87 149.805 123.854 144.179 122.809C141.975 122.47 139.6 122.117 137.51 122.988C134.481 124.495 132.296 127.278 130.651 130.174V130.169Z" fill="#667085"/>
<path d="M152.521 124.688C154.578 124.165 156.844 124.626 158.688 125.625C156.621 125.248 154.63 124.824 152.521 124.688Z" fill="#667085"/>
<path d="M135.102 127.885C140.131 131.262 142.254 132.99 141.904 138.636C141.6 143.543 128.106 159.187 119.437 161.895C117.711 162.432 116.062 162.22 114.872 161.57L135.102 127.89V127.885Z" fill="#D0D5DD"/>
<path d="M127.58 126.581C121.636 128.158 109.369 150.291 110.127 155.646C110.734 159.912 113.744 162.248 117.507 161.655C121.996 160.948 140.022 140.835 140.031 136.06C140.046 130.744 133.964 124.885 127.575 126.581H127.58Z" fill="#475467"/>
<path d="M140.036 136.042L126.556 127.023C126.916 126.816 127.257 126.67 127.584 126.581C127.722 126.543 127.864 126.51 128.001 126.482C128.12 126.454 128.234 126.43 128.347 126.416L139.766 134.045C139.799 134.167 139.827 134.285 139.851 134.408C139.974 134.949 140.036 135.495 140.036 136.037V136.042Z" fill="#667085"/>
<path d="M139.851 134.412L127.997 126.482C128.115 126.454 128.229 126.43 128.343 126.416C128.466 126.392 128.594 126.374 128.712 126.359L139.647 133.673C139.69 133.795 139.723 133.918 139.761 134.045C139.794 134.167 139.823 134.285 139.846 134.407L139.851 134.412Z" fill="#333F53"/>
<path d="M138.695 139.521C138.661 139.592 138.614 139.667 138.567 139.743C138.368 140.086 138.15 140.444 137.913 140.812L122.617 130.583C122.901 130.254 123.181 129.938 123.461 129.642C123.517 129.576 123.579 129.519 123.636 129.453L138.699 139.521H138.695Z" fill="#667085"/>
<path d="M138.823 139.31C138.785 139.38 138.742 139.451 138.695 139.521C138.662 139.592 138.614 139.667 138.567 139.743L123.456 129.642C123.513 129.576 123.574 129.519 123.631 129.453C123.693 129.392 123.75 129.331 123.811 129.27L138.823 139.305V139.31Z" fill="#333F53"/>
<path d="M135.837 143.807C135.784 143.873 135.737 143.939 135.685 144.01C135.438 144.339 135.187 144.669 134.926 145.003L119.498 134.69C119.735 134.342 119.977 133.998 120.219 133.663C120.271 133.593 120.313 133.532 120.366 133.461L135.837 143.807Z" fill="#667085"/>
<path d="M135.983 143.604C135.931 143.675 135.884 143.741 135.836 143.812C135.784 143.878 135.737 143.943 135.685 144.014L120.219 133.668C120.271 133.597 120.313 133.536 120.365 133.466C120.413 133.395 120.46 133.329 120.508 133.258L135.983 143.604Z" fill="#333F53"/>
<path d="M132.623 147.852C132.571 147.923 132.523 147.984 132.462 148.05C132.196 148.375 131.921 148.695 131.646 149.011L116.725 139.032C116.939 138.674 117.152 138.316 117.37 137.963C117.417 137.893 117.455 137.822 117.503 137.747L132.623 147.852Z" fill="#667085"/>
<path d="M132.789 147.659C132.737 147.725 132.68 147.786 132.628 147.852C132.576 147.923 132.528 147.984 132.467 148.05L117.379 137.963C117.427 137.892 117.465 137.822 117.512 137.746C117.56 137.68 117.602 137.605 117.65 137.53L132.798 147.655L132.789 147.659Z" fill="#333F53"/>
<path d="M129.21 151.766C129.148 151.827 129.092 151.888 129.035 151.954C128.75 152.265 128.456 152.576 128.172 152.882L114.232 143.557C114.422 143.19 114.616 142.818 114.815 142.446C114.853 142.375 114.891 142.3 114.933 142.229L129.205 151.77L129.21 151.766Z" fill="#667085"/>
<path d="M129.376 151.577C129.319 151.643 129.262 151.7 129.205 151.766C129.144 151.827 129.087 151.888 129.03 151.954L114.81 142.446C114.848 142.375 114.886 142.3 114.929 142.229C114.962 142.159 115.005 142.079 115.047 142.003L129.371 151.582L129.376 151.577Z" fill="#333F53"/>
<path d="M125.579 155.533C125.518 155.594 125.456 155.65 125.395 155.712C125.082 156.018 124.778 156.314 124.475 156.602L112.023 148.276C112.18 147.89 112.346 147.504 112.526 147.103C112.559 147.028 112.597 146.948 112.625 146.873L125.579 155.533Z" fill="#667085"/>
<path d="M125.764 155.354C125.703 155.415 125.641 155.472 125.579 155.533C125.518 155.594 125.456 155.65 125.395 155.712L112.526 147.103C112.559 147.028 112.597 146.948 112.625 146.873C112.658 146.802 112.696 146.722 112.73 146.646L125.76 155.358L125.764 155.354Z" fill="#333F53"/>
<path d="M121.664 159.102C121.593 159.164 121.527 159.215 121.46 159.272C121.095 159.564 120.749 159.837 120.418 160.082L110.317 153.329C110.407 152.929 110.516 152.5 110.649 152.048C110.672 151.968 110.696 151.883 110.729 151.798L121.664 159.107V159.102Z" fill="#667085"/>
<path d="M121.868 158.938C121.802 158.994 121.735 159.046 121.669 159.102C121.598 159.164 121.532 159.215 121.465 159.272L110.653 152.048C110.677 151.968 110.701 151.883 110.734 151.798C110.753 151.718 110.781 151.634 110.81 151.549L121.868 158.942V158.938Z" fill="#333F53"/>
<path d="M116.346 161.744C116.185 161.744 116.029 161.744 115.872 161.725C113.772 161.57 112.033 160.411 111.014 158.476C110.938 158.335 110.867 158.184 110.801 158.033L116.346 161.739V161.744Z" fill="#667085"/>
<path d="M116.777 161.735C116.631 161.744 116.484 161.744 116.346 161.744C116.185 161.744 116.029 161.744 115.872 161.725L111.014 158.476C110.938 158.335 110.867 158.184 110.8 158.033C110.734 157.897 110.682 157.756 110.625 157.614L116.782 161.73L116.777 161.735Z" fill="#333F53"/>
<path d="M135.983 128.483C145.013 133.183 142.894 140.492 137.443 147.165C135.912 149.081 134.225 150.861 132.438 152.533C133.931 150.598 135.448 148.7 136.851 146.727C141.785 139.781 143.956 134.172 135.983 128.488V128.483Z" fill="#667085"/>
<path d="M135.054 149.19C135.031 150.466 134.448 151.738 133.433 152.529C133.917 151.337 134.396 150.292 135.054 149.19Z" fill="#667085"/>
<path d="M114.872 161.57C118.498 162.794 122.148 160.741 125.12 158.82C125.57 158.542 125.992 158.222 126.442 157.93C124.921 159.432 123.148 160.694 121.157 161.523C119.195 162.328 116.792 162.667 114.872 161.575V161.57Z" fill="#667085"/>
<path d="M126.243 159.239C125.873 159.7 125.352 159.988 124.812 160.195C124.267 160.388 123.674 160.482 123.096 160.36C123.361 160.228 123.627 160.134 123.883 160.035C124.655 159.757 125.428 159.455 126.248 159.239H126.243Z" fill="#667085"/>
<path d="M55.1493 134.765C60.9983 134.224 66.5724 132.058 71.0706 128.281C67.5014 133.07 61.0599 135.58 55.1493 134.765Z" fill="#667085"/>
<path d="M56.3724 100.337C60.5245 92.6936 66.1365 92.5382 72.8719 97.2144C74.6399 98.4623 76.2657 99.9222 77.5787 101.622C75.9671 100.205 74.2512 98.9521 72.4501 97.8454C65.5535 93.6872 61.444 93.6496 56.3676 100.337H56.3724Z" fill="#667085"/>
<path d="M44.5129 98.4716C50.2814 96.5832 52.9547 95.9757 57.2348 99.7007C60.9556 102.941 65.1504 123.119 62.0032 131.587C61.3775 133.272 60.1973 134.436 58.9507 134.977L44.5129 98.4716Z" fill="#D0D5DD"/>
<path d="M38.8726 103.586C36.4931 109.222 46.6081 132.406 51.3338 135.085C55.102 137.219 58.8038 136.286 60.6334 132.961C62.8185 129.001 57.8369 102.531 54.0402 99.6016C49.817 96.3381 41.4274 97.5342 38.8726 103.59V103.586Z" fill="#475467"/>
<path d="M54.0212 99.5875L38.5929 104.664C38.6497 104.259 38.7398 103.896 38.8678 103.586C38.9199 103.454 38.9815 103.327 39.0432 103.199C39.0953 103.086 39.1474 102.983 39.2043 102.889L52.2627 98.5845C52.3812 98.6316 52.495 98.6834 52.604 98.7399C53.1112 98.9753 53.5852 99.2579 54.0165 99.5922L54.0212 99.5875Z" fill="#667085"/>
<path d="M52.6134 98.7352L39.0479 103.195C39.1 103.082 39.1521 102.978 39.209 102.884C39.2659 102.771 39.3275 102.663 39.3891 102.559L51.9025 98.4385C52.0257 98.4809 52.1442 98.528 52.2674 98.5798C52.3859 98.6268 52.4997 98.6786 52.6087 98.7352H52.6134Z" fill="#333F53"/>
<path d="M55.9738 102.771C56.0118 102.842 56.0402 102.922 56.0734 103.002C56.2251 103.369 56.3767 103.756 56.5237 104.17L39.024 109.929C38.9339 109.505 38.8581 109.091 38.7917 108.691C38.7728 108.606 38.7633 108.521 38.7491 108.441L55.9786 102.767L55.9738 102.771Z" fill="#667085"/>
<path d="M55.8839 102.54C55.9171 102.616 55.9455 102.691 55.9787 102.771C56.0166 102.842 56.045 102.922 56.0782 103.002L38.7918 108.695C38.7729 108.61 38.7634 108.526 38.7492 108.446C38.7397 108.361 38.7207 108.276 38.7112 108.191L55.8839 102.536V102.54Z" fill="#333F53"/>
<path d="M57.6378 107.64C57.6568 107.72 57.6805 107.8 57.7042 107.885C57.8132 108.276 57.9269 108.681 58.0312 109.086L40.3798 114.897C40.2471 114.497 40.1192 114.096 40.0054 113.706C39.9817 113.626 39.958 113.55 39.9343 113.465L57.6331 107.64H57.6378Z" fill="#667085"/>
<path d="M57.5619 107.4C57.5856 107.48 57.6093 107.565 57.6378 107.64C57.6567 107.72 57.6804 107.8 57.7041 107.885L40.0054 113.706C39.9817 113.625 39.958 113.55 39.9343 113.465C39.9058 113.39 39.8821 113.305 39.8584 113.23L57.5619 107.4Z" fill="#333F53"/>
<path d="M58.889 112.637C58.9127 112.717 58.9316 112.797 58.9458 112.886C59.0406 113.291 59.126 113.706 59.216 114.115L42.1429 119.733C41.9865 119.347 41.8348 118.956 41.6831 118.57C41.6547 118.495 41.6215 118.415 41.5931 118.335L58.889 112.637Z" fill="#667085"/>
<path d="M58.8369 112.392C58.8558 112.472 58.8748 112.552 58.889 112.637C58.9127 112.717 58.9317 112.797 58.9459 112.886L41.6832 118.57C41.6548 118.495 41.6216 118.415 41.5931 118.335C41.5647 118.26 41.5363 118.175 41.5078 118.095L58.8369 112.387V112.392Z" fill="#333F53"/>
<path d="M59.9176 117.713C59.9271 117.798 59.9461 117.883 59.9603 117.963C60.0314 118.377 60.1025 118.796 60.1689 119.206L44.2144 124.457C44.039 124.08 43.8589 123.703 43.6835 123.317C43.6503 123.242 43.6124 123.171 43.584 123.086L59.9129 117.708L59.9176 117.713Z" fill="#667085"/>
<path d="M59.8702 117.468C59.8892 117.553 59.8986 117.633 59.9176 117.713C59.9271 117.798 59.946 117.882 59.9603 117.963L43.6882 123.317C43.655 123.242 43.6171 123.171 43.5887 123.086C43.5507 123.016 43.5128 122.935 43.4844 122.855L59.8749 117.463L59.8702 117.468Z" fill="#333F53"/>
<path d="M60.695 122.87C60.7045 122.954 60.714 123.039 60.7234 123.124C60.7756 123.557 60.8277 123.981 60.8704 124.391L46.627 129.081C46.4137 128.723 46.2099 128.351 46.0013 127.97C45.9587 127.894 45.9207 127.819 45.8781 127.748L60.6997 122.87H60.695Z" fill="#667085"/>
<path d="M60.6665 122.615C60.676 122.7 60.6854 122.785 60.6949 122.87C60.7044 122.954 60.7139 123.039 60.7234 123.124L45.9965 127.97C45.9538 127.894 45.9159 127.819 45.8733 127.748C45.8353 127.678 45.7974 127.602 45.7548 127.527L60.6617 122.615H60.6665Z" fill="#333F53"/>
<path d="M61.1407 128.13C61.1407 128.224 61.1454 128.309 61.1502 128.394C61.1597 128.855 61.1644 129.298 61.1549 129.707L49.599 133.512C49.3336 133.197 49.0587 132.849 48.7838 132.467C48.7316 132.396 48.6842 132.33 48.6321 132.25L61.1407 128.13Z" fill="#667085"/>
<path d="M61.1359 127.871C61.1359 127.956 61.1406 128.04 61.1453 128.13C61.1453 128.224 61.1501 128.309 61.1548 128.394L48.7884 132.467C48.7363 132.396 48.6889 132.331 48.6368 132.25C48.5846 132.185 48.5372 132.114 48.4851 132.034L61.1406 127.866L61.1359 127.871Z" fill="#333F53"/>
<path d="M59.9889 133.927C59.8894 134.054 59.7898 134.176 59.6856 134.289C58.2778 135.843 56.2918 136.503 54.1257 136.121C53.9693 136.093 53.8034 136.06 53.6469 136.018L59.9937 133.927H59.9889Z" fill="#667085"/>
<path d="M60.2495 133.583C60.1689 133.705 60.0789 133.818 59.9935 133.931C59.894 134.059 59.7945 134.181 59.6902 134.294L54.1303 136.126C53.9739 136.098 53.808 136.065 53.6516 136.022C53.5046 135.989 53.3577 135.947 53.2108 135.905L60.2542 133.588L60.2495 133.583Z" fill="#333F53"/>
<path d="M74.1612 98.5802C75.3888 98.4389 76.6875 98.858 77.5834 99.7151C76.3652 99.4325 75.3035 99.0888 74.1612 98.5802Z" fill="#667085"/>
<path d="M56.9459 99.4604C61.3019 102.3 62.6717 112.566 62.7333 117.468C62.52 116.687 62.3494 115.905 62.174 115.123C61.6668 112.858 61.1407 110.358 60.5719 108.125C60.188 106.59 59.7614 105.06 59.2258 103.572C58.6712 102.102 58.1024 100.581 56.9459 99.4604Z" fill="#667085"/>
<path d="M62.0413 112.788C62.9987 113.635 63.5959 114.902 63.5391 116.183C62.9466 115.043 62.4584 114.003 62.0413 112.788Z" fill="#667085"/>
<path d="M60.2496 134.266C62.4678 131.671 62.6954 128.201 63.1125 124.97C63.3874 128.191 62.9892 132.119 60.2496 134.266Z" fill="#667085"/>
<path d="M63.9846 125.973C64.0983 126.552 63.9798 127.132 63.7807 127.673C63.5722 128.205 63.2593 128.714 62.7901 129.076C62.8612 128.789 62.9607 128.53 63.0508 128.271C63.3399 127.508 63.6148 126.727 63.9798 125.973H63.9846Z" fill="#667085"/>
<path d="M76.5834 104.806C75.9957 108.79 76.6403 125.357 82.6789 126.524C88.7176 127.692 88.9166 118.872 95.4814 112.533C95.4814 112.533 91.2724 107.655 85.7978 105.54C80.3232 103.421 76.5882 104.806 76.5882 104.806H76.5834Z" fill="#D0D5DD"/>
<path d="M92.1538 116.607C91.8741 117.031 91.6134 117.459 91.3622 117.883C87.0252 115.128 83.129 113.979 80.4699 113.513C78.9105 113.235 77.6118 113.16 76.6638 113.155C76.6164 112.642 76.5785 112.138 76.5406 111.643C79.4272 111.629 85.3094 112.246 92.1538 116.607Z" fill="white"/>
<path d="M93.7179 114.45C93.3955 114.85 93.0922 115.255 92.7983 115.66C85.5558 111.186 79.3418 110.617 76.4741 110.64C76.4457 110.117 76.4315 109.609 76.4172 109.128C79.5076 109.081 86.0487 109.675 93.7131 114.45H93.7179Z" fill="white"/>
<path d="M76.4268 106.788C76.8629 111.672 77.5644 131.093 86.2573 124.989C87.5276 123.939 88.4187 122.432 89.2909 120.944C90.9688 117.94 92.6467 114.657 95.4764 112.529C94.2062 113.734 93.1966 115.166 92.3292 116.659C90.1488 120.13 88.8643 125.79 84.3282 126.953C76.1756 128.601 76.223 111.921 76.4268 106.784V106.788Z" fill="#667085"/>
<path d="M92.7984 115.665C93.6089 115.034 94.391 114.545 95.2774 114.031C94.7418 114.898 93.8033 115.486 92.7984 115.665Z" fill="#667085"/>
<path d="M80.3136 120.233C80.9203 122.319 81.29 125.686 83.4562 126.713C80.8966 126.275 80.233 122.376 80.3136 120.233Z" fill="#667085"/>
<path d="M83.4182 119.729C83.712 121.881 83.5746 125.262 85.5653 126.6C83.1006 125.794 83.02 121.839 83.4182 119.729Z" fill="#667085"/>
<path d="M106.824 115.157C103.037 116.593 88.7979 125.234 90.7176 131.041C92.6373 136.847 101.984 132.67 110.886 134.794C110.886 134.794 111.483 129.284 110.673 123.501C109.862 117.719 106.824 115.157 106.824 115.157Z" fill="#D0D5DD"/>
<path d="M104.07 134.125C103.558 134.125 103.056 134.139 102.558 134.153C102.823 129.143 101.942 125.272 101.074 122.771C100.558 121.292 99.9888 120.125 99.5291 119.3C99.7423 119.15 99.9556 119.008 100.164 118.872C100.212 118.839 100.254 118.811 100.297 118.782C100.463 118.674 100.629 118.561 100.795 118.458C102.198 120.925 104.482 126.228 104.065 134.13L104.07 134.125Z" fill="white"/>
<path d="M106.734 134.196C106.227 134.163 105.719 134.144 105.212 134.135C105.516 125.884 103.046 120.36 101.643 117.916C101.771 117.831 101.894 117.751 102.022 117.681C102.245 117.539 102.468 117.408 102.681 117.285C102.771 117.233 102.856 117.177 102.942 117.125C104.463 119.734 107.056 125.517 106.734 134.196Z" fill="white"/>
<path d="M105.004 115.99C101.321 118.533 86.6697 127.207 92.0826 132.336C94.0118 134.125 96.8178 134.036 99.3631 134.073C102.913 134.017 106.544 133.965 110.056 134.61C106.487 134.318 102.956 134.568 99.3821 134.784C96.7419 134.883 93.5472 134.978 91.4475 132.995C85.1766 126.718 100.321 118.359 105.008 115.985L105.004 115.99Z" fill="#667085"/>
<path d="M106.516 134.365C107.516 134.596 108.393 134.888 109.355 135.251C108.34 135.382 107.288 135.029 106.516 134.365Z" fill="#667085"/>
<path d="M95.0877 125.922C93.5519 127.466 90.7744 129.43 90.926 131.808C90.0634 129.378 93.1633 126.897 95.0877 125.922Z" fill="#667085"/>
<path d="M97.0453 128.366C95.2963 129.67 92.258 131.201 92.0542 133.579C91.5612 131.045 94.9976 129.049 97.0453 128.366Z" fill="#667085"/>
<path opacity="0.2" d="M80.2612 94.4268C72.7864 86.3647 67.8285 75.0438 67.6626 64.5753C67.4967 54.1068 70.5065 43.3086 77.1945 35.0016C83.8825 26.6946 104.411 11.5734 134.95 17.554C165.489 23.5347 180.875 46.6757 181.543 68.9972C182.074 86.7415 165.153 103.704 165.153 103.704C160.219 105.738 140.624 113.259 120.318 111.394C99.6616 109.501 86.7738 101.462 80.2518 94.4268H80.2612Z" fill="#EAECF0"/>
<path d="M80.2613 94.4267C73.4595 86.9909 68.8144 77.4454 67.7906 67.4054C66.9801 57.3842 69.2031 46.9911 74.6208 38.4439C80.0764 29.859 89.049 24.0196 98.3866 20.2805C116.905 12.9436 140.183 15.3453 156.986 25.9316C172.144 35.35 181.894 52.6845 181.728 70.4758C181.515 78.1 178.425 85.3521 174.49 91.7896C171.817 96.0844 168.755 100.134 165.248 103.793C158.261 106.652 150.957 108.762 143.534 110.146C122.385 114.304 95.7086 110.443 80.2565 94.4267H80.2613ZM80.2613 94.4267C95.7418 110.381 122.385 114.172 143.501 109.958C150.824 108.606 158.351 106.322 165.068 103.61C166.812 101.797 168.428 99.8564 169.959 97.855C175.946 89.9059 181.041 80.5864 181.363 70.4664C181.553 50.1933 168.613 30.9798 150.132 22.6493C129.518 13.1461 103.762 14.1068 85.205 27.7258C72.4452 36.5178 66.6673 52.3407 67.8759 67.396C68.8666 77.4218 73.488 86.9768 80.2613 94.422V94.4267Z" fill="#667085"/>
<g opacity="0.6">
<path d="M82.233 45.6396C78.1851 49.7884 80.7446 61.7027 85.968 61.3401C90.2434 61.0434 92.8219 56.353 93.3433 53.2073C93.8647 50.0616 92.8266 45.7668 89.741 44.4294C87.134 43.2992 83.7166 44.1186 82.233 45.6396Z" fill="#EAECF0"/>
<path d="M92.1582 37.9587C90.7031 39.0466 91.7127 42.3618 93.5044 42.9881C95.296 43.6098 97.173 41.4765 96.8649 40.0779C96.5568 38.6792 93.4759 36.9792 92.163 37.9587H92.1582Z" fill="#EAECF0"/>
<path d="M161.171 99.1077C162.57 99.3855 163.987 97.0686 163.418 95.7077C162.849 94.3467 161.148 94.7329 160.489 95.6417C159.83 96.5506 159.91 98.8581 161.171 99.1077Z" fill="#EAECF0"/>
</g>
</svg>
