<svg width="21" height="20" viewBox="0 0 21 20" fill="none" xmlns="http://www.w3.org/2000/svg">
<path d="M10.8289 1.37617C10.9863 1.2707 11.1866 1.14062 11.276 1.09141C11.3905 1.02812 11.4907 1 11.6159 1C11.7339 1 11.8341 1.02461 11.9092 1.07031C11.9736 1.10898 12.0523 1.19336 12.0845 1.25664C12.1167 1.31641 12.1668 1.55195 12.1954 1.77344C12.224 1.99492 12.2848 2.37461 12.3314 2.61719C12.3814 2.85977 12.4744 3.25352 12.5424 3.49609C12.6104 3.73867 12.7392 4.14297 12.8322 4.39258C12.9252 4.6457 13.0289 4.88477 13.0611 4.93047C13.0933 4.97617 13.1684 5.02539 13.2257 5.04648C13.2829 5.06406 13.3652 5.06758 13.4045 5.05703C13.4439 5.04297 13.5727 4.96563 13.6907 4.88828C13.8088 4.81094 14.0342 4.68789 14.1916 4.61758C14.349 4.54375 14.6065 4.45234 14.7639 4.41016C14.9213 4.37148 15.1396 4.33984 15.2469 4.33984C15.3935 4.33633 15.4758 4.35742 15.5653 4.41719C15.6332 4.46289 15.7155 4.5543 15.7549 4.62109C15.7906 4.68789 15.8192 4.79336 15.8192 4.84961C15.8192 4.90937 15.787 5.05703 15.7477 5.18359C15.7083 5.31016 15.6547 5.58789 15.6332 5.79883C15.6046 6.08359 15.6046 6.30859 15.6368 6.66016C15.6583 6.92031 15.7083 7.31758 15.7513 7.53906C15.7906 7.76055 15.8872 8.18242 15.9623 8.4707C16.0375 8.7625 16.1806 9.22656 16.2807 9.50781C16.3773 9.78906 16.5204 10.1934 16.5991 10.4043C16.6778 10.6187 16.7815 10.9738 16.8316 11.1953C16.8853 11.4168 16.9425 11.7648 16.964 11.9688C16.9819 12.1727 16.9998 12.5242 16.9998 12.7527C16.9998 12.9777 16.9747 13.3504 16.9461 13.5789C16.9139 13.8039 16.8567 14.1238 16.8173 14.2891C16.7815 14.4543 16.6993 14.7391 16.6385 14.9219C16.5776 15.1047 16.4345 15.4457 16.3201 15.6777C16.2056 15.9098 16.016 16.2437 15.8944 16.416C15.7763 16.5918 15.5796 16.8414 15.4579 16.9785C15.3363 17.1156 15.1145 17.3336 14.9643 17.4637C14.814 17.5973 14.5386 17.8047 14.3525 17.9277C14.1665 18.0508 13.8446 18.2301 13.6371 18.325C13.4296 18.4199 13.1076 18.5465 12.9216 18.6062C12.7356 18.666 12.453 18.7469 12.2956 18.7855C12.1382 18.8242 11.8627 18.877 11.6874 18.9051C11.5121 18.9367 11.2868 18.9684 11.1866 18.9789C11.0757 18.993 11.022 18.9895 11.0435 18.9684C11.065 18.9508 11.2081 18.9016 11.3655 18.8594C11.5229 18.8172 11.7804 18.7223 11.9378 18.6484C12.0952 18.5711 12.3349 18.427 12.4709 18.325C12.6068 18.223 12.8107 18.0402 12.918 17.9172C13.0289 17.7941 13.2114 17.5516 13.3258 17.3723C13.4403 17.193 13.5834 16.9293 13.6442 16.7852C13.705 16.641 13.7945 16.3703 13.8446 16.1875C13.9233 15.8957 13.934 15.7832 13.934 15.291C13.934 14.8727 13.9125 14.6195 13.8553 14.3066C13.8124 14.0746 13.7301 13.7195 13.6693 13.5156C13.6085 13.3117 13.4761 12.9496 13.3795 12.707C13.2793 12.4645 13.1327 12.141 13.054 11.9863C12.9753 11.8316 12.8071 11.5223 12.6784 11.3008C12.5531 11.0793 12.317 10.6996 12.1561 10.457C11.8949 10.0598 11.852 10.0105 11.7053 9.95078C11.598 9.90859 11.5014 9.89453 11.4084 9.90859C11.3369 9.91914 11.2224 9.97539 11.158 10.0281C11.0972 10.0844 11.0256 10.1758 11.0006 10.232C10.9755 10.2953 10.9505 10.6363 10.9398 11.125C10.929 11.684 10.904 12.025 10.8539 12.2852C10.8181 12.4891 10.743 12.7879 10.6858 12.9531C10.6321 13.1184 10.5749 13.2695 10.557 13.2871C10.5355 13.3082 10.5284 10.893 10.5391 1.57305L10.8289 1.37617Z" fill="#FF4405"/>
<path d="M9.28729 2.6312C9.58421 2.3394 9.98129 1.98433 10.1673 1.8437L10.5072 1.59058L10.5429 13.3222L10.4535 13.4945C10.4034 13.5894 10.314 13.723 10.2532 13.7933C10.1924 13.8636 10.0636 13.9621 9.96698 14.0113C9.87039 14.064 9.70226 14.1238 9.59494 14.1484C9.48046 14.173 9.24794 14.1871 9.04045 14.1765C8.74711 14.166 8.64337 14.1449 8.46808 14.0675C8.35003 14.0113 8.18905 13.9199 8.11035 13.8566C7.99945 13.7722 7.92433 13.7441 7.7705 13.73C7.5809 13.716 7.56659 13.723 7.41992 13.8531C7.28398 13.9761 7.25894 14.0218 7.18382 14.3242C7.13374 14.507 7.08008 14.8304 7.06219 15.0449C7.0443 15.2664 7.04073 15.5757 7.05861 15.7656C7.07292 15.9484 7.10512 16.1769 7.12658 16.2753C7.14805 16.3703 7.19813 16.5531 7.24106 16.6796C7.28041 16.8062 7.377 17.0347 7.4557 17.1894C7.5344 17.3441 7.66676 17.5656 7.75261 17.6816C7.83489 17.7976 8.01734 17.998 8.1497 18.1246C8.28564 18.2511 8.51101 18.4269 8.64695 18.5148C8.78288 18.5992 9.00826 18.7187 9.14062 18.775C9.27298 18.8312 9.3803 18.8875 9.3803 18.9015C9.3803 18.9191 9.33737 18.9191 9.28371 18.9085C9.22647 18.898 9.08696 18.8628 8.9689 18.8347C8.85085 18.8101 8.62548 18.7468 8.46808 18.6976C8.31068 18.6484 7.97441 18.5042 7.71684 18.3812C7.45927 18.2582 7.09796 18.0472 6.91194 17.9171C6.72592 17.7871 6.37892 17.4917 6.13924 17.2597C5.90314 17.0277 5.59906 16.6937 5.47028 16.5214C5.33792 16.3492 5.13043 16.0328 5.00881 15.8183C4.8836 15.6074 4.70116 15.2347 4.59741 14.9921C4.49367 14.7496 4.35416 14.3558 4.28976 14.1132C4.22179 13.8707 4.12878 13.4664 4.08228 13.2167C4.01073 12.8195 4 12.6472 4 11.8808C4 11.1285 4.01073 10.9351 4.0787 10.5449C4.12521 10.2953 4.21464 9.87339 4.28261 9.61323C4.35058 9.35308 4.43286 9.10347 4.46147 9.05776C4.49009 9.01558 4.56879 8.94878 4.63319 8.91011C4.70116 8.86792 4.81205 8.83979 4.89791 8.83979C5.00881 8.83979 5.26637 8.92417 5.80297 9.13862C6.21794 9.30386 6.60429 9.43745 6.66153 9.43745C6.72234 9.43745 6.80105 9.40581 6.8404 9.36714C6.87975 9.32847 6.91552 9.27573 6.91552 9.25464C6.9191 9.23003 6.9191 8.84683 6.91552 8.40034C6.90837 7.82026 6.92267 7.47222 6.9656 7.16987C6.99422 6.93784 7.06219 6.57573 7.11585 6.36128C7.16593 6.14683 7.26252 5.81636 7.33049 5.623C7.39846 5.42964 7.53798 5.09565 7.64172 4.88472C7.74546 4.67378 7.91359 4.35737 8.02091 4.18159C8.12823 4.00581 8.33572 3.70698 8.48239 3.51362C8.62906 3.32026 8.99037 2.923 9.28729 2.6312Z" fill="#FF692E"/>
<path d="M11.0721 10.102C11.1187 10.0387 11.2117 9.96836 11.2796 9.94375C11.3476 9.91914 11.437 9.89805 11.48 9.89453C11.5265 9.89453 11.6302 9.92266 11.7125 9.9543C11.8448 10.0105 11.9021 10.0738 12.1561 10.457C12.3171 10.6996 12.5532 11.0793 12.6784 11.3008C12.8071 11.5223 12.9753 11.8316 13.054 11.9863C13.1327 12.141 13.2794 12.4645 13.3795 12.707C13.4761 12.9496 13.6085 13.3117 13.6693 13.5156C13.7301 13.7195 13.8124 14.0746 13.8553 14.3066C13.9125 14.6195 13.934 14.8727 13.934 15.291C13.934 15.7832 13.9233 15.8957 13.8446 16.1875C13.7945 16.3703 13.7051 16.641 13.6442 16.7852C13.5834 16.9293 13.4403 17.193 13.3259 17.3723C13.2114 17.5516 13.0289 17.7941 12.918 17.9172C12.8107 18.0402 12.6068 18.223 12.4709 18.325C12.3349 18.427 12.0953 18.5711 11.9379 18.6484C11.7805 18.7223 11.5229 18.8172 11.3655 18.8594C11.2081 18.9016 11.065 18.9508 11.0471 18.9684C11.0256 18.9859 10.9004 19 10.5248 19L10.5212 16.2156C10.5177 14.6828 10.5177 13.4207 10.5212 13.4102C10.5212 13.3996 10.5821 13.2344 10.6536 13.041C10.7216 12.8477 10.811 12.5066 10.8539 12.2852C10.9076 11.9898 10.9326 11.6805 10.9434 11.125C10.9505 10.7102 10.9648 10.334 10.972 10.2883C10.9827 10.2461 11.0292 10.1617 11.0721 10.102Z" fill="#FFBB00"/>
<path d="M10.0421 13.9656C10.1423 13.8988 10.2818 13.7617 10.3605 13.6492V13.6457C10.4392 13.5367 10.5072 13.4453 10.5143 13.4453C10.5179 13.4453 10.5251 14.6934 10.5251 19H10.2103C10.0385 19 9.78456 18.9824 9.64862 18.9613C9.5091 18.9437 9.39105 18.9121 9.38032 18.8945C9.36959 18.8805 9.25869 18.8207 9.12991 18.768C9.00112 18.7152 8.78291 18.5992 8.64697 18.5148C8.51103 18.427 8.28566 18.2512 8.14972 18.1246C8.01736 17.998 7.83491 17.7977 7.75264 17.6816C7.66678 17.5656 7.53442 17.3441 7.45572 17.1895C7.37702 17.0348 7.28043 16.8063 7.24108 16.6797C7.19815 16.5531 7.14807 16.3703 7.1266 16.2754C7.10514 16.177 7.07294 15.9484 7.05863 15.7656C7.04075 15.5758 7.04433 15.2664 7.06221 15.0449C7.0801 14.8305 7.13376 14.507 7.18384 14.3242C7.25896 14.0219 7.28401 13.9762 7.41994 13.8531C7.56661 13.723 7.58092 13.716 7.77052 13.7301C7.92435 13.7441 7.99947 13.7723 8.11037 13.8566C8.18907 13.9199 8.35005 14.0148 8.4681 14.0676C8.66843 14.159 8.71494 14.166 9.12991 14.166C9.37674 14.166 9.64146 14.1484 9.72016 14.1238C9.79887 14.0992 9.94196 14.0289 10.0421 13.9656Z" fill="#FDE272"/>
</svg>
