<svg width="20" height="20" viewBox="0 0 20 20" fill="none" xmlns="http://www.w3.org/2000/svg">
<path d="M10.0029 19V18.4727V17.9453H12.1949C14.3199 17.9453 14.3868 17.9488 14.4994 18.0156C14.5592 18.0543 14.6436 18.1387 14.6823 18.1984C14.7246 18.2687 14.7527 18.3777 14.7527 18.4727C14.7527 18.5676 14.7246 18.6766 14.6823 18.7434C14.6436 18.8066 14.5592 18.891 14.4994 18.9297C14.3868 18.9965 14.3199 19 10.0029 19Z" fill="#1D2939"/>
<path fill-rule="evenodd" clip-rule="evenodd" d="M10.003 1H12.7403C15.2806 1 15.4811 1.00352 15.5691 1.06328C15.6218 1.09492 15.6992 1.16875 15.738 1.22852C15.7978 1.31641 15.8083 1.39023 15.8083 2.05469H17.2157C18.3556 2.05469 18.6406 2.06523 18.7215 2.10391C18.7743 2.13203 18.8552 2.19531 18.9924 2.34297L18.9995 3.40117C19.003 3.98477 18.9889 4.56484 18.9713 4.69141C18.9537 4.81797 18.9009 5.07109 18.8552 5.25391C18.8095 5.43672 18.7074 5.74961 18.6265 5.94648C18.5491 6.14687 18.4189 6.42461 18.338 6.56172C18.2606 6.70234 18.1058 6.94492 17.9967 7.09609C17.8841 7.25078 17.6625 7.51797 17.4971 7.69023C17.3318 7.8625 17.0714 8.10508 16.9166 8.22461C16.7618 8.34062 16.5472 8.49531 16.4416 8.56562C16.3361 8.63242 16.1602 8.73438 16.0546 8.78711C15.9491 8.83984 15.7344 8.93828 15.5796 9.00508C15.4248 9.07187 15.1645 9.16328 14.9991 9.20898C14.8337 9.25469 14.5558 9.31797 14.3834 9.34961C14.211 9.37773 14.0034 9.40234 13.926 9.40234C13.7923 9.40234 13.7747 9.41641 13.5214 9.72227C13.3771 9.89805 13.1238 10.1688 12.9585 10.3234C12.7931 10.4781 12.5081 10.7031 12.3251 10.8262C12.1422 10.9457 11.9065 11.0828 11.618 11.2129L11.6391 11.4941C11.6496 11.6488 11.6883 11.9406 11.7235 12.1445C11.7622 12.3484 11.8396 12.6859 11.8994 12.9004C11.9628 13.1148 12.0683 13.4312 12.1387 13.6035C12.209 13.7758 12.3181 14.0289 12.3885 14.166C12.4553 14.3031 12.5925 14.5562 12.6911 14.7285C12.7896 14.9008 12.9831 15.1961 13.1203 15.3789C13.2575 15.5617 13.4194 15.7691 13.4827 15.8359C13.5425 15.9027 13.6093 15.9871 13.6269 16.0188C13.6516 16.0645 13.648 16.0891 13.6199 16.0996C13.5953 16.1102 12.7755 16.1137 10.0206 16.0996L10.0101 11.6945C10.0066 9.27578 9.996 7.29297 9.98545 7.29297C9.97489 7.29297 9.76731 7.39492 9.5175 7.52148C9.17622 7.69727 9.03549 7.75 8.91938 7.75C8.83846 7.75 8.72587 7.72539 8.66606 7.69727C8.60625 7.66914 8.52885 7.60234 8.49015 7.54609C8.45144 7.49336 8.41274 7.39492 8.40219 7.32812C8.39163 7.26133 8.4233 6.98359 8.55348 6.2207L8.1559 5.81641C7.85332 5.51055 7.75129 5.38398 7.7337 5.28906C7.71963 5.22227 7.71963 5.12031 7.7337 5.06055C7.74425 5.00078 7.79351 4.90937 7.83573 4.84961C7.87795 4.78984 7.96239 4.72656 8.01869 4.70195C8.07498 4.67734 8.34237 4.62812 8.61329 4.58594C8.8842 4.54375 9.10938 4.50859 9.10938 4.50508C9.11289 4.50156 9.21844 4.28711 9.34862 4.03047C9.49991 3.72812 9.61602 3.54531 9.67935 3.49961C9.73212 3.46445 9.82712 3.42578 10.003 3.39062V1ZM15.7028 3.63672C15.6817 3.8793 15.6148 4.35391 15.5585 4.69141C15.5022 5.02891 15.4037 5.52812 15.3369 5.79883C15.27 6.06953 15.1504 6.48789 15.073 6.73047C14.9956 6.97305 14.8689 7.32109 14.7915 7.50391C14.7176 7.68672 14.6156 7.9293 14.5628 8.03828C14.5136 8.15078 14.4784 8.24219 14.4889 8.24219C14.4995 8.24219 14.6437 8.19648 14.8161 8.14023C14.985 8.08398 15.2559 7.97148 15.4213 7.89062C15.5867 7.80625 15.84 7.66211 15.9842 7.56367C16.1285 7.46523 16.417 7.21914 16.6211 7.01523C16.8462 6.79023 17.0749 6.52305 17.191 6.34375C17.2966 6.17852 17.4303 5.95 17.4901 5.83398C17.5464 5.71797 17.6379 5.50352 17.6871 5.35938C17.7399 5.21523 17.8138 4.94453 17.849 4.76172C17.8912 4.55781 17.9264 4.17461 17.944 3.7668L17.9721 3.10938C16.0229 3.10938 15.7696 3.11992 15.7591 3.15508C15.752 3.17617 15.7274 3.39414 15.7028 3.63672Z" fill="#FDB022"/>
<path d="M6.30194 17.0383C6.29843 16.5391 6.30898 16.1172 6.32657 16.1066C6.34416 16.0926 7.17801 16.082 10.0033 16.082V17.9453H6.30898L6.30194 17.0383Z" fill="#667085"/>
<path d="M10.0031 17.9453V17.0242V16.0996L13.6692 16.1172L13.6973 17.9453H10.0031V19H5.62271L5.49956 18.9191C5.43272 18.8734 5.34828 18.775 5.30957 18.6977C5.26735 18.6063 5.24976 18.5113 5.26032 18.4199C5.26735 18.3426 5.30606 18.2301 5.34828 18.1738C5.38698 18.1176 5.47494 18.0402 5.54882 18.0051C5.66493 17.9488 5.8514 17.9453 10.0031 17.9453Z" fill="#333F53"/>
<path fill-rule="evenodd" clip-rule="evenodd" d="M10.003 1V3.39062L9.88693 3.41172C9.82711 3.42578 9.73212 3.46445 9.67583 3.49961C9.61601 3.54531 9.49991 3.72813 9.34862 4.03398C9.21844 4.28711 9.11289 4.50156 9.10937 4.50508C9.10937 4.50859 8.8842 4.54375 8.61328 4.58594C8.34237 4.62812 8.07498 4.67734 8.01868 4.70195C7.96239 4.72656 7.87795 4.78984 7.83573 4.84961C7.79351 4.90937 7.74425 5.00078 7.73369 5.06055C7.71962 5.12031 7.71962 5.22227 7.73369 5.28906C7.75129 5.38398 7.85332 5.51055 8.55347 6.2207L8.46903 6.71289C8.42329 6.98359 8.39163 7.26133 8.40218 7.32812C8.41274 7.39492 8.45144 7.49336 8.49014 7.54961C8.52884 7.60234 8.60625 7.66914 8.66606 7.69727C8.72587 7.72539 8.83846 7.75 8.91938 7.75C9.03549 7.75 9.17622 7.69727 9.5175 7.52148C9.7673 7.39492 9.97488 7.29297 9.98544 7.29297C9.996 7.29297 10.003 9.27227 10.003 16.082H8.17349C7.16724 16.082 6.34395 16.075 6.34395 16.0645C6.34395 16.0539 6.45301 15.9168 6.58319 15.7551C6.71689 15.5969 6.89633 15.3648 6.98429 15.2383C7.07224 15.1117 7.23761 14.8516 7.35019 14.6582C7.46278 14.4648 7.62814 14.1414 7.71962 13.9375C7.8111 13.7336 7.94128 13.4031 8.00813 13.1992C8.07498 12.9953 8.17349 12.6473 8.22275 12.4258C8.272 12.2043 8.3283 11.8879 8.34941 11.7227C8.367 11.5574 8.38459 11.3746 8.38459 11.3184C8.38459 11.2234 8.35996 11.2023 8.18053 11.118C8.07146 11.0687 7.86036 10.9457 7.7161 10.8508C7.57185 10.7559 7.32557 10.5695 7.17428 10.4359C7.01947 10.3023 6.79078 10.0738 6.66763 9.92969C6.54449 9.78555 6.3932 9.60625 6.32987 9.53594C6.2384 9.42695 6.19969 9.40586 6.08007 9.40234C6.00267 9.40234 5.79508 9.37773 5.62268 9.34961C5.44677 9.31797 5.16178 9.25469 4.98938 9.20547C4.81346 9.15625 4.52848 9.05078 4.35608 8.97695C4.18016 8.90312 3.91276 8.76602 3.75796 8.67461C3.60315 8.58672 3.35686 8.425 3.21261 8.31953C3.06836 8.21055 2.83263 8.01367 2.68838 7.87656C2.54764 7.73945 2.34006 7.51445 2.23099 7.38086C2.11841 7.24727 1.9636 7.03984 1.88619 6.92383C1.80879 6.80781 1.66454 6.55469 1.56954 6.36133C1.47103 6.16797 1.34789 5.89023 1.29511 5.74609C1.24234 5.60195 1.16141 5.31719 1.11216 5.11328C1.0242 4.76523 1.02068 4.68086 1.00661 3.58398C0.992532 2.4625 0.996051 2.42031 1.06642 2.30781C1.10512 2.24805 1.18956 2.16367 1.24937 2.125C1.36196 2.0582 1.42881 2.05469 4.19775 2.05469L4.20831 1.67148C4.21534 1.30234 4.21886 1.28125 4.31738 1.17227C4.37015 1.10898 4.45107 1.0457 4.49329 1.03164C4.53199 1.01758 5.79156 1.00352 10.003 1V1ZM2.06211 3.75977C2.0797 4.17461 2.11137 4.5332 2.15711 4.75117C2.19229 4.94102 2.26618 5.21523 2.31895 5.35938C2.36821 5.50352 2.46672 5.73555 2.53709 5.86914C2.60394 6.00273 2.74115 6.23477 2.83615 6.37891C2.93466 6.52305 3.16687 6.79727 3.34983 6.98711C3.5363 7.17695 3.82129 7.42656 3.98665 7.53906C4.15201 7.64805 4.41941 7.80977 4.58477 7.89062C4.75013 7.97148 5.02456 8.08398 5.20048 8.14023C5.37288 8.19648 5.52065 8.23867 5.52417 8.23516C5.53121 8.22813 5.46436 8.07344 5.37992 7.89062C5.29548 7.70781 5.16178 7.37734 5.08086 7.15937C5.00345 6.94492 4.87327 6.54063 4.79587 6.26289C4.71847 5.98867 4.60588 5.53516 4.54959 5.25391C4.49329 4.97266 4.41589 4.52266 4.37719 4.25195C4.33849 3.98125 4.29275 3.61211 4.27867 3.43281L4.25053 3.10938H2.041L2.06211 3.75977Z" fill="#FDE272"/>
<path d="M10.0029 7.27534L10.0064 5.3312L10.01 3.38354L10.119 3.40815C10.1824 3.42222 10.2774 3.46792 10.3372 3.51362C10.4075 3.56636 10.5201 3.75269 10.9001 4.51206L11.3927 4.58589C11.6636 4.62808 11.938 4.68784 12.0049 4.71948C12.0717 4.75464 12.1526 4.81792 12.1878 4.86714C12.2195 4.91636 12.2582 5.00073 12.2723 5.0605C12.2863 5.12026 12.2863 5.22222 12.2723 5.28901C12.2547 5.38394 12.1526 5.5105 11.4525 6.22065L11.6354 7.3105L11.5651 7.45112C11.5229 7.52847 11.4384 7.6269 11.3716 7.67261C11.2906 7.72534 11.2027 7.74995 11.0936 7.74995C10.9705 7.74995 10.8368 7.69722 10.0029 7.27534Z" fill="#F38744"/>
</svg>
